<?xml version="1.0" encoding="utf-8"?>
<!-- Generator: Adobe Illustrator 23.0.3, SVG Export Plug-In . SVG Version: 6.00 Build 0)  -->
<svg version="1.1" id="Calque_1" xmlns="http://www.w3.org/2000/svg" xmlns:xlink="http://www.w3.org/1999/xlink" x="0px" y="0px"
	 viewBox="0 0 500 500" style="enable-background:new 0 0 500 500;" xml:space="preserve">
<style type="text/css">
	.st0{fill:#231F20;}
</style>
<g>
	<g>
		<g>
			<path class="st0" d="M91,380.6c0.3,0.7,0.7,1.5,1.1,2.2c3.2,5.9,2,5.6-1.9,11.4c-3.2,4.8-6.5,9.2-7.6,15
				c-1.4,7.2,0.4,20.5,6.7,25.4c6.2,4.9,16.1,1.4,21.7-2.7c3.5-2.5,6.7-5.4,10-8.2c1.9,2.7,4.1,4.9,6.4,6.5c2.4,1.6,5.1,2.9,8.4,3.7
				c-1.3,4.1-2.9,8.1-4,12.3c-1.7,6.7-1.4,17.1,5.4,21.2c6.9,4.1,19.9,0.9,26.1-3c5-3.1,7.9-7.8,11.2-12.5c4-5.7,3.3-6.7,9.9-5.9
				c0.8,0.1,1.6,0.2,2.4,0.2c0.7,0.4,1.4,0.9,2.1,1.2c5.9,3.2,4.7,3.6,4.6,10.6c-0.1,5.8-0.5,11.2,1.7,16.7
				c2.8,6.8,11.4,17,19.4,17.8c7.9,0.7,14.3-7.5,16.8-14c1.6-4,2.6-8.2,3.9-12.3c3.1,1.3,6.1,1.9,8.9,2c2.8,0.1,5.9-0.4,9-1.5
				c1.1,4.2,1.9,8.4,3.3,12.5c2.2,6.6,8.1,15.2,16,14.9c8-0.3,17.2-10,20.3-16.7c2.5-5.3,2.4-10.8,2.6-16.6
				c0.2-6.9-0.8-7.4,5.2-10.3c0.7-0.4,1.4-0.7,2.1-1.1c0.8,0,1.6,0,2.4-0.1c6.7-0.5,6,0.5,9.6,6.4c3,4.9,5.7,9.7,10.5,13.1
				c6,4.2,18.8,8.1,25.9,4.4c7-3.7,7.9-14.1,6.5-20.9c-0.8-4.2-2.2-8.3-3.3-12.5c3.3-0.6,6.1-1.7,8.6-3.2c2.4-1.5,4.7-3.5,6.8-6.1
				c3.2,2.9,6.2,6,9.5,8.7c5.4,4.4,15,8.4,21.5,3.9c6.6-4.6,9.1-17.7,8.1-25c-0.8-5.8-3.8-10.4-6.8-15.4c-3.5-6-4.7-5.8-1.2-11.5
				c0.4-0.7,0.8-1.4,1.2-2.1c0.7-0.5,1.4-0.9,2-1.4c5.3-4,5.3-2.8,11.5,0.2c5.2,2.5,10,5.1,15.9,5.4c7.3,0.3,20.2-3.3,24.2-10.3
				c3.9-6.9-0.9-16.1-5.8-21.1c-3-3.1-6.3-5.8-9.6-8.7c2.5-2.3,4.3-4.7,5.5-7.3c1.3-2.5,2.1-5.5,2.4-8.8c4.3,0.8,8.5,1.7,12.7,2.2
				c6.9,0.8,17.2-1.1,20.2-8.4c3-7.4-2-19.8-6.7-25.4c-3.8-4.5-8.9-6.7-14-9.3c-6.2-3.1-7.1-2.3-7.3-9c0-0.8,0-1.6-0.1-2.4
				c0.3-0.7,0.7-1.5,1-2.3c2.4-6.2,2.9-5.2,9.8-6.1c5.7-0.7,11.2-1.1,16.3-4.1c6.3-3.7,15.2-13.7,14.8-21.7
				c-0.4-7.9-9.5-13.1-16.2-14.7c-4.2-1-8.5-1.4-12.7-2.1c0.8-3.3,1-6.3,0.7-9.1c-0.3-2.8-1.2-5.7-2.7-8.7c4-1.7,8-3.1,11.9-5
				c6.2-3.1,13.9-10.2,12.5-18c-1.5-7.8-12.4-15.6-19.4-17.7c-5.6-1.7-11.1-0.9-16.8-0.3c-6.9,0.8-7.2,1.9-11-3.6
				c-0.4-0.7-0.9-1.3-1.4-2c-0.1-0.8-0.2-1.6-0.4-2.4c-1.4-6.5-0.3-6,5-10.4c4.4-3.7,8.8-7,11.5-12.3c3.4-6.6,5.4-19.8,0.7-26.3
				c-4.6-6.4-15.1-5.9-21.6-3.5c-4,1.4-7.9,3.4-11.8,5.1c-1.1-3.2-2.6-5.8-4.4-8c-1.8-2.2-4.1-4.2-7-5.9c2.5-3.6,5.1-7,7.3-10.7
				c3.6-5.9,6.2-16.1,0.7-21.9c-5.4-5.8-18.8-6.4-25.9-4.4c-5.7,1.6-9.8,5.2-14.3,8.9c-5.4,4.4-5.1,5.5-11.2,2.9
				c-0.8-0.3-1.5-0.6-2.3-0.9c-0.6-0.6-1.1-1.2-1.7-1.8c-4.7-4.7-3.5-4.8-1.5-11.5c1.7-5.5,3.6-10.7,3-16.5
				c-0.7-7.3-6.2-19.5-13.6-22.5c-7.3-2.9-15.8,3.2-20.1,8.7c-2.6,3.4-4.8,7.1-7.3,10.7c-2.6-2.1-5.3-3.5-8-4.4
				c-2.7-0.9-5.7-1.3-9-1.1c0.1-4.3,0.5-8.6,0.4-12.9c-0.2-6.9-3.5-16.8-11.2-18.8c-7.7-2-19.3,4.8-24.2,10.3
				c-3.9,4.4-5.4,9.7-7.2,15.2c-2.2,6.6-1.3,7.4-7.9,8.5c-0.8,0.1-1.6,0.3-2.4,0.5c-0.8-0.2-1.6-0.4-2.4-0.6
				c-6.5-1.4-5.6-2.2-7.4-8.9c-1.5-5.5-2.7-10.9-6.4-15.5c-4.6-5.8-15.8-13.1-23.6-11.6c-7.8,1.5-11.6,11.2-12.2,18.2
				c-0.4,4.3-0.2,8.6-0.3,12.9c-3.3-0.3-6.3-0.1-9.1,0.6c-2.7,0.7-5.5,2-8.2,3.9c-2.2-3.7-4.2-7.5-6.7-11.1
				c-3.9-5.7-12.1-12.3-19.6-9.8c-7.6,2.5-13.7,14.4-14.8,21.7c-0.9,5.8,0.7,11.1,2.1,16.7c1.7,6.7,2.9,6.9-2.1,11.4
				c-0.6,0.5-1.2,1.1-1.7,1.7c-0.8,0.2-1.6,0.5-2.3,0.8c-6.3,2.3-5.9,1.2-11-3.5c-4.3-3.8-8.2-7.7-13.8-9.6c-7-2.4-20.3-2.5-26.1,3
				C84.7,69.6,86.7,79.9,90,86c2,3.8,4.5,7.4,6.7,11c-3,1.5-5.4,3.4-7.3,5.5c-1.9,2.1-3.6,4.7-4.8,7.8c-3.9-1.9-7.6-4-11.6-5.7
				c-6.4-2.7-16.8-3.8-21.8,2.4c-5,6.2-3.7,19.5-0.7,26.3c2.4,5.4,6.6,9,10.8,12.9c5.1,4.7,6.2,4.2,4.4,10.7
				c-0.2,0.8-0.4,1.6-0.6,2.4c-0.6,0.6-1.1,1.2-1.6,1.9c-4,5.3-4.3,4.2-11.2,3c-5.6-0.9-11.1-2.1-16.8-0.6
				c-7.1,1.8-18.5,8.9-20.3,16.7c-1.9,7.7,5.4,15.2,11.4,18.6c3.7,2.1,7.7,3.8,11.6,5.7c-1.7,2.9-2.7,5.8-3.2,8.5
				c-0.5,2.8-0.5,5.9,0.2,9.1c-4.3,0.5-8.6,0.7-12.8,1.5c-6.8,1.2-16.2,5.9-17,13.8c-0.9,8,7.4,18.4,13.6,22.5c4.9,3.2,10.4,4,16,5
				c6.9,1.2,7.5,0.2,9.5,6.6c0.2,0.8,0.5,1.5,0.8,2.3c-0.1,0.8-0.2,1.6-0.3,2.4c-0.5,6.7-1.3,5.8-7.7,8.6
				c-5.3,2.3-10.4,4.2-14.5,8.5c-5,5.4-10.7,17.5-8.1,25c2.6,7.5,12.8,9.9,19.7,9.5c4.3-0.3,8.5-1,12.8-1.5c0.1,3.3,0.8,6.3,1.9,8.9
				c1.1,2.6,2.7,5.2,5.1,7.6c-3.4,2.7-6.9,5.3-10,8.2c-5.1,4.7-10.4,13.7-6.9,20.8c3.6,7.1,16.2,11.5,23.6,11.6
				c5.9,0.1,10.9-2.3,16.2-4.5c6.4-2.7,6.4-3.9,11.6,0.4C89.7,379.7,90.3,380.2,91,380.6z M234.8,272.7l1.4-11.3l-11.3-0.8l7.3-8.7
				l-9.1-6.8l10.9-3.4l-4-10.6l10.9,3l2.4-11.1l7.6,8.5l8-8.1l1.8,11.2l11.1-2.4l-4.5,10.4l10.6,4l-9.5,6.3l6.8,9.1l-11.4,0.2
				l0.8,11.3l-9.6-6l-5.4,10l-4.9-10.3L234.8,272.7z M182,350.2c1-20.3,10-37.7,27.4-51.4c0.4-0.3,0.9-0.4,2-0.9
				c0.2,2.1,0.4,3.9,0.6,5.6c0,0.8,0.1,1.6,0.2,2.3c0.8-0.2,1.5-0.4,2.3-0.7c1.7-0.5,3.4-1,5.5-1.5c-0.1,1.3,0,1.8-0.1,2.2
				C213.4,327.2,200.6,341.9,182,350.2z M138.6,297.3c11.8-16.6,28.7-26.3,50.8-28.4c0.5,0,1,0.1,2.2,0.3c-1,1.9-1.8,3.5-2.6,5
				c-0.4,0.7-0.7,1.4-1.1,2.1c0.7,0.2,1.5,0.5,2.3,0.7c1.7,0.5,3.3,1,5.4,1.6c-0.7,1-0.9,1.5-1.3,1.8
				C177.5,294.9,158.8,300.3,138.6,297.3z M130.7,229.3c18.9-7.5,38.4-6.6,58.1,3.6c0.4,0.2,0.7,0.6,1.7,1.5c-1.8,1.1-3.4,2-4.9,2.8
				c-0.7,0.4-1.4,0.8-2,1.2c0.5,0.6,1,1.2,1.6,1.8c1.1,1.3,2.3,2.7,3.7,4.3c-1.2,0.5-1.6,0.8-2.1,0.8
				C164.7,248.3,146,242.7,130.7,229.3z M160.8,167.9c20,3.9,35.9,15.2,46.9,34.4c0.2,0.4,0.3,0.9,0.6,2.1c-2.1-0.1-3.9-0.1-5.6-0.3
				c-0.8-0.1-1.6-0.1-2.3-0.1c0.1,0.8,0.2,1.5,0.3,2.3c0.3,1.7,0.5,3.5,0.8,5.6c-1.2-0.2-1.8-0.2-2.2-0.4
				C179.1,202.2,166.4,187.4,160.8,167.9z M219.3,132.4c14.7,14.1,21.9,32.2,20.9,54.3c0,0.5-0.3,0.9-0.7,2.1
				c-1.8-1.2-3.2-2.2-4.6-3.3c-0.7-0.5-1.3-0.9-1.9-1.4c-0.3,0.7-0.7,1.4-1,2.1c-0.7,1.6-1.5,3.2-2.4,5.1c-0.9-0.9-1.4-1.1-1.6-1.5
				C216.2,171.2,213.5,151.9,219.3,132.4z M287.8,134.3c4.8,19.8,1,38.9-11.8,57c-0.3,0.4-0.8,0.6-1.7,1.4c-0.8-2-1.5-3.6-2.1-5.2
				c-0.3-0.7-0.6-1.5-0.9-2.2c-0.7,0.4-1.3,0.8-2,1.3c-1.5,1-2.9,1.9-4.8,3c-0.3-1.2-0.5-1.7-0.5-2.2
				C264.1,165.2,272.3,147.5,287.8,134.3z M344.3,172.8c-6.7,19.2-20.2,33.3-40.7,41.6c-0.5,0.2-1,0.1-2.2,0.3
				c0.4-2.1,0.7-3.9,1.1-5.6c0.2-0.8,0.3-1.5,0.5-2.3c-0.8,0-1.6,0-2.3,0c-1.8,0-3.5,0-5.7-0.1c0.4-1.2,0.5-1.7,0.7-2.1
				C307.7,186.1,324.1,175.6,344.3,172.8z M371.1,235.8c-16,12.6-35,17.1-56.7,12.9c-0.5-0.1-0.9-0.4-2-1c1.5-1.6,2.7-2.9,3.9-4.1
				c0.6-0.6,1.1-1.1,1.6-1.7c-0.7-0.4-1.3-0.8-2-1.3c-1.5-0.9-2.9-1.9-4.7-3.1c1-0.8,1.3-1.2,1.7-1.4
				C333.1,227.2,352.6,227.3,371.1,235.8z M359.5,303.3c-20.3,1.9-38.7-4.5-54.7-19.8c-0.3-0.3-0.6-0.8-1.2-1.9
				c2.1-0.5,3.8-1,5.5-1.3c0.8-0.2,1.5-0.3,2.3-0.5c-0.3-0.7-0.7-1.4-1-2.1c-0.7-1.6-1.4-3.2-2.3-5.2c1.2-0.1,1.8-0.3,2.2-0.2
				C332.2,275.5,348.6,286.1,359.5,303.3z M313.3,353.8c-18.1-9.4-30.1-24.7-35.3-46.3c-0.1-0.4,0-1,0-2.2c2,0.7,3.7,1.2,5.3,1.9
				c0.7,0.3,1.5,0.5,2.2,0.8c0.1-0.8,0.2-1.5,0.3-2.3c0.2-1.7,0.5-3.4,0.9-5.6c1.1,0.6,1.6,0.7,2,1
				C305.4,315.6,313.4,333.4,313.3,353.8z M247.1,371.2c-10.2-17.6-12-37.1-4.7-58c0.1-0.5,0.5-0.8,1.2-1.9c1.4,1.7,2.5,3,3.5,4.5
				c0.5,0.6,1,1.2,1.5,1.8c0.5-0.6,1-1.2,1.5-1.8c1.1-1.3,2.3-2.6,3.7-4.2c0.6,1.1,1,1.5,1.1,1.9
				C261.1,334.9,258.2,354.2,247.1,371.2z M212.9,280.6c0.2,2.3,0.3,4.3,0.1,6.4c-0.2,2.1-1.3,5.1-2.9,5.9
				c-13.1,6.5-20.2,18.1-26,30.6c-2.9,6.1-5.3,12.5-8.7,20.6c1.4-15.1,4.1-28.8,9.9-40.8c-12.9,3.4-26.9,3.3-42,1.7
				c8.6-1.7,15.3-2.8,21.9-4.5c13.4-3.3,26.1-8,35.1-19.5c1.1-1.4,4.2-1.9,6.3-1.7C208.7,279.5,210.7,280,212.9,280.6z M202.2,255.4
				c-1.1,2-2.1,3.8-3.3,5.4c-1.2,1.6-3.8,3.6-5.5,3.4c-14.6-1.6-26.7,4.3-38.4,11.7c-5.8,3.6-11.2,7.7-18.4,12.6
				c9.3-11.9,19-22.1,30.4-29c-12.6-4.1-24.4-11.8-36.2-21.2c8.2,3.2,14.4,5.9,20.8,8.1c13.1,4.5,26.3,7.4,40.1,2.5
				c1.7-0.6,4.6,0.7,6.2,2C199.3,252.2,200.7,253.7,202.2,255.4z M206.8,228.5c-2,1.1-3.8,2.1-5.7,2.8c-2,0.7-5.2,0.9-6.5-0.2
				c-11.4-9.2-24.8-10.8-38.6-11c-6.8-0.1-13.5,0.4-22.3,0.7c14.3-5,27.9-8.3,41.2-8c-8.4-10.3-14.2-23.1-19-37.4
				c5.2,7.1,8.9,12.8,13.1,18.1c8.6,10.8,18.1,20.5,32.4,23.8c1.7,0.4,3.5,3.1,4.1,5C206.1,224.2,206.5,226.2,206.8,228.5z
				 M225.3,208.3c-2.3-0.1-4.3-0.3-6.3-0.8c-2-0.5-4.8-2-5.4-3.7c-4.6-13.9-15-22.5-26.5-30.1c-5.6-3.7-11.6-7-19.2-11.5
				c14.7,3.5,28,8.1,39,15.6c-1.5-13.2,0.6-27.1,4.3-41.8c0.5,8.7,0.6,15.6,1.3,22.3c1.4,13.8,4.2,27,14.3,37.5
				c1.2,1.3,1.3,4.5,0.8,6.5C227,204.3,226.2,206.2,225.3,208.3z M251.7,201.3c-1.9-1.4-3.5-2.6-4.9-4.1c-1.4-1.5-3-4.3-2.5-6
				c3.7-14.2-0.5-27.1-6.1-39.7c-2.7-6.2-6-12.2-9.9-20c10.5,10.9,19.2,22,24.4,34.2c5.9-11.9,15.1-22.5,26.2-32.8
				c-4.3,7.6-7.9,13.4-10.9,19.5c-6.3,12.3-11.1,24.9-8.2,39.3c0.3,1.7-1.3,4.5-2.8,5.9C255.3,198.9,253.6,200.1,251.7,201.3z
				 M277.8,209.7c-0.8-2.2-1.5-4.1-1.9-6.1c-0.4-2-0.2-5.2,1.1-6.4c10.7-9.9,14.2-23,16.4-36.7c1-6.7,1.6-13.5,2.5-22.2
				c2.9,14.8,4.2,28.8,2,41.9c11.4-6.9,24.9-10.8,39.7-13.5c-7.8,4.1-13.9,7-19.7,10.4c-12,7-22.8,15-28.2,28.6
				c-0.6,1.6-3.5,3-5.6,3.4C282.1,209.6,280,209.7,277.8,209.7z M295.1,230.9c0.5-2.3,0.9-4.2,1.7-6.1c0.7-1.9,2.7-4.5,4.4-4.8
				c14.4-2.5,24.4-11.7,33.6-22c4.5-5.1,8.6-10.5,14.1-17.3c-5.6,14.1-12,26.5-21,36.4c13.3,0.4,26.7,4.4,40.7,10.2
				c-8.7-0.8-15.5-1.6-22.2-1.9c-13.8-0.6-27.3,0.3-39.1,8.9c-1.4,1-4.6,0.6-6.5-0.2C298.8,233.2,297.1,232.1,295.1,230.9z
				 M298.2,258c1.6-1.6,3.1-3.1,4.7-4.3c1.7-1.2,4.7-2.3,6.3-1.7c13.5,5.7,26.8,3.4,40.2-0.3c6.5-1.8,12.9-4.2,21.2-6.9
				c-12.3,8.8-24.4,15.8-37.3,19.2c11,7.5,20.1,18.2,28.8,30.6c-6.9-5.4-12.2-9.7-17.7-13.6c-11.3-8-23.1-14.5-37.7-13.7
				c-1.8,0.1-4.2-1.9-5.4-3.7C300.1,262,299.2,260.1,298.2,258z M286.2,282.6c2.3-0.5,4.3-0.9,6.3-1c2.1-0.1,5.2,0.6,6.2,2
				c8.3,12.1,20.8,17.4,34,21.4c6.5,2,13.1,3.4,21.6,5.6c-15.1,0.8-29.1,0.1-41.8-4c5.2,12.3,7.1,26.2,7.7,41.3
				c-2.9-8.2-5-14.7-7.5-21c-5.2-12.8-11.6-24.7-24.4-31.9c-1.6-0.9-2.5-3.9-2.6-6C285.7,286.9,285.9,284.9,286.2,282.6z
				 M262.8,296.8c2.2,0.8,4.1,1.5,5.8,2.5c1.8,1,4.1,3.3,4.1,5c0.5,14.6,8.1,25.8,17,36.4c4.4,5.2,9.2,10,15.1,16.4
				c-13.1-7.5-24.5-15.7-33-25.9c-2.3,13.1-8.1,25.8-15.8,38.9c2-8.5,3.8-15.1,5.1-21.8c2.5-13.6,3.6-27.1-3.2-40
				c-0.8-1.6,0-4.7,1.1-6.4C260.1,300.1,261.3,298.5,262.8,296.8z M235.5,296c1.4,1.8,2.6,3.5,3.5,5.3c1,1.8,1.7,5,0.8,6.5
				c-7.5,12.6-7.2,26.1-5.4,39.8c0.9,6.7,2.3,13.4,3.8,22c-7-13.4-12.2-26.4-13.7-39.7c-9,9.8-20.8,17.3-34.3,24.1
				c6.3-6.1,11.3-10.6,16-15.6c9.5-10,17.7-20.8,18.9-35.4c0.1-1.7,2.5-3.9,4.4-4.8C231.3,297.3,233.3,296.7,235.5,296z
				 M175.7,359.4c0-3.3,0.1-6.4,0.2-9.4c0.5,2.2,0.9,4.6,1.4,7c2.5-0.5,4.8-0.9,7-1.2C181.7,357,178.8,358.2,175.7,359.4z
				 M128.4,301.6c1.8-2.7,3.6-5.3,5.2-7.8c-0.8,2.1-1.7,4.3-2.6,6.7c2.3,0.9,4.5,1.9,6.5,2.8C134.7,302.8,131.6,302.3,128.4,301.6z
				 M119.7,227.4c3-1.4,5.9-2.6,8.7-3.7c-1.8,1.4-3.8,2.8-5.8,4.2c1.4,2,2.8,4,4.1,5.9C124.4,231.8,122.1,229.7,119.7,227.4z
				 M152.6,160.3c3.3,0.5,6.3,1,9.3,1.5c-2.3,0.1-4.6,0.3-7.1,0.4c0.1,2.5,0.2,4.8,0.2,7.1C154.2,166.6,153.3,163.5,152.6,160.3z
				 M216.5,121.7c2.5,2.1,4.8,4.3,7,6.3c-2-1.1-4.1-2.3-6.2-3.5c-1.2,2.1-2.5,4.2-3.7,6.1C214.5,127.8,215.4,124.7,216.5,121.7z
				 M291.2,123.7c0.9,3.2,1.7,6.2,2.4,9.1c-1.1-2-2.2-4.1-3.3-6.3c-2.2,1.1-4.4,2.2-6.4,3.2C286.2,127.7,288.6,125.7,291.2,123.7z
				 M352.9,165.7c-0.9,3.1-1.9,6.1-2.8,9c0.2-2.3,0.4-4.6,0.6-7.1c-2.5-0.3-4.8-0.5-7.1-0.8C346.5,166.4,349.7,166.1,352.9,165.7z
				 M382.1,234.5c-2.5,2.1-4.9,4.1-7.2,6c1.4-1.8,2.8-3.7,4.4-5.6c-1.9-1.6-3.8-3.1-5.5-4.5C376.4,231.6,379.2,233,382.1,234.5z
				 M369.5,308.2c-3.3,0.4-6.4,0.8-9.3,1.1c2.1-0.8,4.4-1.6,6.7-2.4c-0.8-2.4-1.5-4.6-2.2-6.8C366.2,302.6,367.9,305.3,369.5,308.2z
				 M319.1,363.3c-3-1.4-5.8-2.8-8.5-4.1c2.2,0.5,4.5,1,7,1.6c0.6-2.4,1.2-4.7,1.8-6.9C319.3,356.9,319.2,360,319.1,363.3z
				 M246.8,382.4c-1.7-2.8-3.4-5.5-4.9-8c1.6,1.6,3.3,3.3,5,5.1c1.8-1.7,3.5-3.3,5.2-4.8C250.5,377.1,248.7,379.7,246.8,382.4z
				 M142.1,408.8c-6-0.1-13.4-9.8-8.6-15.3c6.4-7.4,14.8-2.1,15.3,5.3c7.1-2.2,15.1,3.7,10.6,12.4
				C156.1,417.6,144.4,414.3,142.1,408.8z M73.4,325c-5-3.3-6-15.4,1.1-17.5c9.4-2.7,13.6,6.3,10.1,12.8c7.1,2,10.7,11.2,2.2,16.1
				C80.3,340,72.3,330.9,73.4,325z M60.9,217.4c-2.4-5.5,3.3-16.2,10.4-14.1c9.4,2.8,8.1,12.6,1.6,16.2c5,5.5,2.9,15.2-6.9,14.7
				C58.6,233.7,56.7,221.8,60.9,217.4z M108.5,120c1-6,11.6-11.8,16.4-6.3c6.4,7.4,0,15-7.4,14.4c1.2,7.3-5.8,14.4-13.7,8.7
				C97.8,132.6,102.7,121.5,108.5,120z M201.2,63.9c4-4.5,16.1-3.7,17.1,3.6c1.4,9.7-8.1,12.6-14.1,8.1c-2.9,6.8-12.6,9-16.2-0.1
				C185.4,68.7,195.5,62,201.2,63.9z M309.6,66.9c5.8-1.6,15.6,5.6,12.5,12.3c-4.1,8.9-13.6,6.2-16.2-0.8
				c-6.1,4.1-15.5,0.7-13.6-8.9C293.7,62.3,305.8,62.1,309.6,66.9z M399.1,127.9c5.8,1.8,10.1,13.1,3.9,17.1
				c-8.2,5.3-14.8-2.2-13.2-9.4c-7.4,0.1-13.4-7.8-6.6-14.8C388.2,115.4,398.5,121.9,399.1,127.9z M441.4,227.6
				c3.9,4.6,1.4,16.5-6,16.5c-9.8,0-11.3-9.8-6.1-15.1c-6.3-3.9-7.1-13.8,2.5-16.1C439,211.3,444.2,222.2,441.4,227.6z M423.1,334.4
				c0.8,6-7.8,14.6-13.9,10.6c-8.2-5.3-4.2-14.4,3-16c-3.2-6.7,1.5-15.4,10.7-12.2C429.9,319.3,428.3,331.4,423.1,334.4z M350,414.4
				c-2.6,5.4-14.4,8.1-17.5,1.4c-4.1-8.9,4.3-14.4,11.2-11.8c0.9-7.3,9.6-12.2,15.6-4.5C363.9,405.4,356,414.6,350,414.4z
				 M245.2,442.1c-5.1,3.2-16.5-1-15.5-8.2c1.4-9.7,11.3-9.8,15.8-3.8c4.7-5.7,14.7-5.1,15.6,4.7C261.8,442,250.1,445.5,245.2,442.1
				z M150.6,382.3c-2.7,3.9-14.2,5.4-17.2,1.4c-4.2-5.5,2.4-14.7,8.5-14.7c2.5,0,5.4,1.7,7.3,4C151.5,375.6,152.6,379.3,150.6,382.3
				z M238,415.2c-0.1,4.7-9,12.2-13.7,10.5c-6.4-2.4-5.9-13.7-0.8-16.9c2.1-1.4,5.4-1.5,8.3-0.6C235.2,409.2,238.1,411.6,238,415.2z
				 M329.4,395.7c2.4,4-1,15.1-5.9,16.2c-6.7,1.5-12.4-8.3-9.9-13.8c1.1-2.3,3.7-4.2,6.7-5C323.8,392.1,327.5,392.6,329.4,395.7z
				 M395.7,329.8c4.3,2.1,7.4,13.3,3.8,16.8c-4.8,4.9-14.9-0.3-15.8-6.3c-0.3-2.5,0.9-5.6,2.9-7.8
				C389,329.8,392.5,328.3,395.7,329.8z M415.9,238.6c4.7-0.6,13.3,7.2,12.3,12.1c-1.5,6.7-12.7,7.8-16.7,3.2
				c-1.6-1.9-2.3-5.1-1.8-8.1C410.3,242.2,412.3,239,415.9,238.6z M383.5,150.9c3.6-3,15.1-1.2,16.9,3.5c2.4,6.4-6.5,13.4-12.3,11.7
				c-2.4-0.7-4.7-3.1-5.9-5.9C380.8,157,380.7,153.2,383.5,150.9z M308.9,94.6c1.4-4.5,12.1-9.2,16.1-6.2c5.5,4.1,1.8,14.8-4,16.5
				c-2.4,0.7-5.6-0.1-8.2-1.8C309.9,101.3,307.8,98.1,308.9,94.6z M215.7,87.7c-1.2-4.6,5.2-14.2,10.2-13.9c6.9,0.5,9.5,11.5,5.6,16
				c-1.7,1.9-4.8,3-7.8,2.9C220.1,92.7,216.6,91.1,215.7,87.7z M133.5,132.2c-3.5-3.2-3.3-14.8,1.1-17.2c6-3.3,14.2,4.5,13.3,10.5
				c-0.3,2.5-2.4,5.1-5,6.7C140,134,136.2,134.6,133.5,132.2z M88.5,214c-4.7-0.8-10.8-10.7-8.4-15.1c3.3-6,14.4-3.9,16.9,1.6
				c1,2.3,0.7,5.6-0.6,8.3C94.9,212.1,92,214.6,88.5,214z M94.8,307.3c-4.4,1.9-14.8-3.1-15.2-8.1c-0.5-6.9,10-11.1,15.1-7.8
				c2.1,1.4,3.6,4.3,4,7.3C99.2,302.2,98.1,305.9,94.8,307.3z M109.9,325c1.9,2.4,2.9,5.5,2.5,8c-1.1,5.9-11.5,10.5-16.1,5.4
				c-3.3-3.8,0.4-14.8,4.7-16.6C104.3,320.5,107.7,322.3,109.9,325z M172.9,389.1c2.8,1,5.4,3,6.4,5.4c2.2,5.6-3.9,15.1-10.6,13.3
				c-4.9-1.4-7.7-12.6-5-16.5C165.7,388.2,169.5,387.9,172.9,389.1z M260.5,408.9c2.9-0.7,6.2-0.4,8.2,1.1
				c4.9,3.5,4.8,14.8-1.7,16.9c-4.8,1.5-13.3-6.5-13.1-11.2C254,412.1,257,409.8,260.5,408.9z M344.9,378.2c2.1-2.2,5-3.7,7.5-3.6
				c6,0.3,12.1,9.9,7.7,15.1c-3.2,3.8-14.7,1.7-17.1-2.3C341.1,384.4,342.4,380.8,344.9,378.2z M399.3,306.8c0.6-3,2.2-5.8,4.4-7.1
				c5.2-3,15.5,1.8,14.6,8.6c-0.7,5-11.4,9.4-15.6,7.3C399.4,314,398.6,310.3,399.3,306.8z M406.4,217.3c-1.1-2.8-1.3-6.1-0.1-8.3
				c2.8-5.3,14-6.9,16.9-0.7c2.2,4.6-4.5,14.1-9.2,14.6C410.5,223.2,407.7,220.6,406.4,217.3z M364.1,138.1
				c-2.5-1.8-4.4-4.4-4.6-6.9c-0.6-6,8.1-13.4,13.9-9.7c4.3,2.7,3.8,14.3,0.2,17.3C370.7,140.9,367,140.2,364.1,138.1z M285.6,94.4
				c-3-0.1-6.1-1.4-7.6-3.4c-3.7-4.7-0.5-15.6,6.4-15.7c5-0.1,10.9,9.9,9.5,14.4C292.7,93.2,289.2,94.6,285.6,94.4z M196,100.1
				c-2.6,1.5-5.9,2.1-8.2,1.3c-5.7-2-8.8-12.9-3.1-16.7c4.2-2.8,14.6,2.5,15.8,7C201.3,95.2,199,98.3,196,100.1z M123.6,153.3
				c-1.4,2.7-3.8,5-6.2,5.5c-5.9,1.4-14.3-6-11.6-12.4c2-4.6,13.6-5.8,17-2.6C125.5,146.3,125.2,150.1,123.6,153.3z M91.5,237.2
				c0.3,3-0.5,6.2-2.3,8c-4.2,4.3-15.3,2.7-16.4-4.1c-0.8-5,8.3-12.2,12.9-11.4C89.4,230.3,91.2,233.6,91.5,237.2z M127.3,387.4
				c1,0.1,2.8,3.2,2.5,4c-3.2,6.9-6.1,14.2-14.4,16.8c-5.4,1.7-8-0.3-7.3-5.4C109,395.3,119.8,386.5,127.3,387.4z M221.2,432.2
				c0.9-0.5,4.1,1.1,4.2,2c1.1,7.5,2.6,15.3-3,21.9c-3.6,4.4-6.9,4.1-9-0.5C210.1,448.7,214.4,435.4,221.2,432.2z M324.4,419
				c0.6-0.9,4.1-1.3,4.7-0.6c5,5.7,10.4,11.5,9.3,20c-0.7,5.7-3.6,7.2-7.9,4.5C324,438.9,320.4,425.4,324.4,419z M404.1,352.2
				c0-1,2.7-3.3,3.6-3c7.3,2.1,15,4,18.7,11.8c2.5,5.1,0.9,8-4.3,8C414.6,369.1,404.2,359.7,404.1,352.2z M435,252.8
				c-0.6-0.9,0.5-4.2,1.4-4.5c7.3-2.2,14.8-4.7,22.1-0.2c4.9,3,5.1,6.2,0.8,9.1C453,261.4,439.2,259.1,435,252.8z M407.3,152.5
				c-0.9-0.4-1.8-3.8-1.2-4.5c5-5.8,9.9-11.9,18.5-12.1c5.7-0.1,7.6,2.5,5.5,7.2C427.1,150.1,414.2,155.6,407.3,152.5z M329.8,83.1
				c-1,0.2-3.6-2.2-3.5-3.2c1.1-7.5,1.9-15.4,9.1-20.2c4.7-3.2,7.8-2,8.6,3.1C345.1,70.4,337.2,82,329.8,83.1z M227.1,66.7
				c-0.8,0.7-4.3,0.1-4.6-0.8c-3.2-6.9-6.8-13.9-3.3-21.9c2.3-5.2,5.4-5.9,8.8-2C233.1,47.7,232.7,61.7,227.1,66.7z M131.8,108.4
				c-0.3,1-3.5,2.4-4.3,1.9c-6.4-4.1-13.2-8.1-14.6-16.6c-0.9-5.6,1.4-7.9,6.3-6.5C126.5,89.2,133.8,101.1,131.8,108.4z M74.1,195
				c0.3,1-1.7,3.9-2.6,3.9c-7.6,0-15.5,0.3-21.3-6.1c-3.8-4.2-3.1-7.4,1.8-8.9C59.3,181.7,71.9,187.8,74.1,195z M72.4,299
				c0.8,0.7,0.7,4.2-0.1,4.7c-6.4,4.1-12.8,8.7-21.2,6.4c-5.5-1.5-6.6-4.6-3.3-8.5C52.8,295.8,66.7,294.1,72.4,299z M72.5,359.6
				c-5.2-0.3-6.5-3.2-3.8-8.2c4.1-7.6,11.8-9.1,19.3-10.8c0.9-0.2,3.5,2.1,3.4,3.2C90.9,351.2,80.1,360.1,72.5,359.6z M160.1,438.4
				c-4.5,2.5-7.3,0.8-7.7-4.9c-0.6-8.6,5.1-14.1,10.4-19.5c0.7-0.7,4.1-0.1,4.6,0.8C171,421.4,166.7,434.7,160.1,438.4z
				 M276.3,457.3c-2.5,4.5-5.7,4.6-9.1,0.1c-5.2-6.9-3.3-14.6-1.8-22c0.2-0.9,3.4-2.3,4.3-1.8C276.4,437.1,279.9,450.6,276.3,457.3z
				 M384.4,410.3c0.4,5.1-2.3,6.9-7.6,5c-8.1-3-10.7-10.5-13.4-17.6c-0.3-0.9,1.6-3.8,2.7-3.9C373.5,393.3,383.8,402.8,384.4,410.3z
				 M449.9,312.5c3.1,4.1,1.8,7.1-3.7,8.3c-8.5,1.9-14.6-3-20.8-7.5c-0.8-0.6-0.7-4.1,0.1-4.7C431.5,304,445.3,306.4,449.9,312.5z
				 M452.1,194.7c4.9,1.7,5.4,4.9,1.4,9c-6.1,6.1-14,5.4-21.6,4.9c-0.9-0.1-2.8-3-2.4-4C432,197.5,444.9,192.1,452.1,194.7z
				 M390.2,94.4c5-1.1,7.2,1.3,6,6.8c-1.8,8.5-8.8,12.1-15.5,15.8c-0.8,0.5-4-1.1-4.2-2.1C374.9,107.6,382.8,96.1,390.2,94.4z
				 M284,43.5c3.6-3.7,6.7-2.8,8.7,2.5c3,8.1-0.9,14.9-4.5,21.7c-0.5,0.8-3.9,1.3-4.7,0.5C278.2,62.9,278.7,48.9,284,43.5z
				 M167.1,58.1c1.1-5.1,4.1-6,8.7-2.6c6.9,5.2,7.3,13,8,20.6c0.1,0.9-2.6,3.2-3.6,3C172.7,77.5,165.5,65.5,167.1,58.1z M76.7,133.6
				c-1.8-4.8,0.2-7.3,5.9-6.9c8.6,0.6,13.2,7,17.8,13.1c0.6,0.7-0.5,4.1-1.5,4.5C91.9,146.8,79.4,140.7,76.7,133.6z M41.4,246
				c-4.1-3-3.7-6.3,1.3-9c7.6-4.2,14.9-1.2,22.1,1.3c0.9,0.3,1.8,3.7,1.2,4.5C61.4,248.9,47.5,250.5,41.4,246z M112.1,373.7
				c-1.4-9.7,8.1-9.5,14-5.6c5,3.3,2.4,8.7-1.9,11.4C119.7,382.4,113.3,382.4,112.1,373.7z M201,428.8c-6.4-7.4,1.7-12.4,8.7-12.3
				c6,0.1,6.7,6,4.6,10.6C212.1,432.1,206.7,435.5,201,428.8z M305.6,427.1c-9.4-2.8-5.3-11.3,0.7-15.1c5.1-3.2,8.9,1.4,9.6,6.5
				C316.7,423.8,314,429.6,305.6,427.1z M392.7,369.2c-9.4,2.7-10.6-6.7-7.5-13c2.6-5.4,8.2-3.6,11.6,0.2
				C400.3,360.4,401.1,366.7,392.7,369.2z M434.6,273.3c-6.4,7.4-12.5,0.1-13.4-6.9c-0.7-5.9,5-7.5,9.9-6.1
				C436.2,261.8,440.4,266.7,434.6,273.3z M418,170c-1.4,9.7-10.5,6.9-15,1.5c-3.8-4.6,0.2-9,5-10.4
				C413.2,159.5,419.3,161.3,418,170z M348.3,92c4,8.9-5.1,11.4-11.8,9.3c-5.7-1.8-4.7-7.7-1.4-11.5C338.5,85.8,344.7,84.1,348.3,92
				z M247.4,64.2c8.2,5.3,1.9,12.4-4.9,14.2c-5.8,1.6-8.1-3.9-7.4-8.9C235.8,64.2,240.1,59.4,247.4,64.2z M147.5,95.3
				c9.8,0,8.3,9.4,3.6,14.6c-4,4.5-8.9,1.1-11.1-3.5C137.8,101.6,138.8,95.3,147.5,95.3z M80.3,175.4c8.2-5.2,12,3.4,10.9,10.4
				c-0.9,5.9-6.9,5.8-11.2,3C75.5,186,72.9,180.2,80.3,175.4z M67.1,279.2c4.1-8.9,12-3.6,14.8,2.8c2.4,5.5-2.7,8.6-7.8,8.6
				C68.7,290.7,63.4,287.2,67.1,279.2z M98.6,348.3c3.5-3.6,9.3-5.1,11.6,0.4c2.7,6.5,1,15.9-8.2,12.6
				C93.7,358.4,94.8,352.1,98.6,348.3z M175.9,414.7c1-5,5.1-9.3,10-5.9c5.8,4.1,9.4,12.8-0.1,15.1
				C177.2,425.9,174.8,420,175.9,414.7z M276.9,428.9c-1.8-4.7-0.8-10.6,5.2-10.4c7.1,0.3,14.9,5.7,8.1,12.7
				C284,437.6,278.8,433.9,276.9,428.9z M369.5,386.1c-4.1-3-6.4-8.5-1.3-11.5c6.1-3.6,15.6-3.3,13.7,6.4
				C380.2,389.6,373.8,389.3,369.5,386.1z M424.2,300.2c-5.1-0.3-10-3.7-7.3-9c3.2-6.3,11.3-11.1,14.9-2
				C435.1,297.2,429.6,300.5,424.2,300.2z M423.9,198.2c-4.4,2.5-10.4,2.3-11-3.6c-0.7-7,3.5-15.5,11.5-9.8
				C431.4,189.8,428.5,195.5,423.9,198.2z M368.4,112.6c-2.4,4.5-7.5,7.5-11.2,2.9c-4.4-5.5-5.4-14.9,4.3-14.4
				C370.3,101.5,370.9,107.9,368.4,112.6z M275.5,70.6c0.5,5-2.2,10.4-7.9,8.5c-6.7-2.3-12.6-9.6-4.1-14.5
				C271,60.3,275,65.3,275.5,70.6z M174.6,85.5c3.1,4,3.8,9.9-2,11.4c-6.9,1.7-15.8-1.3-11.3-10C165.3,79.2,171.3,81.3,174.6,85.5z
				 M97.8,152.6c4.7,1.7,8.5,6.3,4.4,10.7c-4.8,5.2-14,7.5-14.9-2.3C86.5,152.3,92.8,150.8,97.8,152.6z M69.5,250.5
				c4.9-1.1,10.6,0.7,9.5,6.6c-1.3,7-7.7,13.9-13.8,6.2C59.8,256.4,64.2,251.8,69.5,250.5z M136.7,348c4.6-5.4,12-2.3,12.7,3.8
				c0.8,6.7-3.7,12.6-10.6,13C129.9,365.3,132.4,353,136.7,348z M207.8,393.9c1-7,8.8-8.4,12.7-3.7c4.3,5.2,3.7,12.6-1.9,16.7
				C211.5,412.1,206.9,400.4,207.8,393.9z M292.4,394.1c-2.9-6.4,2.9-11.8,8.8-10c6.4,2,9.9,8.6,7.4,15
				C305.4,407.4,295.2,400.1,292.4,394.1z M363.7,348.5c-6-3.8-4-11.5,1.9-13.1c6.5-1.7,13,1.8,14.4,8.6
				C381.9,352.7,369.3,352,363.7,348.5z M399.1,271.5c-7.1,0-9.6-7.5-5.4-12.1c4.5-5,11.9-5.5,16.8-0.5
				C416.6,265.3,405.7,271.5,399.1,271.5z M387.2,187.7c-6,3.9-12.1-1.2-11.1-7.2c1.1-6.6,7.1-11.1,13.9-9.5
				C398.5,173,392.7,184.1,387.2,187.7z M331.9,123.6c-2.9,6.5-10.8,5.6-13.3-0.1c-2.6-6.2,0-13.1,6.5-15.5
				C333.5,105.1,334.6,117.6,331.9,123.6z M250.7,99.6c1,7-6.1,10.5-11.2,7.1c-5.6-3.8-7.1-11-2.9-16.5
				C242,83.2,249.8,93.1,250.7,99.6z M169.5,123.3c4.7,5.3,0.6,12.2-5.6,12c-6.7-0.2-12-5.4-11.4-12.4
				C153.2,114.2,165.1,118.3,169.5,123.3z M113.9,187.1c6.8,2,7.1,9.9,1.8,13.1c-5.7,3.5-13,1.9-16.2-4.2
				C95.3,188.2,107.5,185.3,113.9,187.1z M101.7,270.9c6.8-2,11.3,4.6,8.6,10.1c-2.9,6-9.9,8.6-15.9,5.2
				C86.6,281.9,95.3,272.8,101.7,270.9z M115.9,336.9c1.7-6.7,8.4-9.9,14.8-7.8c5.8,1.9,7.4,9.7,1.2,13.2
				C126.2,345.4,113.6,345.4,115.9,336.9z M184.2,395.8c-2.1-6.6,1.7-12.9,8.2-14.6c5.9-1.6,11.5,4.2,8.2,10.4
				C197.6,397.4,187,404.2,184.2,395.8z M273.7,408.4c-5.4-4.4-5.5-11.8-1-16.8c4.2-4.5,11.9-2.7,12.5,4.3
				C285.8,402.6,280.5,414,273.7,408.4z M355.7,370.7c-6.9-0.8-11.1-6.9-9.9-13.6c1.1-6.1,8.6-8.7,12.9-3.1
				C362.7,359.2,364.5,371.6,355.7,370.7z M404.3,294.6c-6.2,3.1-13,0.1-15.6-6.1c-2.4-5.7,2.5-12,9.1-9.6
				C404,281.1,412.2,290.6,404.3,294.6z M404,204.3c-3.6,6-10.9,7.2-16.4,3.4c-5.1-3.5-4.4-11.4,2.5-13
				C396.5,193.1,408.6,196.7,404,204.3z M355,128.4c0.2,7-5.3,11.9-12,11.7c-6.1-0.2-9.9-7.2-4.9-12.3
				C342.7,123.1,354.7,119.6,355,128.4z M272.8,91.2c3.9,5.7,2,12.9-3.8,16.4c-5.3,3.2-12.2-0.7-10.8-7.7
				C259.5,93.4,267.8,83.9,272.8,91.2z M183.4,104.3c6.4,2.7,8.6,9.8,5.7,15.8c-2.7,5.5-10.7,6-13.2-0.6
				C173.5,113.3,175.3,100.8,183.4,104.3z M115.3,163.6c6.9-1.2,12.6,3.6,13.3,10.2c0.7,6.1-5.8,10.8-11.5,6.6
				C111.8,176.6,106.6,165.1,115.3,163.6z M90.2,250.3c5.1-4.7,12.5-3.8,16.7,1.4c3.9,4.8,1,12.2-6.1,11.8
				C94.2,263.1,83.6,256.3,90.2,250.3z M217.9,297.5c-1.7-1.4-1.9-4.8-1.2-11.6c0.3-3.1,0.7-6.2,1.1-9.3c-3.1-0.2-6.2-0.5-9.4-0.8
				c-6.8-0.6-10.2-1.5-11.2-3.4c-0.7-2.1,1-5.1,5.3-10.4c2-2.4,4-4.9,6-7.3c-2.5-1.9-5-3.8-7.4-5.7c-5.4-4.2-7.7-6.7-7.5-8.9
				c0.5-2.1,3.6-3.7,10-5.9c3-1,6-2,8.9-2.9c-1.1-2.9-2.1-5.9-3.2-8.8c-2.2-6.4-2.9-9.8-1.5-11.6c1.6-1.5,5-1.2,11.6,0.5
				c3,0.8,6.1,1.6,9.1,2.4c0.7-3.1,1.4-6.1,2.1-9.2c1.6-6.6,2.9-9.8,5-10.5c2.1-0.4,4.9,1.7,9.5,6.7c2.1,2.3,4.3,4.6,6.3,6.9
				c2.3-2.2,4.5-4.4,6.7-6.6c5-4.7,7.8-6.7,9.9-6.2c2,0.8,3.2,4.1,4.4,10.8c0.6,3.1,1.1,6.1,1.6,9.3c3.1-0.7,6.1-1.3,9.2-1.9
				c6.7-1.3,10.1-1.4,11.7,0.2c1.2,1.8,0.5,5.1-2.1,11.5c-1.2,2.9-2.4,5.8-3.6,8.6c2.9,1.1,5.9,2.2,8.8,3.4c6.3,2.5,9.3,4.3,9.7,6.4
				c0.1,2.2-2.4,4.6-8,8.5c-2.6,1.8-5.2,3.6-7.8,5.3c1.9,2.5,3.7,5,5.5,7.6c4,5.6,5.5,8.6,4.7,10.7c-1.1,1.9-4.5,2.5-11.3,2.8
				c-3.1,0.1-6.2,0.2-9.4,0.3c0.2,3.1,0.4,6.3,0.6,9.4c0.3,6.8,0,10.2-1.8,11.5c-2,1-5.2-0.3-11.1-3.7c-2.7-1.6-5.4-3.2-8-4.8
				c-1.5,2.7-3,5.5-4.6,8.2c-3.4,5.9-5.5,8.6-7.7,8.7c-2.2-0.2-4.2-3-7.3-9.1c-1.4-2.8-2.8-5.6-4.2-8.4c-2.7,1.5-5.5,3-8.3,4.4
				C223.1,297.5,219.8,298.6,217.9,297.5z M230.6,266.1l-2,15.8l14-7.7l6.8,14.4l7.6-14l13.5,8.4l-1.2-15.9l15.9-0.2l-9.6-12.7
				l13.3-8.8l-15-5.5l6.4-14.6l-15.6,3.4l-2.5-15.7l-11.2,11.3l-10.6-11.9l-3.4,15.6l-15.3-4.2l5.6,14.9l-15.2,4.7l12.8,9.5
				L214.7,265L230.6,266.1z M131,425c-1.8-1.3-3.5-2.8-5-4.1c-1.8-1.5-2-4.9-2.9-7.4c-1.5,2.3-2.6,5.3-4.6,6.9
				c-5.4,4.1-10.8,8.8-16.9,11.2c-7.8,2.9-15.8-6.3-14.3-17.5c0.9-6.7,2.5-13.3,6.9-18.5c1.7-2,10.9-11,14.1-8.6
				c-3.8-3-9.4-5.9-12.8-10.1c-3.4-4.1-5.2-10.2-7.4-14.5c1.8,3.6-8.8,10.9-11.1,12.2c-6,3.3-12.9,3.6-19.6,3.2
				c-11.3-0.7-18.8-10.4-14.4-17.4c3.5-5.6,9.1-10,14.3-14.4c2-1.7,5.1-2.1,7.6-3.2c-2.3-1.4-5.6-2.3-6.7-4.3
				c-0.9-1.8-2.1-3.7-3-5.7c-0.8-2.1-1.4-4.2-2-6.1c-0.7-2.2,0.9-5.2,1.5-7.8c-2.5,1.1-5,3-7.6,3.3c-6.8,0.6-13.8,1.6-20.3,0.2
				c-8.1-1.7-9.9-13.8-2.5-22.5c4.3-5.1,9.4-9.8,15.9-11.8c2.5-0.8,15.2-3.4,16.5,0.4c-1.6-4.6-4.7-10.1-5.3-15.4
				c-0.7-5.3,1.1-11.4,1.6-16.2c-0.4,4-13.3,4.4-15.9,4.2c-6.8-0.5-12.8-3.9-18.2-7.9c-9.1-6.7-10.2-18.9-2.7-22.4
				c6-2.8,13.1-3.4,19.8-4.4c2.6-0.4,5.4,0.9,8.1,1.5c-1.2-2.4-3.5-5-3.3-7.3c0.2-2,0.3-4.3,0.6-6.4c0.5-2.1,1.1-4.3,1.6-6.3
				c0.6-2.2,3.6-3.9,5.5-5.8c-2.7-0.4-5.8-0.1-8.1-1.4c-6-3.2-12.5-6.1-17.2-10.8c-5.9-5.8-0.8-16.9,10-20.3
				c6.4-2,13.2-3.2,19.8-1.4c2.6,0.7,14.6,5.4,13.6,9.3c1.1-4.7,1.5-11,3.9-15.8c2.3-4.8,7.1-9,10.1-12.7
				c-2.5,3.1-13.5-3.5-15.7-5.1c-5.5-4.1-8.7-10.2-11.1-16.5c-4-10.6,1.6-21.4,9.9-20.3c6.6,0.9,12.9,4.2,19.1,7
				c2.4,1.1,4.1,3.7,6.1,5.6c0.3-2.7-0.2-6,1.2-7.9c1.2-1.6,2.6-3.4,4-5.1c1.6-1.5,3.3-3,4.7-4.4c1.7-1.6,5.1-1.3,7.8-1.9
				c-2.1-1.8-4.9-3.3-6.1-5.5C97,89,93.2,83,91.7,76.6c-1.8-8.1,8.5-14.7,19.4-11.6c6.5,1.8,12.8,4.4,17.4,9.5
				c1.8,2,9.4,12.4,6.4,15.2c3.5-3.3,7.2-8.5,11.8-11.2c4.5-2.8,10.8-3.7,15.4-5.2c-3.8,1.3-9.5-10.3-10.4-12.8
				c-2.4-6.4-1.8-13.2-0.4-19.8c2.4-11.1,13-17.1,19.3-11.8c5.1,4.3,8.6,10.5,12.3,16.2c1.4,2.2,1.4,5.3,2.1,8c1.7-2.1,3-5.2,5.2-6
				c1.9-0.7,4-1.5,6.1-2.2c2.1-0.5,4.4-0.8,6.4-1.1c2.3-0.4,5,1.7,7.5,2.6c-0.8-2.7-2.3-5.4-2.2-8c0.4-6.8,0.4-13.9,2.7-20.1
				c2.8-7.8,15.1-7.8,22.6,0.7c4.5,5,8.4,10.6,9.5,17.4c0.4,2.6,1.2,15.5-2.8,16.2c4.7-0.9,10.6-3.2,16-3c5.3,0.1,11.1,2.7,15.8,3.9
				c-3.9-1-2.5-13.8-1.9-16.4c1.4-6.7,5.6-12.1,10.4-16.9c8-8.1,20.2-7.4,22.6,0.5c1.9,6.3,1.6,13.5,1.6,20.2c0,2.6-1.7,5.2-2.6,7.8
				c2.6-0.8,5.4-2.7,7.7-2.2c1.9,0.4,4.2,0.9,6.3,1.5c2.1,0.8,4.1,1.7,6,2.5c2.1,0.9,3.3,4.1,4.9,6.3c0.8-2.7,0.9-5.8,2.5-7.9
				c4-5.5,7.9-11.5,13.1-15.5c6.6-5,16.9,1.6,18.6,12.8c1,6.6,1.3,13.5-1.5,19.8c-1.1,2.4-7.4,13.7-11.1,12.2
				c4.5,1.8,10.7,3,15.1,6.1c4.4,2.9,7.9,8.3,11.2,11.8c-2.7-2.9,5.4-12.9,7.3-14.8c4.8-4.8,11.3-7.1,17.8-8.6
				c11.1-2.5,21,4.7,18.7,12.7c-1.8,6.4-6,12.2-9.7,17.9c-1.4,2.2-4.2,3.5-6.4,5.2c2.6,0.7,6,0.6,7.6,2.3c1.4,1.4,3,3,4.5,4.6
				c1.3,1.8,2.5,3.7,3.6,5.3c1.3,1.9,0.6,5.2,0.8,7.9c2.1-1.8,3.9-4.3,6.3-5.3c6.3-2.5,12.8-5.4,19.4-6c8.3-0.6,13.3,10.5,8.7,20.8
				c-2.7,6.1-6.2,12-11.9,15.8c-2.2,1.5-13.6,7.5-15.9,4.2c2.8,3.9,7.4,8.3,9.4,13.3c2.1,4.9,2.1,11.2,3,16c-0.7-4,11.5-8,14.1-8.5
				c6.7-1.5,13.4,0.1,19.7,2.4c10.6,3.9,15.1,15.3,8.9,20.8c-5,4.4-11.6,7-17.8,9.8c-2.4,1.1-5.4,0.6-8.2,0.9c1.8,2,4.7,3.8,5.2,6
				c0.4,2,0.9,4.2,1.3,6.3c0.1,2.2,0.1,4.5,0.2,6.5c0.1,2.3-2.4,4.7-3.6,7.1c2.7-0.4,5.6-1.5,8.2-1c6.7,1.4,13.7,2.4,19.5,5.5
				c7.3,3.9,5.6,16-3.9,22.3c-5.6,3.7-11.7,6.8-18.6,6.9c-2.7,0-15.5-1-15.7-5.1c0.2,4.8,1.7,11,0.8,16.2
				c-0.9,5.3-4.3,10.6-6.1,15.1c1.5-3.7,14-0.5,16.5,0.5c6.4,2.4,11.2,7.3,15.2,12.7c6.9,9,4.5,21-3.7,22.3
				c-6.5,1-13.5-0.4-20.3-1.3c-2.6-0.4-5-2.4-7.4-3.7c0.5,2.7,1.9,5.7,1.1,7.9c-0.7,1.9-1.5,4-2.4,6c-1,1.9-2.3,3.8-3.3,5.5
				c-1.2,2-4.5,2.7-6.9,4c2.5,1.2,5.6,1.8,7.4,3.6c4.9,4.7,10.3,9.4,13.5,15.2c4,7.3-4,16.5-15.3,16.6c-6.7,0.1-13.5-0.6-19.4-4.2
				c-2.3-1.4-12.5-9.3-10.5-12.7c-2.4,4.2-4.5,10.2-8.1,14c-3.6,4-9.4,6.6-13.3,9.4c3.3-2.3,12,7.2,13.6,9.3
				c4.1,5.5,5.4,12.2,6,18.9c0.9,11.3-7.6,20.1-15.2,16.7c-6-2.7-11.2-7.7-16.3-12.1c-2-1.7-2.8-4.7-4.2-7.1
				c-1.1,2.5-1.5,5.9-3.4,7.2c-1.6,1.2-3.4,2.6-5.2,3.8c-1.9,1-4,2-5.8,2.9c-2.1,1-5.3-0.2-7.9-0.4c1.5,2.3,3.7,4.5,4.3,7
				c1.6,6.6,3.6,13.5,3.2,20.1c-0.6,8.3-12.3,11.7-21.9,5.7c-5.7-3.6-11.1-7.9-14-14c-1.1-2.4-5.5-14.5-1.9-16.4
				c-4.3,2.2-9.3,6.1-14.5,7.4c-5.1,1.4-11.4,0.5-16.2,0.7c4-0.2,6.2,12.5,6.4,15.2c0.5,6.8-2,13.2-5.2,19.1
				c-5.4,10-17.3,12.8-21.8,5.9c-3.6-5.5-5.3-12.5-7.2-19c-0.8-2.5,0.1-5.5,0.3-8.3c-2.3,1.5-4.4,4.1-6.7,4.3
				c-2,0.1-4.3,0.3-6.5,0.4c-2.2-0.2-4.4-0.5-6.4-0.7c-2.3-0.3-4.3-3-6.5-4.6c0,2.8,0.7,5.8-0.2,8.2c-2.3,6.4-4.3,13.3-8.2,18.6
				c-5,6.7-16.7,3.2-21.5-7c-2.9-6.1-5-12.6-4.2-19.3c0.3-2.7,3.2-15.2,7.2-14.8c-4.8-0.5-11.1,0.1-16.1-1.6
				c-5.1-1.6-9.9-5.7-14.1-8.2c3.5,2-1.5,13.9-2.8,16.2c-3.3,6-8.9,10-14.7,13.3c-9.9,5.5-21.4,1.4-21.5-6.9
				c-0.1-6.6,2.3-13.3,4.2-19.9c0.7-2.5,3.1-4.5,4.7-6.8c-2.7,0-5.9,1.1-8-0.1C134.9,427.2,132.9,426.2,131,425z M117.6,358.8
				c0.3,0.6,0.7,1.2,1.2,2c0.2-1.2,0.5-2.5,0.8-3.7c-1.2,0-2.5,0-3.7,0.1C116.5,357.9,117,358.4,117.6,358.8z M197.6,413.4
				c0.6,0.3,1.3,0.6,2.1,1c-0.5-1.2-0.9-2.3-1.3-3.5c-1,0.7-2.1,1.4-3.1,2.1C196.1,413.1,196.9,413.3,197.6,413.4z M294.4,416
				c0.7-0.1,1.5-0.2,2.4-0.3c-1-0.7-2-1.5-3-2.2c-0.5,1.1-1,2.3-1.5,3.4C293,416.5,293.7,416.3,294.4,416z M377.2,365.9
				c0.5-0.4,1.1-0.9,1.8-1.5c-1.2-0.1-2.5-0.2-3.7-0.3c0.2,1.2,0.4,2.5,0.6,3.7C376.4,367,376.8,366.4,377.2,365.9z M419.8,278.9
				c0.2-0.6,0.5-1.4,0.7-2.2c-1.1,0.6-2.2,1.2-3.3,1.8c0.8,0.9,1.6,1.9,2.5,2.8C419.8,280.3,419.8,279.6,419.8,278.9z M408.6,182.7
				c-0.2-0.7-0.4-1.4-0.6-2.3c-0.6,1.1-1.2,2.2-1.8,3.3c1.2,0.3,2.4,0.7,3.6,1C409.3,183.9,409,183.3,408.6,182.7z M347.2,107.8
				c-0.5-0.5-1.1-1-1.7-1.6c0.1,1.2,0.2,2.5,0.3,3.7c1.2-0.4,2.4-0.7,3.6-1.1C348.5,108.5,347.8,108.1,347.2,107.8z M255.1,78.1
				c-0.7-0.1-1.5-0.2-2.3-0.4c0.7,1,1.5,2,2.3,3c0.8-0.9,1.6-1.9,2.4-2.8C256.5,77.9,255.7,78,255.1,78.1z M161.5,102.8
				c-0.6,0.3-1.3,0.6-2.2,0.9c1.2,0.4,2.4,0.8,3.5,1.3c0.2-1.2,0.3-2.5,0.5-3.7C162.6,101.9,162,102.4,161.5,102.8z M96.1,174.3
				c-0.4,0.6-0.8,1.2-1.4,2c1.2-0.3,2.5-0.6,3.7-0.8c-0.6-1.1-1.1-2.3-1.6-3.4C96.5,172.9,96.3,173.6,96.1,174.3z M79.7,269.7
				c0,0.7,0,1.4-0.1,2.4c0.9-0.9,1.8-1.8,2.6-2.7c-1-0.7-2.1-1.3-3.2-2C79.3,268.3,79.5,269,79.7,269.7z M154.1,328.8
				c-0.9,2.8-0.9,19.4-1.5,20.2c-0.5-6.9-7.9-8.7-14.1-7.4c2.5-5.9,2.1-13.5-4.5-15.3C134.9,325.9,151.3,329.1,154.1,328.8z
				 M212.1,368.3c0.8,2.8,9.7,16.8,9.7,17.8c-4.1-5.5-11.4-3-15.9,1.4c-1.1-6.3-5.5-12.5-12.1-10.5
				C194.4,376.3,209.9,370.2,212.1,368.3z M282.3,370.2c2.1,2,17.3,8.9,17.8,9.8c-6.5-2.4-11.2,3.6-12.6,9.8
				c-4.3-4.7-11.4-7.6-15.8-2.3C271.6,386.5,281.4,373,282.3,370.2z M342.3,333.9c2.9,0.5,19.4-1.9,20.2-1.4
				c-6.7,1.5-7.5,9.1-5.3,15.1c-6.1-1.6-13.6-0.2-14.6,6.6C342.1,353.3,343,336.7,342.3,333.9z M373.1,270.9
				c2.7-1.1,15.3-12,16.2-12.1c-4.8,4.9-1.4,11.7,3.7,15.5c-6,2-11.6,7.2-8.7,13.4C383.5,287.3,375.3,272.9,373.1,270.9z M365,201.2
				c1.6-2.4,6.3-18.4,7.1-19c-1.5,6.8,5.2,10.6,11.5,11.1c-4.1,4.9-5.9,12.3,0,16C382.7,209.4,367.9,201.7,365,201.2z M320.5,147
				c0.1-2.9-4.6-18.9-4.3-19.8c2.4,6.5,10,6.1,15.7,3.1c-0.7,6.3,1.7,13.6,8.6,13.4C339.8,144.3,323.2,145.8,320.5,147z
				 M253.8,125.4c-1.5-2.5-14.1-13.4-14.3-14.4c5.5,4.1,11.7-0.3,14.9-5.9c2.8,5.7,8.8,10.5,14.5,6.7
				C268.6,112.7,255.4,123,253.8,125.4z M185.9,143.3c-2.6-1.3-19.1-3.7-19.8-4.3c6.9,0.5,9.7-6.6,9.4-13c5.4,3.3,13.1,4.1,15.8-2.3
				C191.6,124.7,186.1,140.4,185.9,143.3z M138.6,195.1c-2.9,0.3-18.1,7.2-19,7.1c6.1-3.3,4.6-10.8,0.9-16
				c6.3-0.2,13.2-3.6,12.1-10.4C133.3,176.4,137.1,192.6,138.6,195.1z M126.7,264.2c-2.3,1.9-11.3,15.8-12.2,16.2
				c3.3-6.1-2-11.6-7.9-13.9c5.2-3.6,9.1-10.2,4.5-15.3C112.1,251.4,124.1,262.9,126.7,264.2z M128.4,349.9c-1.5,4-1.3,9.1,1.4,13.8
				c-4.6,0.2-9.5-3-14-3.4c0.5-4.5-1.7-10-0.6-14.4C119.3,349.4,124.1,350.6,128.4,349.9z M201.9,400c0.9,4.2,3.8,8.3,8.6,10.8
				c-3.7,2.6-9.6,2.7-13.7,4.7c-2.1-4-6.8-7.5-8.3-11.8C193.9,404.5,198.7,402.9,201.9,400z M290.8,402.4c3,3,7.7,4.9,13.1,4.4
				c-1.8,4.2-6.7,7.4-8.9,11.3c-3.9-2.3-9.8-2.6-13.4-5.4C286.5,410.5,289.6,406.6,290.8,402.4z M366.8,356.4
				c4.2,0.9,9.1,0,13.4-3.4c0.8,4.5-1.6,9.9-1.4,14.4c-4.5,0.2-9.6,3.1-14.2,2.7C367.6,365.5,368.1,360.5,366.8,356.4z M405.9,276.5
				c4-1.5,7.7-5,9.5-10.1c3.2,3.4,4,9.2,6.6,12.9c-3.7,2.6-6.4,7.8-10.5,9.9C411.5,283.8,409.2,279.3,405.9,276.5z M395.7,188.2
				c2.6-3.4,3.7-8.3,2.5-13.6c4.4,1.1,8.3,5.5,12.5,7.2c-1.7,4.2-1.2,10-3.5,14C404.3,191.3,400,188.7,395.7,188.2z M339.3,119.4
				c0.3-4.3-1.3-9-5.3-12.8c4.4-1.4,10,0.2,14.4-0.6c0.8,4.4,4.4,9.1,4.6,13.6C348.2,117.4,343.2,117.6,339.3,119.4z M254.7,92.1
				c-2.1-3.8-6-6.9-11.3-7.9c2.8-3.6,8.5-5.3,11.7-8.3c3.1,3.2,8.7,5.2,11.3,9C261.1,85.5,256.9,88.4,254.7,92.1z M168.7,114.8
				c-3.8-2.1-8.8-2.5-13.9-0.6c0.5-4.6,4.3-9,5.4-13.4c4.4,1.1,10.1-0.3,14.4,1.4C170.5,105.9,168.6,110.5,168.7,114.8z
				 M108.7,180.4c-4.3,0.3-8.8,2.6-11.9,7c-2.1-4.1-1.3-9.9-2.7-14.2c4.2-1.5,8.3-5.7,12.9-6.5C105.4,171.9,106.3,176.9,108.7,180.4
				z M93.7,268.1c-3.4,2.6-6,6.9-6.2,12.4c-3.9-2.3-6.4-7.7-9.9-10.5c2.8-3.5,4-9.3,7.3-12.5C86.3,262.7,89.7,266.4,93.7,268.1z
				 M106.1,368.2c-2.6,7.3,0,12.9,7.8,18.3c-3,4.4-6.7,8.6-8.8,13.4c-1.2,2.9-1.1,7.6,0.5,10c1.3,2,6.2,3.4,8.8,2.6
				c5-1.6,9.5-4.9,14.6-7.8c1.4,5,5.6,8.1,10.3,8.2c1.8,4.3,6.2,7.1,11.4,6.6c-0.8,5.8-2.3,11.1-1.9,16.4c0.2,2.7,3.3,6.7,5.6,7.2
				c2.9,0.6,7.3-1,9.6-3.2c3.7-3.7,6.2-8.7,9.3-13.1c8,5.3,14.1,5.7,19.9,0.6c1.7,7.6,6.9,10.9,16.5,11.2c-0.1,5.4-1,10.8-0.2,16
				c0.5,3.1,3.2,6.9,5.9,8.1c2.2,1,7.1-0.5,8.8-2.5c3.4-4,5.3-9.2,8-14.4c3.8,3.4,9,3.8,13.1,1.3c3.8,2.7,9.1,2.6,13.1-0.6
				c2.5,5.3,4.1,10.6,7.2,14.8c1.6,2.1,6.4,3.9,8.6,3c2.8-1,5.6-4.8,6.3-7.8c1.1-5.1,0.6-10.7,0.7-16c9.6,0.2,14.9-2.8,17-10.3
				c5.6,5.5,11.7,5.4,20,0.5c2.8,4.6,5,9.7,8.5,13.6c2.1,2.3,6.4,4.1,9.4,3.7c2.4-0.4,5.7-4.3,6-6.9c0.6-5.2-0.6-10.6-1-16.4
				c5.1,0.8,9.6-1.7,11.7-5.9c4.7,0.1,9-2.7,10.7-7.6c4.9,3.1,9.2,6.7,14.1,8.5c2.5,1,7.4-0.2,8.9-2.1c1.8-2.4,2.1-7.1,1.1-10
				c-1.8-4.9-5.3-9.3-8.1-13.9c8.1-5,11.1-10.4,8.8-17.9c7.7,1.6,12.8-1.8,17-10.3c4.8,2.4,9.5,5.4,14.6,6.8c3,0.8,7.6,0,9.8-2
				c1.8-1.6,2.5-6.7,1.3-9.1c-2.3-4.7-6.2-8.6-9.7-13.3c4.7-2.1,7.2-6.7,6.6-11.3c4-2.4,6.1-7.2,4.9-12.2c5.8-0.1,11.3,0.6,16.5-0.4
				c2.6-0.6,6.2-4.2,6.4-6.6c0.2-2.9-2-7.1-4.5-9c-4.2-3.2-9.5-4.9-14.3-7.3c4.2-8.6,3.7-14.7-2.3-19.8c7.3-2.8,9.8-8.4,8.8-17.9
				c5.3-0.6,10.9-0.6,15.9-2.1c3-0.9,6.4-4.1,7.2-7c0.7-2.3-1.5-7-3.8-8.3c-4.5-2.7-9.9-3.9-15.4-5.9c2.8-4.3,2.4-9.5-0.6-13.1
				c2.1-4.2,1.2-9.4-2.5-12.9c4.9-3.2,9.9-5.6,13.6-9.3c1.9-1.9,2.9-6.9,1.8-9c-1.4-2.6-5.5-4.9-8.6-5.1c-5.3-0.4-10.6,1-16,1.6
				c-1.2-9.5-4.9-14.4-12.6-15.4c4.6-6.3,3.7-12.3-2.3-19.8c4.1-3.4,8.8-6.3,12.2-10.4c2-2.4,3.2-6.9,2.3-9.8c-0.7-2.3-5-5-7.7-5
				c-5.2,0.1-10.4,2.1-16.1,3.4c0.1-5.1-3.1-9.3-7.6-10.7c-0.5-4.7-4-8.5-9-9.5c2.4-5.3,5.3-10,6.4-15.2c0.6-2.6-1.2-7.4-3.4-8.5
				c-2.6-1.4-7.3-1.1-10,0.4c-4.6,2.5-8.4,6.6-12.6,10c-6.1-7.3-11.9-9.4-19-6.1c0.5-7.8-3.6-12.4-12.7-15.4
				c1.7-5.1,4-10.1,4.7-15.3c0.4-3.1-1.1-7.6-3.3-9.5c-1.9-1.6-7-1.5-9.2,0c-4.3,2.9-7.7,7.4-11.7,11.5c-2.7-4.4-7.6-6.2-12.1-5
				c-3-3.6-8-5-12.8-3.1c-0.9-5.8-1-11.3-2.8-16.2c-0.9-2.5-5-5.5-7.4-5.3c-3,0.2-6.8,3-8.3,5.7c-2.5,4.6-3.5,10.1-5.2,15.2
				c-9.1-2.9-15.1-1.5-19.3,5.1c-3.8-6.8-9.7-8.5-19-6.1c-1.4-5.2-2.1-10.7-4.3-15.4c-1.4-2.8-5-5.8-7.9-6.2
				c-2.4-0.3-6.7,2.5-7.7,4.9c-2.1,4.8-2.5,10.4-3.7,16.1c-4.6-2.2-9.7-1.1-12.9,2.4c-4.4-1.5-9.4,0.1-12.4,4.3
				c-3.8-4.4-6.9-9-11.1-12.2c-2.1-1.6-7.2-1.9-9.1-0.5c-2.4,1.8-4.1,6.2-3.8,9.3c0.3,5.3,2.5,10.4,3.8,15.6
				c-9.2,2.5-13.5,6.9-13.4,14.7c-6.9-3.7-12.8-1.9-19.3,5.1c-4-3.6-7.5-7.9-12-10.6c-2.7-1.6-7.3-2.2-10-0.9
				c-2.2,1-4.3,5.7-3.8,8.3c0.9,5.2,3.5,10,5.6,15.5c-5.1,0.7-8.8,4.4-9.5,9c-4.5,1.2-7.9,5.2-8.1,10.3c-5.6-1.6-10.7-3.8-15.9-4.2
				c-2.7-0.2-7.1,2.3-7.9,4.6c-1,2.8-0.1,7.4,1.8,9.9c3.2,4.2,7.7,7.4,11.6,11c-6.4,7.1-7.7,13.1-3.4,19.6
				c-7.8,0.6-11.7,5.3-13.4,14.7c-5.3-0.9-10.6-2.5-15.8-2.4c-3.1,0.1-7.3,2.1-8.9,4.6c-1.3,2.1-0.5,7.1,1.3,9.1
				c3.5,3.9,8.4,6.5,13.1,10c-4,3.3-5,8.4-3.2,12.7c-3.2,3.4-3.8,8.6-1.2,13.1c-5.6,1.7-11.1,2.6-15.7,5.1c-2.4,1.3-4.8,5.8-4.2,8.1
				c0.6,2.9,3.9,6.3,6.8,7.3c5,1.8,10.5,2.1,15.8,3c-1.5,9.4,0.7,15.2,7.8,18.4c-6.2,4.7-7,10.8-3.3,19.6c-5,2.1-10.3,3.6-14.7,6.5
				c-2.6,1.7-5,5.8-5,8.7c0,2.4,3.4,6.3,6,6.9c5.1,1.3,10.6,1,16.4,1.3c-1.5,4.9,0.3,9.8,4.2,12.4c-0.8,4.6,1.4,9.3,6,11.7
				c-3.8,4.4-7.9,8.1-10.5,12.7c-1.3,2.3-0.9,7.4,0.8,9.1c2.1,2.1,6.7,3.1,9.7,2.5c5.2-1.1,9.9-3.9,14.9-6
				C93.5,365.8,98.4,369.4,106.1,368.2z M153.1,392.7c-0.1-0.2-0.1-0.3-0.2-0.5c0.1,0.1,0.2,0.1,0.4,0.2c0.1,0.1,0.2,0.2,0.3,0.3
				C153.4,392.7,153.2,392.7,153.1,392.7z M245.7,422.7c-0.1-0.1-0.3-0.2-0.4-0.3c0.1,0,0.3,0,0.4,0c0.1,0,0.3,0,0.4,0.1
				C246,422.5,245.9,422.6,245.7,422.7z M339.9,397.8c-0.2,0-0.3,0-0.5,0c0.1-0.1,0.2-0.2,0.3-0.3c0.1-0.1,0.3-0.1,0.4-0.2
				C340.1,397.5,340,397.6,339.9,397.8z M405.7,325.9c-0.1,0.1-0.3,0.2-0.4,0.3c0-0.1,0.1-0.3,0.1-0.4c0.1-0.1,0.1-0.2,0.2-0.3
				C405.6,325.6,405.7,325.7,405.7,325.9z M422.1,229.9c-0.1,0.1-0.1,0.3-0.2,0.5c0-0.1-0.1-0.3-0.1-0.4c0-0.2,0-0.3,0-0.4
				C421.9,229.6,422,229.7,422.1,229.9z M384.1,140.2c0,0.2,0,0.3,0.1,0.5c-0.1-0.1-0.2-0.2-0.3-0.3c-0.1-0.1-0.2-0.2-0.2-0.4
				C383.8,140.1,383.9,140.1,384.1,140.2z M303.6,85.3c0.1,0.1,0.2,0.3,0.3,0.4c-0.1,0-0.3,0-0.4-0.1c-0.1-0.1-0.3-0.1-0.4-0.2
				C303.3,85.4,303.4,85.4,303.6,85.3z M206.2,82.7c0.1,0.1,0.3,0.1,0.5,0.1c-0.1,0.1-0.2,0.1-0.4,0.2c-0.1,0-0.3,0-0.4,0.1
				C206,82.9,206.1,82.8,206.2,82.7z M122.9,133.1c0.2-0.1,0.3-0.1,0.5-0.1c-0.1,0.1-0.2,0.2-0.2,0.3c-0.1,0.1-0.2,0.2-0.3,0.3
				C122.8,133.5,122.8,133.3,122.9,133.1z M80,220.6c0.1-0.1,0.2-0.2,0.3-0.4c0,0.1,0,0.3,0,0.4c0,0.1-0.1,0.3-0.1,0.4
				C80.1,220.9,80.1,220.8,80,220.6z M91.3,317.4c0-0.2,0.1-0.3,0.1-0.5c0.1,0.1,0.2,0.2,0.2,0.4c0,0.1,0.1,0.3,0.1,0.4
				C91.5,317.6,91.4,317.5,91.3,317.4z M157.9,385.6c-0.5-3.9-0.8-7.8-1.4-11.6c-2-13,0.3-24.8,1.5-37.1c0.4-4.4,1.1-8.8,2.1-13
				c-4.4,0.2-8.8,0-13.2-0.5c-12.2-1.2-24.3-1.2-36.7-5.8c-3.6-1.3-7.3-2.5-11.1-3.6c1.7-3.5,3.5-6.9,5.1-10.5
				c5.3-12.1,13.7-20.7,21.3-30.4c2.8-3.5,5.7-6.8,8.8-9.8c-3.7-2.2-7.4-4.7-10.8-7.5c-9.6-7.7-19.7-14.2-27.7-24.7
				c-2.3-3.1-4.9-6.1-7.3-9.1c3.3-2,6.7-3.9,9.9-6.1c11-7.3,22.7-10,34.3-14c4.2-1.5,8.4-2.6,12.7-3.5c-1.9-3.9-3.6-8-5.1-12.2
				c-3.9-11.6-9-22.6-9.9-35.7c-0.3-3.9-0.8-7.7-1.3-11.6c3.9,0.1,7.8,0.3,11.7,0.3c13.2-0.2,24.5,3.8,36.4,6.7
				c4.3,1,8.5,2.4,12.6,3.9c0.5-4.3,1.2-8.6,2.4-13c2.9-11.9,4.6-23.9,10.9-35.4c1.8-3.4,3.5-6.9,5.2-10.4c3.2,2.2,6.4,4.5,9.7,6.5
				c11.2,7,18.6,16.5,27.1,25.4c3.1,3.2,5.9,6.6,8.5,10.1c2.7-3.4,5.7-6.6,9-9.6c8.9-8.4,16.8-17.5,28.4-23.9c3.4-1.9,6.7-4,10-6
				c1.5,3.6,2.9,7.2,4.6,10.7c5.6,11.9,6.7,23.9,9,36c0.9,4.4,1.4,8.7,1.6,13.1c4.2-1.4,8.4-2.4,12.8-3.3
				c12.1-2.3,23.6-5.6,36.8-4.7c3.8,0.3,7.8,0.3,11.6,0.4c-0.7,3.8-1.4,7.7-1.9,11.5c-1.7,13.1-7.3,23.8-11.8,35.1
				c-1.7,4.1-3.6,8.1-5.7,11.9c4.2,1.1,8.4,2.5,12.5,4.2c11.4,4.6,22.9,8,33.5,15.9c3.1,2.3,6.4,4.5,9.6,6.6
				c-2.6,2.9-5.3,5.7-7.8,8.6c-8.5,10.1-19,16-29,23.2c-3.6,2.6-7.3,4.9-11.2,6.9c2.9,3.2,5.7,6.6,8.2,10.3
				c7.1,10.1,15,19.2,19.6,31.5c1.4,3.6,3,7.2,4.5,10.8c-3.7,1-7.6,1.9-11.3,3c-12.6,3.9-24.6,3.2-36.9,3.8
				c-4.4,0.2-8.8,0.1-13.2-0.2c0.8,4.3,1.2,8.6,1.4,13.1c0.5,12.3,2.2,24.2-0.5,37.1c-0.8,3.8-1.4,7.6-2,11.5
				c-3.7-1.2-7.4-2.5-11.1-3.5c-12.7-3.5-22.4-10.6-33.1-16.8c-3.8-2.2-7.5-4.6-10.9-7.3c-1.7,4-3.6,8-5.9,11.8
				c-6.2,10.6-11.2,21.6-20.5,30.9c-2.7,2.8-5.3,5.7-7.9,8.6c-2.5-3-4.9-6.1-7.5-9c-8.8-9.8-13.2-21-18.8-32c-2-3.9-3.8-8-5.2-12.1
				c-3.6,2.5-7.4,4.7-11.3,6.7c-11,5.6-21.1,12.1-34,14.9C165.4,383.5,161.7,384.6,157.9,385.6z M178.5,308.8
				c-1.2,3.6-2.3,7.3-3.3,11.1c-3.8,15.2-4.9,30.5-3.6,45.5c14.5-4.3,28.3-10.9,41.1-20c3.2-2.3,6.2-4.6,9.1-7.1
				c0.9,3.7,2,7.4,3.3,11.1c5,14.8,12.3,28.3,21.6,40.2c9.8-11.5,17.9-24.5,23.7-39c1.5-3.6,2.8-7.3,3.8-10.9
				c2.7,2.6,5.6,5.1,8.7,7.6c12.2,9.7,25.7,17.1,39.9,22.2c2.1-15,1.8-30.3-1.1-45.6c-0.7-3.8-1.6-7.6-2.7-11.3
				c3.7,0.7,7.6,1.3,11.4,1.7c15.6,1.6,30.9,0.5,45.6-2.9c-6.3-13.7-14.8-26.5-25.6-37.8c-2.7-2.8-5.5-5.5-8.3-8
				c3.5-1.4,7-3,10.5-4.8c13.9-7.1,26.2-16.2,36.8-27.1c-12.8-8.1-26.8-14.2-42-17.9c-3.8-0.9-7.6-1.7-11.3-2.3
				c2.2-3.1,4.3-6.3,6.2-9.7c7.9-13.5,13.3-27.8,16.3-42.6c-15.1,0-30.2,2.5-45,7.6c-3.7,1.3-7.3,2.7-10.8,4.2
				c0.2-3.8,0.2-7.7,0-11.6c-0.7-15.6-3.9-30.6-9.4-44.7c-12.7,8.2-24.1,18.5-33.7,30.7c-2.4,3.1-4.7,6.2-6.8,9.4
				c-1.9-3.3-4-6.5-6.2-9.7c-9-12.8-19.8-23.6-32-32.5c-6.2,13.8-10.3,28.5-11.7,44.1c-0.4,3.9-0.6,7.8-0.6,11.6
				c-3.4-1.7-6.9-3.3-10.5-4.8c-14.5-5.9-29.5-9.2-44.6-10c2.2,15,6.8,29.6,14,43.5c1.8,3.5,3.7,6.8,5.7,10
				c-3.8,0.3-7.6,0.9-11.4,1.6c-15.4,2.9-29.8,8.2-42.9,15.6c9.9,11.4,21.7,21.2,35.2,29c3.4,2,6.8,3.8,10.2,5.4
				c-3,2.3-5.9,4.9-8.7,7.6c-11.4,10.7-20.6,23-27.6,36.3c14.5,4.2,29.8,6.1,45.4,5.4C170.9,309.7,174.8,309.3,178.5,308.8z"/>
		</g>
	</g>
</g>
</svg>
