<?xml version="1.0" encoding="utf-8"?>
<!-- Generator: Adobe Illustrator 23.0.3, SVG Export Plug-In . SVG Version: 6.00 Build 0)  -->
<svg version="1.1" id="Calque_1" xmlns="http://www.w3.org/2000/svg" xmlns:xlink="http://www.w3.org/1999/xlink" x="0px" y="0px"
	 viewBox="0 0 500 500" style="enable-background:new 0 0 500 500;" xml:space="preserve">
<style type="text/css">
	.st0{fill-rule:evenodd;clip-rule:evenodd;fill:#231F20;}
</style>
<g>
	<g>
		<g>
			<path class="st0" d="M219.2,496c4.5-4,20.6-15.6,22.3-16.9c7.6-6.1,14.8-13,19.8-21.4c3.1-5.1,6.4-11.9,6.6-18
				c3.8,1.5,8.1,5.2,12.4,2.4c-7.4,5-0.8,15.4,4.1,19.9c3-6,5.5-18-3.2-20.1c5,1.1,7.6-3.9,10.7-6.6c2.3,5.7,7.7,10.8,12.4,14.6
				c7.7,6.1,16.8,10,26.1,13.1c2.1,0.7,21.2,5.9,26.8,8c1.7-5.8,8.9-24.2,9.6-26.3c3.1-9.3,5.4-18.9,5.1-28.7
				c-0.2-6-1-13.5-4.2-18.7c4-0.8,9.6,0,11.7-4.6c-3.6,8.2,7.6,13.4,14.2,14.5c-0.7-6.7-5.1-18.2-13.5-15.2
				c4.8-1.8,4.3-7.4,5.4-11.4c5,3.5,12.4,4.9,18.3,5.5c9.8,1,19.6-0.7,29-3.1c2.1-0.6,21-6.5,26.9-7.8c-1.7-5.8-5.6-25.2-6.1-27.3
				c-2.4-9.5-5.6-18.9-11.2-26.9c-3.4-4.9-8.2-10.8-13.7-13.4c3-2.9,8.1-5.2,7.4-10.2c1.4,8.8,13.6,7.2,19.8,4.5
				c-4.2-5.2-14.1-12.5-19.6-5.5c3.1-4.1-0.3-8.6-1.6-12.5c6.1,0.3,13.1-2.6,18.4-5.3c8.8-4.4,16.1-11.1,22.7-18.3
				c1.5-1.6,14.2-16.8,18.4-21.1c-4.5-3.9-18.3-18.1-19.9-19.6c-7.2-6.7-14.9-12.8-24-16.6c-5.5-2.3-12.7-4.6-18.7-3.9
				c0.9-4,4-8.8,0.7-12.6c6,6.6,15.3-1.4,19.1-6.9c-6.4-2.2-18.7-2.9-19.4,6c0.4-5.1-4.9-7-8.1-9.7c5.3-3,9.6-9.2,12.6-14.4
				c5-8.5,7.5-18.1,9.3-27.7c0.4-2.2,2.8-21.8,4.1-27.7c-6-0.8-25.3-5.4-27.4-5.7c-9.6-1.7-19.5-2.7-29.1-1
				c-5.9,1.1-13.2,2.9-17.9,6.9c-1.4-3.9-1.4-9.5-6.3-10.9c8.6,2.4,12.2-9.4,12.4-16.1c-6.5,1.6-17.2,7.7-13.1,15.5
				c-2.4-4.5-7.9-3.3-12-3.8c2.8-5.4,3.1-13,2.9-18.9c-0.4-9.8-3.5-19.3-7.2-28.3c-0.8-2-9.4-19.9-11.5-25.5
				c-5.5,2.5-24.1,9.1-26.2,10c-9,3.7-17.9,8.3-25.1,15c-4.4,4.1-9.5,9.6-11.3,15.4c-3.2-2.5-6.3-7.3-11.2-5.8
				c8.5-2.7,5.2-14.5,1.7-20.3c-4.6,4.9-10.4,15.8-2.6,20.2c-4.5-2.5-8.4,1.5-12.2,3.3c-0.6-6.1-4.4-12.6-7.8-17.5
				c-5.6-8.1-13.3-14.3-21.3-19.9c-1.8-1.3-18.7-11.6-23.5-15.2c-3.2,5.1-15.4,20.7-16.6,22.5c-5.6,8-10.5,16.6-13,26.1
				c-1.5,5.8-2.8,13.2-1.2,19.1c-4.1-0.4-9.2-2.8-12.5,1.1c5.7-6.8-3.5-15-9.5-17.9c-1.2,6.6-0.2,18.9,8.7,18.4
				c-5.1,0.3-6.3,5.9-8.4,9.4c-3.8-4.8-10.5-8.2-16-10.5c-9.1-3.7-18.9-4.9-28.7-5.2c-2.2-0.1-22,0.3-28-0.1c0,6-1.7,25.7-1.8,27.9
				c-0.3,9.8,0.1,19.7,3.2,29c1.9,5.7,4.8,12.6,9.3,16.7c-3.7,1.9-9.3,2.7-9.9,7.7c1.1-8.8-11.1-10.7-17.7-9.9
				c2.5,6.2,10,16,17.3,10.8c-4.1,3-2.1,8.3-2,12.4c-5.7-2-13.2-1.2-19.1-0.1c-9.7,1.8-18.6,6.1-27,11.1c-1.9,1.1-18.3,12.1-23.6,15
				c3.3,5.1,12.5,22.6,13.6,24.5c5,8.4,10.7,16.5,18.4,22.7c4.7,3.8,10.9,8,16.9,9c-2,3.6-6.3,7.3-4.2,11.9c-3.8-8-15.1-3-20.3,1.2
				c5.5,3.9,17.1,8,20.3-0.3c-1.8,4.8,2.8,8.1,5,11.6c-5.9,1.4-11.8,6.1-16.2,10.2c-7.2,6.7-12.3,15.2-16.7,24
				c-1,2-8.8,20.1-11.7,25.4c5.5,2.5,22.7,12.3,24.7,13.2c8.7,4.4,17.9,8.1,27.7,9.1c5.9,0.7,13.5,0.9,19.1-1.5
				c0.2,4.1-1.4,9.5,2.9,12.3c-7.6-4.7-14.3,5.6-16.4,12c6.7,0.3,18.7-2.5,17-11.2c1,5,6.7,5.4,10.5,7c-4.2,4.4-6.6,11.6-8.1,17.4
				c-2.4,9.5-2.1,19.4-1,29.2c0.2,2.2,3.4,21.7,3.8,27.7c6-0.9,25.7-2,27.9-2.2c9.7-1,19.5-2.9,28.3-7.3c5.4-2.7,11.8-6.5,15.2-11.6
				c2.4,3.3,4,8.8,9.1,8.7c-8.9,0.2-9,12.5-7.3,19c5.8-3.4,14.4-12.2,8.2-18.6c3.6,3.6,8.5,0.9,12.6,0.2c-1.2,6,0.7,13.3,2.6,19
				c3.1,9.3,8.7,17.5,14.8,25.1C202.3,476.4,215.6,491.1,219.2,496z M264.1,350.7c-4.3-2.5-8-6.3-10.5-11.6
				c-4.7-10-3.2-23.4,2.4-32.8c8.6,6.8,14.6,18.9,13.8,29.9C269.4,342,267.2,346.8,264.1,350.7z M205.8,344.5
				c-2.2-4.4-3.3-9.6-2.5-15.4c1.5-10.9,10-21.4,19.8-26.3c3.5,10.4,2.1,23.8-4.6,32.6C215,340,210.6,343,205.8,344.5z M160.2,307.8
				c0.5-4.9,2.4-9.9,6.2-14.3c7.2-8.4,20-12.6,30.8-11.5c-2.7,10.6-11.1,21.1-21.4,24.9C170.3,309,165,309.1,160.2,307.8z
				 M141.7,252.3c3.1-3.9,7.4-7,12.9-8.7c10.6-3.2,23.6,0.2,32.1,7.1c-8,7.5-20.7,11.8-31.5,9.4C149.5,258.7,145,255.9,141.7,252.3z
				 M156.1,195.5c4.7-1.6,10-1.9,15.6-0.3c10.6,3,19.8,12.9,23.2,23.3c-10.8,2-23.8-1.3-31.6-9.2
				C159.2,205.2,156.9,200.4,156.1,195.5z M198.9,155.5c4.8,1.2,9.4,3.8,13.3,8.2c7.3,8.3,9.7,21.6,6.9,32.2
				c-10.1-4.1-19.3-14-21.6-24.8C196.3,165.4,197,160.1,198.9,155.5z M256.5,145.1c3.4,3.6,5.9,8.3,6.8,14
				c1.7,10.9-3.5,23.3-11.5,30.8c-6.3-9-8.7-22.2-4.8-32.5C249,151.9,252.4,147.9,256.5,145.1z M310.7,167.4
				c0.9,4.9,0.5,10.2-1.9,15.5c-4.5,10.1-15.6,17.7-26.4,19.7c-0.4-10.9,4.7-23.4,13.5-30C300.6,169.1,305.7,167.6,310.7,167.4z
				 M344.1,215.5c-1.9,4.6-5.1,8.8-9.9,12c-9.3,6.1-22.7,6.5-32.8,2.3c5.6-9.4,16.6-17.2,27.6-17.9
				C334.8,211.5,339.9,212.9,344.1,215.5z M346.3,274c-4,2.9-9,4.7-14.8,4.7c-11.1,0.1-22.6-6.8-28.9-15.8
				c9.8-4.9,23.2-5.5,32.9-0.1C340.6,265.6,344.1,269.6,346.3,274z M316.4,324.4c-5,0.2-10.1-1-15.1-4.1
				c-9.3-5.9-15.3-17.9-15.7-28.9c10.9,1.1,22.5,8,27.7,17.7C316.2,314.3,317,319.5,316.4,324.4z M278.5,430
				c-1.8-0.5-3.7-1.1-5.3-1.9c-6.5-3.2-7.1-8.3-2.9-14.3c0.7-1,1.5-1.8,2.1-2.8c2.1-3.2,1.2-5.1-2.6-5.4c-1.5-0.1-3,0.2-4.5,0
				c-7-0.6-10.8-4.8-10.7-11.8c0-1.5-0.1-3-0.2-4.3c5.6-0.5,11.1-0.6,16.4-1.4c5.3-1.1,10.5-2.9,15.9-4.5c0.4,1.3,0.8,2.7,1.3,4.1
				c2.6,6.5,0.5,11.7-5.9,14.8c-1.3,0.7-2.9,0.9-4.2,1.6c-3.4,1.6-3.6,3.7-0.5,6c0.9,0.7,2,1.2,3,1.9c6.1,4.2,7.3,9.2,2.3,14.4
				C281.5,427.6,280.1,428.9,278.5,430z M175.1,419c-1.3-1.4-2.5-2.9-3.5-4.5c-3.8-6.2-1.5-10.8,5.3-13.6c1.1-0.4,2.3-0.7,3.3-1.2
				c3.5-1.5,3.8-3.7,0.8-5.9c-1.2-0.9-2.6-1.5-3.8-2.4c-5.6-4.3-6.5-9.9-2.6-15.7c0.8-1.2,1.5-2.5,2.2-3.7c5,2.6,9.7,5.5,14.6,7.7
				c5.1,1.9,10.4,3.2,15.8,4.9c-0.3,1.3-0.8,2.7-1.1,4.1c-1.3,6.8-5.9,10.2-12.9,9.3c-1.5-0.2-2.9-0.8-4.4-1c-3.7-0.5-5,1.2-3.6,4.8
				c0.4,1.1,1,2.1,1.5,3.2c2.8,6.8,1.2,11.7-5.9,13.4C178.9,418.7,177,418.9,175.1,419z M94.1,353.8c-0.3-1.9-0.5-3.8-0.5-5.7
				c0.2-7.2,4.6-9.9,11.8-8.6c1.2,0.2,2.3,0.6,3.5,0.8c3.7,0.6,5.2-1.1,3.9-4.6c-0.5-1.4-1.4-2.7-1.9-4.1
				c-2.4-6.7-0.1-11.8,6.3-14.6c1.4-0.6,2.6-1.4,3.8-1.9c2.8,4.9,5.2,9.8,8.1,14.4c3.3,4.4,7.1,8.3,10.7,12.6
				c-1,0.9-2.1,1.8-3.2,2.9c-4.8,5-10.4,5.3-15.9,0.8c-1.2-1-2.1-2.2-3.2-3.2c-2.8-2.4-4.9-1.7-5.6,2c-0.2,1.2-0.2,2.4-0.4,3.5
				c-1.3,7.2-5.3,10.4-12.2,8.1C97.5,355.6,95.8,354.8,94.1,353.8z M61.2,255.2c0.7-1.8,1.6-3.5,2.7-5c4.1-6,9.2-5.9,14.6-0.9
				c0.9,0.8,1.6,1.8,2.5,2.5c2.8,2.5,4.9,1.9,5.7-1.8c0.3-1.5,0.3-3,0.6-4.5c1.6-6.9,6.3-10,13.2-8.9c1.5,0.3,3,0.3,4.3,0.4
				c-0.3,5.6-1,11.1-1,16.5c0.4,5.4,1.4,10.8,2.2,16.4c-1.3,0.2-2.8,0.4-4.2,0.8c-6.7,1.6-11.7-1.2-13.8-7.9c-0.5-1.4-0.5-3-1-4.4
				c-1.1-3.6-3.2-4.1-5.8-1.4c-0.8,0.8-1.5,1.9-2.3,2.7c-5,5.4-10.1,5.9-14.6,0.2C63,258.6,62,256.9,61.2,255.2z M86.8,154.5
				c1.6-1.1,3.2-2,4.9-2.8c6.7-2.9,10.9,0,12.8,7.2c0.3,1.1,0.4,2.3,0.7,3.5c1,3.7,3.1,4.3,5.8,1.6c1.1-1.1,1.8-2.4,2.9-3.4
				c5.1-4.9,10.7-5,15.9-0.3c1.1,1,2.3,1.8,3.4,2.7c-3.3,4.5-6.8,8.8-9.7,13.4c-2.6,4.7-4.7,9.9-7.1,14.9c-1.2-0.5-2.5-1.2-4-1.7
				c-6.6-2.3-9.2-7.3-7.3-14.1c0.4-1.4,1.2-2.8,1.6-4.2c1.1-3.6-0.5-5.1-4.2-4.3c-1.1,0.3-2.2,0.7-3.4,1c-7.1,1.8-11.7-0.5-12.4-7.7
				C86.5,158.3,86.6,156.4,86.8,154.5z M162.8,83.5c1.9-0.1,3.8,0,5.6,0.3c7.2,1.2,9.2,5.9,6.9,12.9c-0.4,1.1-0.9,2.2-1.3,3.3
				c-1.1,3.6,0.3,5.3,4,4.5c1.5-0.3,2.9-1,4.4-1.3c6.9-1.4,11.7,1.6,13.6,8.3c0.4,1.4,0.9,2.8,1.4,4.1c-5.2,2-10.5,3.7-15.4,6
				c-4.8,2.6-9.3,5.8-14,8.8c-0.8-1.1-1.5-2.4-2.4-3.5c-4.3-5.5-3.8-11.1,1.4-15.8c1.1-1,2.5-1.7,3.6-2.7c2.8-2.5,2.4-4.6-1.2-5.9
				c-1.1-0.4-2.3-0.6-3.4-0.9c-7-2.3-9.6-6.7-6.3-13.2C160.5,86.6,161.6,85.1,162.8,83.5z M265,65c1.6,1,3.2,2.1,4.6,3.3
				c5.4,4.9,4.5,9.9-1.2,14.6c-0.9,0.8-1.9,1.3-2.8,2.1c-2.9,2.4-2.6,4.6,0.9,5.9c1.4,0.5,2.9,0.7,4.4,1.3c6.6,2.6,9,7.7,6.9,14.3
				c-0.4,1.4-0.7,2.9-1,4.2c-5.5-1.1-10.8-2.5-16.2-3.3c-5.4-0.4-10.9-0.1-16.5-0.2c0-1.3,0-2.8-0.1-4.3c-0.6-6.9,2.8-11.4,9.8-12.5
				c1.5-0.3,3-0.1,4.5-0.3c3.7-0.5,4.5-2.6,2.2-5.6c-0.7-0.9-1.6-1.7-2.3-2.6c-4.6-5.7-4.4-10.9,1.9-14.5
				C261.5,66.3,263.2,65.6,265,65z M361.1,104.7c0.8,1.7,1.5,3.5,2,5.3c1.9,7-1.6,10.8-8.9,11.6c-1.2,0.1-2.4,0.1-3.5,0.2
				c-3.8,0.5-4.6,2.5-2.4,5.5c0.9,1.2,2.1,2.2,3,3.4c4.2,5.7,3.4,11.3-1.9,15.8c-1.2,0.9-2.2,2-3.1,2.9c-4-3.9-7.7-8-11.9-11.5
				c-4.3-3.3-9.1-6-13.8-9.1c0.7-1.1,1.5-2.4,2.2-3.7c3.2-6.2,8.5-8.1,15-5.3c1.4,0.6,2.6,1.6,4,2.2c3.4,1.6,5.2,0.3,4.9-3.5
				c-0.1-1.2-0.4-2.3-0.6-3.5c-0.8-7.3,2.1-11.5,9.4-11.2C357.4,103.9,359.3,104.2,361.1,104.7z M420.5,190
				c-0.2,1.9-0.6,3.8-1.1,5.6c-2.2,6.9-7.2,8.2-13.8,4.9c-1.1-0.5-2-1.2-3.1-1.7c-3.4-1.6-5.3-0.4-5,3.3c0.1,1.5,0.6,3,0.7,4.5
				c0.4,7.1-3.3,11.4-10.1,12.2c-1.5,0.2-2.9,0.5-4.2,0.8c-1.3-5.5-2.2-10.9-3.7-16.1c-1.9-5.1-4.4-10-6.7-15.1
				c1.2-0.6,2.5-1.2,3.8-1.9c6-3.5,11.5-2.2,15.5,3.7c0.8,1.3,1.3,2.7,2.2,4c2,3.1,4.2,3,6-0.4c0.5-1,0.9-2.2,1.4-3.2
				c3.3-6.6,8-8.5,14-4.3C417.8,187.3,419.2,188.6,420.5,190z M424.3,293.9c-1.2,1.5-2.5,2.9-4,4.1c-5.6,4.6-10.5,3-14.2-3.3
				c-0.6-1-1-2.1-1.7-3.1c-2-3.2-4.2-3.2-6,0.1c-0.7,1.3-1.1,2.8-1.9,4.1c-3.5,6.2-8.9,7.8-15.2,4.8c-1.3-0.6-2.8-1.1-4-1.6
				c1.9-5.3,4-10.4,5.6-15.6c1.2-5.3,1.7-10.8,2.6-16.3c1.3,0.2,2.8,0.4,4.3,0.5c6.9,0.3,10.9,4.4,11,11.5c0,1.5-0.3,3-0.3,4.5
				c0,3.8,1.9,4.8,5.2,2.9c1-0.6,1.9-1.4,2.9-1.9c6.3-3.8,11.4-2.8,14.1,3.9C423.5,290.1,424,292,424.3,293.9z M371.4,383.3
				c-1.8,0.6-3.7,1.1-5.5,1.3c-7.2,0.8-10.5-3.1-10.2-10.5c0-1.2,0.3-2.4,0.3-3.5c0.1-3.8-1.8-5-5.1-3.2c-1.3,0.7-2.5,1.8-3.8,2.5
				c-6.3,3.3-11.7,1.8-15.3-4.1c-0.8-1.3-1.7-2.4-2.5-3.5c4.4-3.4,9-6.5,13.1-10.1c3.9-3.8,7.2-8.2,11-12.3c1,0.8,2.1,1.9,3.3,2.7
				c5.6,4,6.8,9.6,3.1,15.6c-0.8,1.3-1.9,2.4-2.7,3.6c-2,3.1-1,5.1,2.8,5.3c1.2,0.1,2.4-0.1,3.5,0c7.4,0.3,11.1,3.8,9.8,10.9
				C372.7,379.7,372.1,381.5,371.4,383.3z M230.2,392.2c1.7-0.8,3.3-1.5,4.8-2.1c0.3,2.8,0.9,6.6,0.8,10.3c0,0.6-0.4,1.3-1,1.9
				c-2.4,0.8-4.2,2.1-6.1,3.4c-1.5-1.7-3.1-3.3-5.2-4.6c-0.4-0.7-0.7-1.5-0.6-2.1c0.8-3.7,2.2-7.2,3-9.9
				C227.3,390.1,228.7,391.2,230.2,392.2z M154.9,361.2c1.8,0.3,3.6,0.5,5.2,0.8c-1.3,2.5-2.8,6-4.9,9.2c-0.3,0.5-1,0.8-1.9,1.1
				c-2.4-0.6-4.6-0.6-6.9-0.5c-0.4-2.2-0.8-4.5-2-6.7c0-0.8,0.2-1.6,0.6-2c2.6-2.7,5.7-5,7.9-6.7
				C153.6,357.8,154.2,359.4,154.9,361.2z M108.3,294.3c1.4,1.2,2.7,2.4,4,3.5c-2.4,1.4-5.6,3.5-9.1,5.1c-0.6,0.3-1.4,0.1-2.2-0.1
				c-1.7-1.8-3.6-3-5.6-4.1c0.9-2.1,1.7-4.2,2-6.7c0.5-0.7,1.1-1.3,1.6-1.4c3.7-0.8,7.5-1.1,10.3-1.4
				C109.1,290.7,108.7,292.5,108.3,294.3z M105.3,212.8c0.5,1.8,1,3.5,1.4,5.1c-2.8-0.1-6.6-0.1-10.4-0.6c-0.6-0.1-1.2-0.6-1.7-1.3
				c-0.4-2.4-1.4-4.5-2.4-6.5c1.9-1.3,3.7-2.6,5.3-4.5c0.8-0.3,1.6-0.5,2.1-0.3c3.5,1.3,6.9,3.2,9.4,4.4
				C107.9,210.2,106.6,211.5,105.3,212.8z M146.9,142.7c-0.5,1.8-1.1,3.5-1.5,5.1c-2.3-1.6-5.5-3.7-8.4-6.1c-0.4-0.4-0.7-1.2-0.8-2
				c0.9-2.3,1.2-4.5,1.5-6.8c2.3-0.1,4.5-0.2,6.9-1c0.8,0.2,1.6,0.4,1.9,0.9c2.3,3,4.1,6.4,5.5,8.8
				C150.4,141.9,148.7,142.3,146.9,142.7z M219.7,106.1c-1.4,1.2-2.8,2.4-4,3.4c-1-2.6-2.7-6.1-3.7-9.7c-0.2-0.6,0.1-1.3,0.4-2.1
				c2-1.4,3.5-3.2,4.9-4.9c2,1.2,3.9,2.3,6.3,2.9c0.6,0.6,1.1,1.2,1.2,1.8c0.3,3.8,0,7.6-0.1,10.4
				C223.1,107.4,221.4,106.8,219.7,106.1z M300.7,114.7c-1.9,0.3-3.6,0.5-5.2,0.7c0.5-2.8,1-6.6,2.1-10.2c0.2-0.6,0.8-1.1,1.5-1.5
				c2.5-0.1,4.6-0.8,6.8-1.5c1,2,2,4,3.7,5.9c0.2,0.8,0.3,1.6,0,2.1c-1.8,3.3-4.1,6.4-5.7,8.7C302.9,117.6,301.8,116.2,300.7,114.7z
				 M364.2,165.8c-1.7-0.8-3.3-1.5-4.8-2.2c1.9-2,4.4-5,7.3-7.4c0.4-0.4,1.2-0.5,2.1-0.5c2.1,1.3,4.3,1.8,6.5,2.4
				c-0.2,2.3-0.5,4.5,0,6.9c-0.3,0.8-0.7,1.5-1.2,1.8c-3.3,1.8-6.9,3.1-9.4,4.2C364.5,169.4,364.4,167.7,364.2,165.8z M390.1,243.1
				c-1-1.6-1.9-3.1-2.8-4.5c2.7-0.7,6.4-1.8,10.1-2.3c0.6-0.1,1.3,0.3,2,0.7c1.1,2.2,2.6,3.9,4.2,5.6c-1.4,1.8-2.8,3.5-3.8,5.8
				c-0.7,0.5-1.4,0.9-2,0.9c-3.8-0.2-7.5-1.1-10.3-1.6C388.4,246.3,389.2,244.8,390.1,243.1z M370,322.1c0-1.8,0-3.6,0-5.3
				c2.7,0.9,6.3,1.9,9.8,3.5c0.5,0.3,1,0.9,1.3,1.7c-0.3,2.5,0.1,4.7,0.5,6.9c-2.1,0.7-4.3,1.5-6.3,2.9c-0.8,0.1-1.6,0-2.1-0.3
				c-3-2.2-5.7-5-7.8-6.8C366.8,323.9,368.4,323,370,322.1z M310.4,377.7c1-1.5,2-3,2.9-4.4c1.7,2.2,4.3,5.1,6.3,8.3
				c0.3,0.5,0.3,1.3,0.2,2.1c-1.5,1.9-2.4,4-3.3,6.1c-2.2-0.6-4.4-1.1-6.9-1c-0.8-0.4-1.4-0.9-1.6-1.4c-1.4-3.5-2.1-7.3-2.9-10
				C306.8,377.5,308.6,377.6,310.4,377.7z M270.5,386c-1.5,0.6-3.1,1.1-4.5,1c0-2.8,0.6-5.7,1.3-8.4c0.1-0.5,0.7-4.3,0.8-5.6
				c0.5,1.1,2.4,4.5,2.7,4.9c1.6,2.3,3.2,4.8,4.2,7.4C273.8,385.9,272.1,386,270.5,386z M192.2,377.7c-1.6-0.3-3.2-0.8-4.3-1.6
				c1.5-2.3,3.6-4.5,5.6-6.4c0.4-0.4,2.9-3.3,3.7-4.2c-0.1,1.2-0.4,5.1-0.3,5.6c0.1,2.7,0.1,5.8-0.5,8.5
				C195,379.4,193.5,378.5,192.2,377.7z M130.8,328.3c-1.2-1.2-2.3-2.4-2.8-3.7c2.5-1.2,5.5-1.8,8.2-2.3c0.5-0.1,4.2-1.2,5.4-1.5
				c-0.7,0.9-3.1,4.1-3.3,4.5c-1.4,2.4-3,4.9-5,6.9C132.2,331.3,131.5,329.8,130.8,328.3z M105.8,253.6c-0.3-1.6-0.6-3.2-0.3-4.6
				c2.7,0.3,5.6,1.4,8.1,2.5c0.5,0.2,4.2,1.3,5.4,1.6c-1.2,0.4-4.8,1.8-5.2,2c-2.5,1.2-5.2,2.5-8,3.1
				C105.4,256.8,105.6,255.2,105.8,253.6z M125.2,177.2c0.6-1.5,1.2-3.1,2.2-4c2.1,1.8,3.9,4.2,5.5,6.5c0.3,0.4,2.8,3.4,3.7,4.3
				c-1.2-0.3-5-1.1-5.5-1.2c-2.7-0.3-5.8-0.7-8.3-1.7C123.1,179.8,124.2,178.5,125.2,177.2z M182.8,123.5c1.3-1,2.7-1.9,4-2.2
				c0.8,2.6,1,5.7,1.1,8.4c0,0.5,0.6,4.4,0.8,5.6c-0.8-0.9-3.6-3.6-4-3.9c-2.2-1.7-4.5-3.7-6.1-6C179.7,124.5,181.3,124,182.8,123.5
				z M260.3,109.4c1.6-0.1,3.3-0.2,4.6,0.3c-0.8,2.6-2.2,5.3-3.6,7.7c-0.3,0.4-1.9,4-2.4,5.1c-0.2-1.2-1.1-5-1.3-5.5
				c-0.9-2.6-1.7-5.6-1.9-8.3C257.1,108.6,258.7,109,260.3,109.4z M333.1,139.5c1.4,0.8,2.9,1.6,3.7,2.7c-2.1,1.8-4.7,3.3-7.2,4.5
				c-0.5,0.2-3.7,2.3-4.7,3c0.4-1.1,1.8-4.8,1.9-5.3c0.7-2.7,1.5-5.6,2.9-8C330.9,137,332.1,138.3,333.1,139.5z M378.1,204.1
				c0.8,1.4,1.5,2.9,1.6,4.3c-2.7,0.4-5.8,0.2-8.5-0.1c-0.5-0.1-4.4-0.1-5.6,0c1-0.7,4.1-3.1,4.5-3.4c2-1.9,4.3-3.9,6.7-5.2
				C377.6,200.9,377.9,202.5,378.1,204.1z M381,282.8c-0.1,1.6-0.3,3.3-1,4.5c-2.5-1.1-5-2.9-7.1-4.7c-0.4-0.3-3.7-2.4-4.7-3.1
				c1.2-0.1,5.1-0.4,5.6-0.5c2.7-0.5,5.7-0.9,8.5-0.7C382.3,279.8,381.7,281.4,381,282.8z M340.9,350.6c-1,1.3-2,2.6-3.2,3.3
				c-1.5-2.3-2.6-5.2-3.5-7.8c-0.2-0.5-1.8-4-2.3-5.1c1.1,0.6,4.5,2.5,5,2.7c2.5,1,5.3,2.3,7.5,4
				C343.6,348.8,342.3,349.8,340.9,350.6z M267.3,368.2c-0.1,0.4-0.2,0.9-0.4,1.4c-4.4-1.2-9.7-2.7-15.9-4.4
				c3.8-4.9,6.6-8.5,9.8-12.7c1.3,0.6,2.6,1.2,4,1.8c1-1,2.1-2.1,3.1-3.1c4.5,2.8,8.4,5.2,13.6,8.4c-5.2,3.8-9.6,7.1-13.3,9.8
				C267.8,369,267.6,368.6,267.3,368.2z M199.1,360.9c-0.3,0.3-0.7,0.6-1,0.9c-3.1-3.4-6.7-7.5-11-12.4c5.8-2.1,10.2-3.6,15.1-5.4
				c0.8,1.2,1.5,2.4,2.3,3.7c1.4-0.3,2.9-0.7,4.3-1c2.3,4.8,4.3,8.9,6.9,14.5c-6.5,0.4-11.9,0.7-16.5,1
				C199.1,361.9,199.1,361.4,199.1,360.9z M145.6,318c-0.4,0.1-0.9,0.1-1.4,0.2c-0.7-4.5-1.5-10-2.5-16.3c6,1.4,10.5,2.4,15.6,3.6
				c0,1.5,0,2.9,0,4.4c1.4,0.5,2.8,1,4.1,1.5c-0.7,5.2-1.2,9.8-2,15.9c-5.6-3.2-10.4-5.8-14.4-8.1
				C145.2,318.8,145.4,318.4,145.6,318z M123.9,252.9c-0.4-0.2-0.8-0.4-1.3-0.6c1.8-4.2,4.1-9.2,6.7-15.1c4.3,4.4,7.5,7.7,11.2,11.5
				c-0.8,1.2-1.6,2.4-2.4,3.7c0.9,1.2,1.8,2.3,2.6,3.5c-3.4,4-6.4,7.6-10.3,12.3c-3-5.7-5.6-10.5-7.8-14.6
				C123.1,253.4,123.5,253.1,123.9,252.9z M140.8,186.4c-0.3-0.4-0.5-0.8-0.8-1.2c3.8-2.5,8.4-5.6,13.8-9.1c1.2,6,2.1,10.6,3.2,15.7
				c-1.3,0.6-2.7,1.2-4,1.8c0.1,1.5,0.2,2.9,0.3,4.4c-5,1.6-9.5,2.9-15.3,4.8c0.5-6.4,1-11.9,1.4-16.5
				C139.8,186.4,140.3,186.4,140.8,186.4z M190.9,139.6c0-0.5,0-0.9,0-1.4c4.6-0.1,10.1-0.1,16.5-0.2c-2.2,5.7-3.9,10-5.8,15
				c-1.4-0.2-2.9-0.4-4.3-0.7c-0.7,1.3-1.4,2.6-2.1,3.9c-5.1-1.4-9.5-2.6-15.5-4.3c3.9-5.1,7.2-9.5,10-13.1
				C190.2,139.1,190.5,139.4,190.9,139.6z M258.4,127.4c0.2-0.4,0.5-0.8,0.8-1.2c3.9,2.4,8.5,5.3,14,8.8c-5,3.6-8.7,6.3-13,9.4
				c-1.1-0.9-2.2-1.9-3.3-2.9c-1.3,0.7-2.6,1.4-3.8,2.1c-3.5-3.9-6.6-7.4-10.7-12c6.1-2.2,11.3-4,15.6-5.6
				C258.1,126.5,258.2,126.9,258.4,127.4z M321.8,153.6c0.4-0.2,0.8-0.4,1.3-0.6c2,4.1,4.3,9.1,7.1,14.9c-6.1,0.3-10.8,0.6-16,0.9
				c-0.4-1.4-0.8-2.8-1.2-4.2c-1.5-0.1-2.9-0.2-4.4-0.3c-0.8-5.2-1.6-9.8-2.5-15.8c6.3,1.4,11.6,2.7,16.1,3.7
				C322,152.7,321.9,153.1,321.8,153.6z M361,209.9c0.5,0.1,0.9,0.1,1.4,0.2c-0.6,4.5-1.3,10-2.1,16.4c-5.4-3-9.4-5.3-14-7.9
				c0.4-1.4,0.8-2.8,1.3-4.2c-1.2-0.9-2.4-1.7-3.5-2.6c2.1-4.8,4-9.1,6.4-14.7c4.5,4.6,8.4,8.5,11.6,11.8
				C361.6,209.2,361.3,209.5,361,209.9z M363.5,278.4c0.3,0.3,0.7,0.6,1.1,0.9c-2.9,3.5-6.5,7.7-10.7,12.6c-2.9-5.5-5-9.6-7.5-14.2
				c1.1-0.9,2.2-1.9,3.3-2.9c-0.5-1.4-1-2.7-1.6-4.1c4.4-2.9,8.2-5.5,13.4-8.9c1.3,6.3,2.4,11.7,3.3,16.2
				C364.4,278.2,364,278.3,363.5,278.4z M328.6,337.4c0.2,0.4,0.3,0.9,0.4,1.3c-4.4,1.4-9.6,3-15.8,4.9c0.5-6.1,0.9-10.7,1.4-16
				c1.4-0.2,2.9-0.4,4.3-0.6c0.3-1.4,0.6-2.9,0.9-4.3c5.3-0.1,9.9-0.2,16.1-0.3c-2.3,6-4.3,11.1-6,15.4
				C329.5,337.8,329,337.6,328.6,337.4z M257.9,350.4c-2.9,4.1-6,8.5-9.4,13.3c-4.2-3.8-8.1-7.3-12.4-11.2c4.3-1.8,8.5-3.3,12.3-6.2
				c1.2-0.9,2.8-1.5,3.8-2.5C252.8,344.5,258.7,349.4,257.9,350.4z M311.1,327.5c-0.2,5-0.4,10.4-0.7,16.3
				c-5.6-0.9-10.8-1.8-16.5-2.7c2.7-3.9,5.4-7.4,7-11.8c0.5-1.3,1.6-2.8,1.8-4.1C303.6,325.4,311.2,326.3,311.1,327.5z M343.5,279.5
				c2.5,4.3,5.3,9,8.2,14.1c-5.2,2.3-10,4.4-15.3,6.7c0.2-4.7,0.5-9.1-0.5-13.7c-0.3-1.4-0.2-3.2-0.7-4.5
				C336,281.8,342.8,278.4,343.5,279.5z M344.7,221.6c4.5,2.3,9.3,4.7,14.6,7.4c-3.2,4.7-6.1,9.1-9.3,13.9c-2.4-4-4.5-8-7.9-11.3
				c-1-1-1.9-2.6-3-3.4C339.6,227.6,343.6,221.1,344.7,221.6z M314.5,172.3c5-0.5,10.4-1,16.2-1.6c-0.1,5.7-0.2,10.9-0.3,16.7
				c-4.2-2.1-8.1-4.3-12.7-5.2c-1.4-0.3-3-1.1-4.3-1.2C313.4,180,313.3,172.4,314.5,172.3z M262.4,147.1c3.9-3.1,8.2-6.5,12.8-10.2
				c3,4.8,5.7,9.3,8.8,14.2c-4.7,0.5-9.1,0.8-13.5,2.5c-1.4,0.5-3.1,0.7-4.3,1.3C265.7,154.2,261.4,147.8,262.4,147.1z M204.9,154.1
				c1.6-4.8,3.4-9.9,5.3-15.5c5.1,2.5,9.8,4.7,15.1,7.2c-3.7,2.9-7.2,5.6-10.1,9.4c-0.8,1.2-2.3,2.3-2.9,3.5
				C211.5,158.3,204.5,155.2,204.9,154.1z M160.3,191c-1.2-4.9-2.5-10.1-3.9-15.8c5.6-0.7,10.8-1.4,16.6-2.1
				c-1.5,4.4-3.1,8.6-3.4,13.3c-0.1,1.4-0.7,3.1-0.6,4.5C168.1,191,160.6,192.2,160.3,191z M142.8,246.2c-3.6-3.5-7.6-7.2-11.9-11.2
				c4.4-3.6,8.4-7,12.8-10.7c1.2,4.5,2.1,8.9,4.4,13c0.7,1.3,1.1,3,1.9,4.1C149.4,241.9,143.7,247.1,142.8,246.2z M157.9,302.1
				c-4.9-0.9-10.2-1.9-16-3c1.7-5.4,3.3-10.4,5-16c3.4,3.2,6.6,6.4,10.7,8.6c1.3,0.7,2.5,1.9,3.8,2.4
				C161.1,294.9,159.1,302.3,157.9,302.1z M200.8,341c-4.6,1.9-9.7,3.9-15.1,6.1c-1.5-5.5-2.9-10.5-4.4-16.2
				c4.6,0.8,8.9,1.8,13.7,1.4c1.4-0.1,3.2,0.3,4.5,0C199.7,333.2,202,340.5,200.8,341z M219,340.4c0.7,1.1,2.2,2.1,3.2,3.2
				c3.1,3.6,6.9,5.9,10.7,8.6c-5,2.9-9.6,5.5-14.5,8.3c-2.3-5.4-4.4-10.4-6.4-15C211.4,344.4,218.2,340.9,219,340.4z M272.9,340.2
				c1.2,0.6,3,0.6,4.4,1c4.6,1.4,9,1.3,13.7,1.4c-2.7,5.2-5.1,9.8-7.7,14.9c-4.9-3.3-9.3-6.4-13.5-9.2
				C268.7,347.6,272.5,341,272.9,340.2z M318.2,310.8c1.4-0.2,2.9-1.1,4.2-1.6c4.5-1.3,8.3-3.8,12.3-6.2c0.5,5.8,1,11,1.6,16.7
				c-5.9-0.2-11.3-0.3-16.3-0.4C318.7,319.3,318.3,311.6,318.2,310.8z M340.3,261.6c1-0.9,1.8-2.5,2.7-3.6c3.1-3.5,4.9-7.6,7-11.8
				c3.6,4.6,6.8,8.7,10.3,13.2c-5,3-9.7,5.9-14,8.5C345.4,268.5,340.9,262.3,340.3,261.6z M332.4,208.3c0.4-1.3,0.2-3.1,0.4-4.5
				c0.7-4.7,0-9.1-0.5-13.7c5.5,1.9,10.4,3.6,15.8,5.5c-2.6,5.3-5,10.2-7.2,14.7C340.4,211.4,333.3,208.5,332.4,208.3z M296.9,167.7
				c-0.4-1.3-1.5-2.7-2.2-4c-1.9-4.3-4.9-7.7-7.8-11.3c5.7-1.3,10.7-2.6,16.3-3.9c0.7,5.9,1.3,11.2,1.9,16.2
				C305.3,166,297.8,167.4,296.9,167.7z M245.1,152.7c-1-0.9-2.7-1.4-4-2.2c-4-2.5-8.3-3.8-12.7-5.2c4-4.2,7.6-8,11.6-12.1
				c3.7,4.5,7.2,8.7,10.4,12.6C251.2,146.8,245.7,152.1,245.1,152.7z M193.4,168.1c-1.3-0.2-3.1,0.3-4.5,0.3c-4.7,0-9,1.3-13.5,2.4
				c1.1-5.7,2.1-10.8,3.2-16.4c5.6,1.8,10.8,3.5,15.5,5C195.3,159.8,193.5,167.3,193.4,168.1z M158.3,209c-1.2,0.6-2.4,1.9-3.6,2.7
				c-4,2.5-6.9,5.9-10.1,9.4c-2.2-5.4-4.1-10.3-6.2-15.5c5.7-1.5,10.9-2.9,15.8-4.2C155.4,201,157.9,208.2,158.3,209z M150.8,262.5
				c-0.7,1.2-1,2.9-1.6,4.2c-2,4.3-2.6,8.7-3.4,13.3c-4.7-3.4-9-6.4-13.6-9.7c4-4.4,7.6-8.3,11-12
				C144.1,257.3,150.1,262,150.8,262.5z M173.4,311.4c0,1.3,0.7,3,0.9,4.4c0.7,4.7,2.6,8.7,4.4,13c-5.8-0.3-11-0.5-16.7-0.8
				c1-5.8,1.9-11.1,2.8-16.1C165,310.7,172.6,311.4,173.4,311.4z M236.2,336.5c4.2-1.1,8.4-2.1,12.8-2.7c0.2,0.9,3.2,8.7,1.9,9.3
				c-3.5,1.7-7.9,3.5-12,5.7c-1.9,1-3.1,1.1-4,0.1c-1.1,0.8-2.2,0.5-3.9-0.9c-3.5-3.1-7.4-5.7-10.5-8.1c-1.1-0.9,3.5-7.9,3.8-8.7
				C228.4,332.7,232.3,334.5,236.2,336.5z M190.1,317.4c4.1,1.4,8.2,2.8,12.2,4.6c-0.3,0.8-2,9-3.4,8.9c-3.9-0.5-8.5-1.4-13.2-1.7
				c-2.1-0.2-3.1-0.8-3.4-2.1c-1.3,0.1-2.1-0.8-2.7-2.8c-1.3-4.5-3.1-8.8-4.5-12.5c-0.5-1.3,7.2-4.7,7.9-5.2
				C185.6,310,187.9,313.7,190.1,317.4z M161.6,276.5c2.8,3.4,5.4,6.8,7.8,10.5c-0.7,0.5-6.6,6.5-7.7,5.6c-3-2.5-6.4-5.8-10.2-8.6
				c-1.7-1.3-2.2-2.4-1.7-3.6c-1.1-0.7-1.3-1.8-0.8-3.9c1.3-4.5,2.2-9.1,3-13c0.3-1.4,8.6-0.1,9.5-0.1
				C161.8,267.9,161.7,272.1,161.6,276.5z M159.7,226.6c0.5,4.3,0.9,8.6,0.9,13c-0.9,0.1-9.1,1.9-9.5,0.6c-1.2-3.7-2.3-8.3-4-12.7
				c-0.7-2-0.6-3.2,0.5-3.9c-0.6-1.2-0.2-2.3,1.4-3.7c3.5-3.1,6.7-6.5,9.5-9.3c1-1,7.3,4.5,8.1,5
				C164.6,219.5,162.2,223.1,159.7,226.6z M185.1,183.7c-1.9,3.9-3.9,7.7-6.3,11.4c-0.8-0.4-8.7-3.3-8.3-4.7
				c1.1-3.8,2.5-8.2,3.5-12.8c0.5-2.1,1.2-3,2.5-3c0.1-1.3,1.1-2,3.2-2.3c4.6-0.7,9.2-1.8,13-2.7c1.4-0.3,3.7,7.8,4.1,8.6
				C193.1,180.3,189.2,182.1,185.1,183.7z M229.7,161.3c-3.7,2.3-7.4,4.4-11.4,6.2c-0.4-0.8-5.5-7.5-4.5-8.4
				c2.9-2.6,6.6-5.6,9.9-8.8c1.5-1.5,2.6-1.9,3.8-1.2c0.8-1,2-1.1,4-0.2c4.3,1.9,8.7,3.4,12.4,4.8c1.3,0.5-1.1,8.5-1.2,9.4
				C238.2,162.8,234,162.1,229.7,161.3z M279.3,166.6c-4.3-0.1-8.6-0.3-13-1c0.1-0.9-0.6-9.3,0.8-9.5c3.9-0.6,8.6-1.1,13.1-2.1
				c2.1-0.4,3.2-0.1,3.8,1c1.2-0.4,2.3,0.2,3.4,1.9c2.5,4,5.5,7.6,7.8,10.8c0.8,1.1-5.6,6.6-6.1,7.3
				C285.7,172.5,282.5,169.6,279.3,166.6z M318.2,197.9c-3.6-2.4-7.1-5-10.4-7.8c0.6-0.7,4.5-8.1,5.8-7.5c3.6,1.6,7.8,3.7,12.2,5.3
				c2,0.8,2.8,1.6,2.7,2.9c1.3,0.3,1.8,1.4,1.8,3.5c0,4.7,0.5,9.4,0.8,13.3c0.1,1.4-8.2,2.5-9.1,2.8
				C320.4,206.2,319.2,202.1,318.2,197.9z M334,245.2c-1.7-4-3.3-8-4.5-12.2c0.8-0.3,8.2-4.4,8.9-3.2c2.1,3.3,4.5,7.3,7.4,11.1
				c1.3,1.7,1.5,2.9,0.6,3.9c0.9,0.9,0.8,2.1-0.3,3.9c-2.5,4-4.6,8.2-6.5,11.6c-0.7,1.2-8.3-2.3-9.2-2.5
				C331.3,253.4,332.6,249.3,334,245.2z M321.7,293.5c0.8-4.3,1.6-8.5,2.8-12.7c0.9,0.2,9.3,0.7,9.3,2.1c0,3.9-0.1,8.6,0.2,13.3
				c0.1,2.1-0.3,3.2-1.6,3.6c0.3,1.3-0.5,2.2-2.4,3.1c-4.2,2-8.3,4.4-11.8,6.2c-1.2,0.7-5.7-6.4-6.3-7.1
				C315,299,318.3,296.2,321.7,293.5z M285.2,327.6c2.9-3.2,5.9-6.3,9.3-9.2c0.6,0.7,7.4,5.6,6.6,6.8c-2.1,3.3-4.8,7.2-7,11.3
				c-1,1.9-2,2.5-3.3,2.2c-0.5,1.2-1.6,1.6-3.7,1.3c-4.6-0.7-9.4-0.8-13.3-1.1c-1.4-0.1-1.3-8.5-1.5-9.4
				C276.7,328.5,280.9,328,285.2,327.6z M238.9,310.8c1.8,0.2,4.1,1.3,7.2,3.1c1.3,0.8,2.1,3.4,2.2,5.2c0,0.7-2.6,2-4,2.1
				c-2.1,0.2-4.2,0.2-6.5,0.1c-2.2-0.4-4.2-0.9-6.3-1.5c-1.4-0.4-3.7-2.3-3.5-2.9c0.5-1.7,1.7-4.1,3.2-4.6
				C234.6,311.2,237.1,310.6,238.9,310.8z M206.2,297.3c1.4,1.1,2.7,3.3,4.4,6.5c0.7,1.4-0.1,4-1,5.5c-0.3,0.6-3.2,0.3-4.5-0.4
				c-1.9-1-3.7-2.2-5.5-3.4c-1.6-1.5-3.1-3.1-4.5-4.7c-1-1.1-1.9-3.9-1.4-4.3c1.3-1.2,3.7-2.5,5.2-2.1
				C202.4,295.4,204.8,296.2,206.2,297.3z M186,268.3c0.6,1.7,0.6,4.2,0.2,7.9c-0.1,1.5-2.2,3.3-3.8,4.1c-0.6,0.3-2.9-1.5-3.6-2.8
				c-1-1.9-1.9-3.8-2.8-5.8c-0.5-2.1-0.9-4.2-1.3-6.3c-0.2-1.5,0.5-4.3,1.2-4.4c1.8-0.3,4.5-0.1,5.5,1
				C183.9,264.6,185.5,266.6,186,268.3z M184.7,233c-0.4,1.7-1.8,3.9-4.1,6.7c-0.9,1.2-3.6,1.6-5.4,1.4c-0.7-0.1-1.6-2.9-1.5-4.3
				c0.1-2.1,0.4-4.2,0.8-6.4c0.7-2.1,1.5-4.1,2.4-6c0.6-1.3,2.8-3.4,3.4-3.1c1.7,0.7,3.8,2.3,4.1,3.8
				C185,228.7,185.1,231.3,184.7,233z M202.7,202.6c-1.3,1.2-3.6,2.2-7.1,3.5c-1.5,0.5-3.9-0.6-5.3-1.8c-0.5-0.4,0.2-3.2,1.1-4.4
				c1.3-1.7,2.7-3.3,4.1-5c1.8-1.4,3.5-2.6,5.2-3.8c1.3-0.8,4.1-1.3,4.5-0.8c1,1.5,2,4,1.4,5.4C205.2,199.1,204,201.3,202.7,202.6z
				 M234.3,186.7c-1.8,0.3-4.3-0.1-7.8-0.9c-1.5-0.4-2.9-2.7-3.5-4.4c-0.2-0.6,1.9-2.6,3.3-3.1c2-0.8,4-1.3,6.2-1.9
				c2.2-0.2,4.3-0.3,6.5-0.3c1.5,0,4.2,1.1,4.2,1.8c0,1.8-0.5,4.5-1.8,5.3C238.3,185.1,236.1,186.4,234.3,186.7z M269.5,190.4
				c-1.6-0.7-3.6-2.4-6.1-5c-1.1-1.1-1.1-3.8-0.6-5.6c0.2-0.6,3-1.2,4.5-0.8c2.1,0.5,4.1,1.1,6.2,1.7c2,1,3.8,2,5.6,3.2
				c1.3,0.8,2.9,3.2,2.6,3.8c-0.9,1.5-2.8,3.5-4.4,3.5C273.7,191.3,271.1,191.1,269.5,190.4z M297,212.6c-1-1.4-1.7-3.9-2.4-7.5
				c-0.3-1.5,1.2-3.8,2.5-5c0.5-0.4,3.2,0.7,4.2,1.7c1.5,1.5,2.9,3.1,4.3,4.8c1.1,1.9,2.1,3.8,3,5.7c0.6,1.3,0.7,4.3,0.2,4.6
				c-1.6,0.8-4.3,1.4-5.6,0.6C300.1,215.6,298,214.1,297,212.6z M308.2,246.1c-0.1-1.8,0.7-4.2,2-7.6c0.6-1.4,3-2.5,4.8-2.9
				c0.7-0.1,2.3,2.3,2.6,3.7c0.4,2.1,0.8,4.2,1.1,6.4c-0.1,2.2-0.3,4.3-0.6,6.4c-0.2,1.5-1.7,4-2.4,3.9c-1.8-0.2-4.3-1.1-5-2.5
				C309.2,250.3,308.3,247.9,308.2,246.1z M299.5,280.4c0.9-1.5,2.8-3.2,5.8-5.3c1.3-0.9,3.9-0.5,5.6,0.2c0.6,0.3,0.7,3.2,0.2,4.6
				c-0.8,2-1.6,3.9-2.6,5.9c-1.3,1.8-2.6,3.5-4,5.1c-1,1.1-3.6,2.4-4.1,2c-1.4-1.1-3-3.3-2.9-4.8
				C298.1,284.4,298.6,281.9,299.5,280.4z M273.7,304.5c1.6-0.8,4.1-1.1,7.8-1.3c1.5-0.1,3.6,1.7,4.6,3.2c0.4,0.5-1.1,3.1-2.3,4
				c-1.7,1.3-3.5,2.4-5.4,3.6c-2.1,0.8-4.1,1.6-6.1,2.2c-1.4,0.4-4.3,0.1-4.5-0.5c-0.6-1.7-0.8-4.4,0.2-5.6
				C270.3,307.1,272.1,305.3,273.7,304.5z M237.5,323.4c0.4,0,0.8,0,1.2,0.1c2.6,0.1,5.2,0.5,8,0.8c0.3,2.5,0.6,5,1,8.2
				c-4,0.6-7.7,1.3-11.4,1.8c-3.5-1.3-7-2.7-10.8-4.1c1.1-3,1.9-5.4,2.8-7.8c2.8,0.3,5.4,0.5,8,0.9
				C236.7,323.3,237.2,323.4,237.5,323.4z M198.3,307.2c0.3,0.2,0.7,0.4,1,0.7c2.1,1.5,4.1,3.2,6.3,5c-1.1,2.3-2.2,4.5-3.5,7.4
				c-3.7-1.6-7.2-3.1-10.5-4.7c-2.3-2.9-4.4-6.1-6.8-9.3c2.5-1.9,4.5-3.5,6.5-5c2.2,1.8,4.3,3.3,6.2,5.1
				C197.7,306.7,197.9,306.9,198.3,307.2z M174,272.3c0.2,0.4,0.3,0.7,0.5,1.1c1,2.4,1.7,4.9,2.6,7.6c-2.2,1.4-4.3,2.7-7,4.4
				c-2.2-3.4-4.4-6.5-6.3-9.6c-0.3-3.7-0.5-7.5-0.7-11.5c3.2-0.3,5.7-0.5,8.2-0.7c0.9,2.7,1.8,5.1,2.5,7.6
				C173.8,271.6,173.9,271.9,174,272.3z M172.4,229.9c-0.1,0.4-0.1,0.8-0.2,1.2c-0.5,2.5-1.2,5.1-1.9,7.8c-2.5,0-5-0.1-8.2-0.1
				c0-4-0.2-7.8-0.1-11.5c1.7-3.3,3.6-6.6,5.6-10.1c2.8,1.5,5,2.6,7.3,3.8c-0.7,2.7-1.3,5.3-2,7.8
				C172.7,229.1,172.5,229.5,172.4,229.9z M194,193.3c-0.3,0.3-0.5,0.6-0.8,0.9c-1.8,1.9-3.8,3.6-5.8,5.5c-2.1-1.4-4.2-2.8-6.8-4.5
				c2.1-3.4,4.1-6.7,6.1-9.8c3.2-1.8,6.6-3.5,10.1-5.5c1.6,2.8,2.8,4.9,4.1,7.2c-2.1,1.9-3.9,3.8-5.9,5.4
				C194.7,192.8,194.4,193,194,193.3z M232,174.2c-0.4,0.1-0.8,0.2-1.2,0.3c-2.5,0.6-5.1,1-7.9,1.5c-1-2.3-2-4.6-3.3-7.5
				c3.6-1.7,7-3.4,10.4-4.9c3.7,0.2,7.5,0.6,11.5,0.9c-0.2,3.2-0.3,5.7-0.4,8.2c-2.8,0.5-5.3,1.1-7.9,1.4
				C232.9,174.1,232.4,174.1,232,174.2z M274.3,178.7c-0.4-0.1-0.8-0.3-1.2-0.4c-2.4-0.9-4.8-1.9-7.4-3c0.4-2.5,0.8-5,1.3-8.1
				c4,0.5,7.7,1,11.4,1.5c3,2.2,6,4.5,9.2,7c-1.9,2.6-3.3,4.6-4.8,6.7c-2.6-1.1-5.1-2-7.4-3.1C275.1,179.1,274.7,178.9,274.3,178.7z
				 M307.5,205.3c-0.3-0.3-0.5-0.6-0.8-0.9c-1.6-2.1-3-4.2-4.6-6.6c1.7-1.9,3.3-3.8,5.5-6.1c3,2.6,6,5,8.8,7.4
				c1.3,3.5,2.6,7.1,4,10.8c-3,1.2-5.3,2.1-7.7,3c-1.6-2.3-3.2-4.4-4.5-6.6C307.9,206,307.7,205.7,307.5,205.3z M320.9,245.6
				c-0.1-0.4-0.1-0.8-0.1-1.2c-0.2-2.6-0.3-5.2-0.3-8c2.4-0.7,4.8-1.4,7.9-2.2c1.2,3.8,2.4,7.4,3.4,11c-0.7,3.6-1.7,7.3-2.5,11.2
				c-3.1-0.6-5.6-1.1-8.1-1.6c-0.1-2.8-0.3-5.4-0.2-8C320.9,246.5,320.9,246.1,320.9,245.6z M310.5,286.9c0.2-0.4,0.4-0.7,0.5-1.1
				c1.2-2.3,2.6-4.5,4-6.9c2.4,0.8,4.8,1.5,7.9,2.4c-1.1,3.9-2,7.5-3.1,11.1c-2.6,2.7-5.3,5.3-8.2,8.1c-2.3-2.2-4.1-4-5.9-5.7
				c1.5-2.4,2.7-4.7,4.1-6.9C310,287.5,310.2,287.2,310.5,286.9z M279.4,315.9c0.3-0.2,0.7-0.4,1-0.6c2.3-1.3,4.6-2.4,7.1-3.7
				c1.7,1.9,3.2,3.9,5.3,6.3c-3,2.7-5.8,5.2-8.6,7.6c-3.6,0.8-7.3,1.5-11.3,2.4c-0.7-3.1-1.3-5.5-1.9-8c2.5-1.3,4.8-2.5,7.2-3.5
				C278.6,316.2,279,316,279.4,315.9z M234.3,353.9c0.2,0.2,0.3,0.4,0.5,0.6c0.7,0.9,0.9,1.4,0.8,1.8c-0.1,0.4-0.7,0.8-1.7,1.4
				c-0.8-0.8-1.3-1.3-1.3-1.7c0-0.4,0.3-0.8,1.2-1.6C233.9,354.3,234.1,354.1,234.3,353.9z M179.1,331.1c0,0.3,0,0.5,0,0.8
				c0.1,1.1,0,1.6-0.3,1.9c-0.3,0.3-1,0.3-2.2,0.3c-0.3-1.1-0.4-1.8-0.2-2.2c0.2-0.4,0.7-0.5,1.8-0.7
				C178.5,331.2,178.8,331.2,179.1,331.1z M144.9,282c-0.1,0.2-0.3,0.5-0.4,0.7c-0.5,0.9-0.8,1.4-1.3,1.4c-0.5,0.1-1-0.3-2-0.9
				c0.4-1.1,0.6-1.7,1-1.9c0.4-0.2,0.9,0,1.9,0.4C144.4,281.8,144.7,281.9,144.9,282z M142.7,222.3c-0.2,0.1-0.5,0.3-0.7,0.4
				c-0.9,0.5-1.5,0.7-1.9,0.5c-0.4-0.2-0.7-0.8-1.2-1.8c0.9-0.7,1.4-1.1,1.9-1.1c0.4,0,0.8,0.4,1.4,1.4
				C142.4,221.9,142.5,222.1,142.7,222.3z M173.2,170.9c-0.3,0-0.5,0-0.8-0.1c-1.1-0.1-1.6-0.2-1.9-0.6c-0.3-0.4-0.1-1,0-2.2
				c1.2-0.1,1.8-0.2,2.2,0.1c0.3,0.3,0.4,0.8,0.4,1.9C173.1,170.4,173.1,170.6,173.2,170.9z M226.6,144c-0.2-0.2-0.4-0.3-0.6-0.5
				c-0.9-0.6-1.3-1-1.3-1.5c0-0.5,0.4-0.9,1.2-1.8c1,0.5,1.6,0.8,1.8,1.3c0.1,0.4-0.1,0.9-0.7,1.8
				C226.8,143.6,226.7,143.8,226.6,144z M286,150.4c-0.1-0.2-0.2-0.5-0.3-0.7c-0.4-1-0.5-1.6-0.3-1.9c0.2-0.4,0.9-0.6,2-0.9
				c0.6,1,0.9,1.6,0.8,2c-0.1,0.4-0.6,0.7-1.5,1.2C286.5,150.1,286.3,150.2,286,150.4z M332.6,187.8c0.1-0.3,0.1-0.5,0.2-0.8
				c0.2-1.1,0.4-1.6,0.8-1.8c0.4-0.2,1.1,0,2.2,0.3c-0.1,1.1-0.1,1.8-0.4,2.1c-0.3,0.3-0.8,0.3-1.9,0.2
				C333.1,187.9,332.9,187.9,332.6,187.8z M351.5,244.5c0.2-0.2,0.4-0.4,0.6-0.5c0.8-0.8,1.2-1.1,1.6-1c0.5,0,0.9,0.6,1.6,1.4
				c-0.7,0.9-1.1,1.5-1.5,1.6c-0.4,0.1-0.9-0.2-1.7-0.9C352,244.9,351.8,244.7,351.5,244.5z M336.8,302.5c0.3-0.1,0.5-0.1,0.8-0.2
				c1.1-0.2,1.6-0.3,1.9,0c0.4,0.3,0.4,1,0.6,2.1c-1.1,0.4-1.7,0.7-2.1,0.5c-0.4-0.2-0.7-0.7-0.9-1.7
				C337,303,336.9,302.7,336.8,302.5z M293.1,343.2c0.2,0.1,0.5,0.2,0.7,0.3c1,0.4,1.5,0.7,1.6,1.1c0.1,0.4-0.2,1-0.7,2.1
				c-1.1-0.3-1.8-0.3-2-0.7c-0.2-0.3-0.2-0.9,0.1-1.9C293,343.8,293.1,343.5,293.1,343.2z M239.9,301.6c0.7-1.1,1.5-2.3,2.3-3.4
				c1,0.3,1.7,0.4,2.3,0.6c10.1,3.2,10.1,3.2,5,13.5c-2.1-0.7-4.3-1.3-6.4-2.2c-1.3-0.5-2.5-1.1-3.9-1.7c-1.5,0.3-2.8,0.6-4.2,0.8
				c-2.3,0.4-4.5,0.5-6.7,0.8c-2.8-11.2-2.8-11.2,7.7-12.2c0.7-0.1,1.3-0.1,2.4-0.1C238.9,299.1,239.4,300.4,239.9,301.6z
				 M212,290.1c1.2-0.5,2.5-1.1,3.8-1.7c0.7,0.8,1.2,1.3,1.6,1.8c6.7,8.1,6.7,8.1-3.1,14.1c-1.4-1.7-2.9-3.4-4.2-5.3
				c-0.8-1.1-1.5-2.3-2.3-3.5c-1.4-0.5-2.7-1-4-1.5c-2.1-0.9-4.1-2-6.1-3c3.7-10.9,3.7-10.9,13.1-6c0.6,0.3,1.2,0.7,2.1,1.2
				C212.6,287.5,212.3,288.8,212,290.1z M194.8,265.4c1.3,0.2,2.7,0.4,4,0.6c0.2,1,0.3,1.7,0.4,2.4c1.3,10.5,1.3,10.5-10.2,10.2
				c-0.2-2.2-0.6-4.4-0.7-6.7c-0.1-1.4-0.1-2.7-0.1-4.2c-0.9-1.2-1.8-2.3-2.5-3.4c-1.3-1.9-2.4-3.9-3.5-5.8c9-7.2,9-7.2,14.3,2
				c0.3,0.6,0.6,1.2,1.1,2.1C196.7,263.4,195.7,264.4,194.8,265.4z M193.7,235.3c1,0.9,2,1.8,3.1,2.7c-0.4,1-0.7,1.6-0.9,2.2
				c-4.6,9.5-4.6,9.5-14.1,3c1-1.9,1.9-4,3.1-6c0.7-1.2,1.4-2.4,2.2-3.6c-0.1-1.5-0.2-2.9-0.3-4.2c0-2.3,0.1-4.6,0.2-6.7
				c11.4-1.2,11.4-1.2,10.9,9.4c0,0.7-0.1,1.3-0.2,2.4C196.3,234.7,195,235,193.7,235.3z M209,209.3c0.4,1.3,0.7,2.6,1.1,3.9
				c-0.9,0.6-1.4,1-2,1.3c-9,5.5-9,5.5-13.5-5.1c1.9-1.1,3.8-2.4,5.8-3.4c1.2-0.6,2.5-1.2,3.8-1.8c0.7-1.3,1.4-2.5,2.1-3.7
				c1.2-1.9,2.6-3.8,3.8-5.6c10.2,5.2,10.2,5.2,4.1,13.8c-0.4,0.6-0.8,1.1-1.5,1.9C211.6,210.3,210.3,209.8,209,209.3z M236,195.8
				c-0.4,1.3-0.8,2.6-1.2,3.9c-1.1,0-1.7,0.1-2.4,0.1c-10.6-0.2-10.6-0.2-8.6-11.5c2.2,0.1,4.5,0.1,6.8,0.3c1.4,0.1,2.7,0.3,4.2,0.6
				c1.3-0.7,2.5-1.4,3.7-2c2.1-1,4.2-1.8,6.2-2.6c5.8,9.9,5.8,9.9-4,13.8c-0.6,0.3-1.3,0.4-2.3,0.8C237.6,198,236.8,196.9,236,195.8
				z M265.9,199c-1,0.9-2.1,1.8-3.1,2.7c-0.9-0.5-1.5-0.9-2-1.3c-8.8-5.9-8.8-5.9-1-14.4c1.8,1.3,3.7,2.5,5.5,3.9
				c1.1,0.8,2.1,1.8,3.2,2.8c1.5,0.1,2.9,0.2,4.2,0.3c2.3,0.3,4.5,0.8,6.7,1.2c-0.5,11.5-0.5,11.5-10.9,9.5
				c-0.7-0.1-1.3-0.3-2.3-0.6C266.1,201.7,266,200.3,265.9,199z M289.4,217.9c-1.3,0.2-2.7,0.4-4.1,0.6c-0.5-0.9-0.8-1.5-1-2.2
				c-4.2-9.7-4.2-9.7,6.9-12.6c0.8,2,1.8,4.1,2.5,6.3c0.5,1.3,0.8,2.6,1.2,4c1.2,0.9,2.3,1.7,3.4,2.6c1.8,1.5,3.4,3.1,5,4.6
				c-6.6,9.4-6.6,9.4-14.2,2.1c-0.5-0.5-0.9-1-1.7-1.7C288.1,220.3,288.8,219.1,289.4,217.9z M299,246.5c-1.2-0.6-2.4-1.1-3.7-1.7
				c0.1-1,0.2-1.7,0.3-2.4c1.7-10.4,1.7-10.4,12.6-6.9c-0.4,2.1-0.7,4.4-1.2,6.7c-0.3,1.3-0.7,2.7-1.1,4.1c0.5,1.4,1,2.7,1.4,4
				c0.7,2.2,1.2,4.4,1.7,6.6c-10.7,4.3-10.7,4.3-13.1-5.9c-0.2-0.7-0.3-1.3-0.5-2.4C296.6,247.8,297.8,247.1,299,246.5z
				 M291.5,275.7c-0.7-1.1-1.4-2.3-2.2-3.5c0.7-0.8,1.1-1.3,1.5-1.8c7.1-7.8,7.1-7.8,14.4,1c-1.5,1.6-3,3.3-4.6,4.9
				c-1,0.9-2,1.8-3.2,2.8c-0.3,1.5-0.6,2.8-0.9,4.1c-0.6,2.2-1.4,4.4-2.1,6.4c-11.3-2.1-11.3-2.1-7.8-12.1c0.2-0.6,0.5-1.2,0.9-2.2
				C288.9,275.5,290.2,275.6,291.5,275.7z M269.5,296.2c0-1.3,0-2.7,0-4.1c1-0.3,1.6-0.5,2.3-0.7c10.2-2.8,10.2-2.8,11.5,8.7
				c-2.1,0.5-4.3,1.2-6.6,1.6c-1.4,0.3-2.7,0.4-4.2,0.7c-1,1.1-2,2-3,3c-1.7,1.5-3.5,2.9-5.2,4.3c-8.4-7.9-8.4-7.9-0.1-14.4
				c0.5-0.4,1.1-0.8,1.9-1.4C267.3,294.6,268.4,295.4,269.5,296.2z M241.7,284.4c1.7,0.8,3.8,2,4.7,3.1c1,1.3,0.4,0.8-0.5,1.8
				c-1.5,1.6-3,3.3-4.5,4.8c-0.2,0.2-0.5,0.5-0.7,0.8c-0.2-0.3-0.4-0.6-0.5-0.9c-1.2-1.9-2.3-3.8-3.4-5.7c-0.7-1.2-1.4-0.9-0.1-1.9
				C237.6,285.5,239.9,284.8,241.7,284.4z M222.8,276.6c1,1.6,2.1,3.7,2.2,5.1c0.2,1.6-0.1,0.9-1.4,1.3c-2.2,0.5-4.3,1.1-6.4,1.6
				c-0.3,0.1-0.7,0.2-1,0.3c0-0.4,0-0.7,0-1c0-2.2,0.2-4.4,0.2-6.6c0-1.4-0.7-1.5,0.9-1.7C218.8,275.4,221.1,276,222.8,276.6z
				 M211.2,259.9c0,1.9-0.2,4.2-0.9,5.5c-0.8,1.4-0.6,0.8-1.9,0.3c-2.1-0.8-4.2-1.4-6.3-2.1c-0.3-0.1-0.6-0.2-1-0.3
				c0.2-0.3,0.4-0.6,0.6-0.8c1.2-1.9,2.5-3.6,3.8-5.5c0.8-1.2,0.2-1.6,1.7-0.9C208.5,256.6,210.1,258.4,211.2,259.9z M210.4,239.5
				c-1,1.6-2.5,3.5-3.7,4.2c-1.4,0.8-0.9,0.3-1.8-0.8c-1.3-1.7-2.8-3.4-4.1-5.2c-0.2-0.3-0.4-0.5-0.7-0.8c0.3-0.1,0.7-0.3,1-0.4
				c2-0.9,4.1-1.7,6.1-2.6c1.3-0.6,1.1-1.2,1.9,0.1C209.9,235.3,210.3,237.7,210.4,239.5z M220.8,222c-1.7,0.8-4,1.6-5.4,1.5
				c-1.6-0.1-0.9-0.2-1-1.6c-0.2-2.2-0.5-4.4-0.7-6.6c0-0.3-0.1-0.7-0.1-1c0.4,0.1,0.7,0.1,1,0.2c2.2,0.3,4.4,0.8,6.5,1.1
				c1.4,0.2,1.6-0.5,1.5,1.2C222.7,218.1,221.7,220.3,220.8,222z M239.1,212.8c-1.8-0.3-4.2-0.8-5.3-1.7c-1.3-0.9-0.7-0.7,0-1.9
				c1-1.9,1.9-4,3-5.9c0.2-0.3,0.3-0.6,0.5-0.9c0.3,0.3,0.5,0.5,0.8,0.7c1.7,1.4,3.2,3,4.9,4.5c1,0.9,1.6,0.4,0.7,1.8
				C242.7,210.6,240.7,211.9,239.1,212.8z M259.3,215c-1.4-1.2-3.1-3-3.6-4.3c-0.6-1.5-0.2-0.9,1-1.6c1.9-1.1,3.8-2.3,5.7-3.4
				c0.3-0.2,0.6-0.3,0.9-0.5c0.1,0.4,0.2,0.7,0.3,1c0.6,2.1,1.1,4.3,1.7,6.4c0.4,1.3,1.1,1.2-0.4,1.9
				C263.6,215.1,261.2,215.1,259.3,215z M275.2,227.8c-0.5-1.8-1-4.2-0.7-5.6c0.3-1.6,0.4-0.9,1.8-0.8c2.2,0.1,4.4,0.1,6.6,0.3
				c0.3,0,0.7,0,1,0c-0.1,0.3-0.2,0.7-0.3,1c-0.6,2.1-1.4,4.2-2,6.3c-0.4,1.3,0.2,1.6-1.4,1.4C278.8,230.1,276.7,228.9,275.2,227.8z
				 M281.7,247.1c0.5-1.8,1.4-4,2.4-5.1c1.1-1.2,0.8-0.6,1.9,0.3c1.8,1.3,3.7,2.5,5.4,3.8c0.3,0.2,0.5,0.4,0.8,0.6
				c-0.3,0.2-0.6,0.4-0.8,0.7c-1.7,1.4-3.5,2.8-5.1,4.2c-1.1,0.9-0.7,1.5-1.9,0.4C283.4,251,282.4,248.8,281.7,247.1z M276.7,266.9
				c1.4-1.2,3.4-2.6,4.8-3c1.6-0.4,0.9,0,1.4,1.3c0.8,2,1.7,4.1,2.5,6.1c0.1,0.3,0.3,0.6,0.4,0.9c-0.4,0-0.7,0.1-1,0.1
				c-2.2,0.3-4.4,0.5-6.6,0.8c-1.4,0.2-1.4,0.9-1.8-0.7C276,271.1,276.3,268.7,276.7,266.9z M261.8,280.8c1.8-0.3,4.3-0.4,5.6,0.1
				c1.5,0.5,0.8,0.5,0.5,1.9c-0.4,2.2-0.8,4.4-1.2,6.5c-0.1,0.3-0.1,0.7-0.2,1c-0.3-0.2-0.6-0.3-0.9-0.4c-2-0.9-4-2-6-2.9
				c-1.3-0.6-1.6,0-1.2-1.5C258.9,283.9,260.5,282.1,261.8,280.8z M233.6,360.1c1.3-0.7,2.6-1.4,3.9-2.2c0.9,0.7,9,8.9,9.2,8.7
				c-3.1,3.8-6.2,7.5-9.3,11.3c-1.7-1.3-3.5-2.5-5.2-3.8c-2,0.9-4,1.7-5.9,2.6c-2.3-4.3-4.5-8.7-6.8-13c0.2,0.3,9.8-6,10.8-6.5
				C231.4,358.1,232.5,359.1,233.6,360.1z M175.2,335.9c1.5,0.1,3,0.2,4.5,0.3c0.4,1.1,2.7,12.4,3.1,12.3c-4.7,1.5-9.3,2.9-14,4.4
				c-0.8-2-1.6-4-2.4-6c-2.2-0.3-4.3-0.7-6.4-1c0.4-4.9,0.9-9.8,1.3-14.6c0,0.4,11.5,0.3,12.6,0.4
				C174.3,333,174.8,334.5,175.2,335.9z M139.1,284c1.2,0.9,2.4,1.8,3.6,2.7c-0.3,1.1-4.4,11.9-4,12c-4.7-1.3-9.4-2.5-14.1-3.8
				c0.4-2.1,0.8-4.2,1.3-6.3c-1.6-1.4-3.2-2.9-4.8-4.3c3-3.9,6-7.7,9-11.6c-0.2,0.3,9.5,6.4,10.4,7.1
				C139.9,281.1,139.5,282.6,139.1,284z M136.7,220.8c0.6,1.4,1.1,2.8,1.7,4.2c-0.8,0.8-10.1,7.6-9.9,7.9c-3.3-3.6-6.6-7.2-9.9-10.9
				c1.5-1.5,3-3.1,4.5-4.7c-0.6-2.1-1.1-4.2-1.7-6.2c4.6-1.6,9.2-3.2,13.8-4.9c-0.3,0.1,4.5,10.6,4.9,11.6
				C139,218.8,137.9,219.8,136.7,220.8z M169,166.4c-0.3,1.5-0.7,2.9-0.9,4.4c-1.1,0.2-12.6,0.9-12.6,1.3c-0.8-4.8-1.6-9.6-2.4-14.5
				c2.1-0.5,4.2-1,6.3-1.5c0.6-2.1,1.3-4.1,1.9-6.2c4.8,1.1,9.5,2.3,14.3,3.4c-0.3-0.1-1.9,11.4-2.1,12.5
				C171.9,165.9,170.4,166.2,169,166.4z M225.5,138c-1,1.1-2.1,2.1-3.1,3.2c-1-0.4-11.1-6.1-11.3-5.7c1.9-4.5,3.9-9,5.8-13.5
				c2,0.7,4,1.4,6.1,2.2c1.7-1.4,3.3-2.8,5-4.2c3.4,3.5,6.8,7.1,10.2,10.6c-0.2-0.3-7.7,8.5-8.5,9.3
				C228.2,139.2,226.8,138.6,225.5,138z M288.4,144.7c-1.5,0.3-2.9,0.6-4.4,1c-0.7-0.9-6.1-11.1-6.4-10.9c4-2.7,8.1-5.5,12.2-8.2
				c1.3,1.7,2.6,3.4,4,5.1c2.2-0.3,4.3-0.5,6.4-0.8c0.9,4.8,1.9,9.6,2.8,14.4c-0.1-0.3-11.1,3-12.2,3.2
				C290,147.2,289.2,145.9,288.4,144.7z M337.7,184.3c-1.4-0.5-2.8-1-4.2-1.5c0-1.1,0.9-12.6,0.5-12.6c4.9-0.1,9.8-0.2,14.7-0.3
				c0.2,2.1,0.4,4.3,0.6,6.4c2,0.9,3.9,1.9,5.8,2.8c-1.8,4.6-3.6,9.1-5.4,13.6c0.1-0.3-10.9-3.5-12-3.9
				C337.7,187.3,337.6,185.8,337.7,184.3z M357.7,244.3c-0.9-1.2-1.8-2.4-2.8-3.5c0.6-1,7.6-10.2,7.3-10.4c4.1,2.5,8.3,5.1,12.5,7.7
				c-1,1.9-2,3.8-3,5.7c1.1,1.9,2.3,3.7,3.4,5.5c-4,2.9-8,5.7-11.9,8.6c0.3-0.2-7.3-8.8-8-9.8C356.1,246.8,356.9,245.6,357.7,244.3z
				 M342.1,305.6c-0.1-1.5-0.2-3-0.4-4.5c1-0.5,11.8-4.5,11.7-4.8c2.1,4.4,4.3,8.8,6.4,13.2c-1.8,1-3.7,2.1-5.6,3.2
				c0,2.2-0.1,4.3-0.1,6.5c-4.9,0.3-9.8,0.5-14.7,0.8c0.4,0-1.4-11.4-1.4-12.6C339.4,306.8,340.7,306.2,342.1,305.6z M295.9,348.8
				c0.7-1.3,1.4-2.6,2.1-4c1.1,0.1,12.4,2.7,12.4,2.3c-0.6,4.8-1.2,9.7-1.8,14.6c-2.1-0.1-4.3-0.2-6.5-0.4c-1.2,1.8-2.4,3.6-3.6,5.4
				c-4.3-2.4-8.5-4.9-12.7-7.3c0.3,0.2,5-10.4,5.6-11.4C292.9,348.3,294.4,348.5,295.9,348.8z M249.6,368.2c0.2-0.2,0.5-0.3,0.7-0.4
				c1.7-0.8,3.9,0.8,5.7,1.2c3.3,0.8,6.5,2.3,9.8,3.2c-1,4.7-2.1,9.2-3.4,15.1c-7.4-2.5-14.7-4.9-23.2-7.8
				C242.8,375.9,245.7,371.6,249.6,368.2z M313.7,347c0.1-0.3,0.2-0.5,0.3-0.7c1.1-1.6,3.7-1.5,5.5-2.1c3.3-1.1,6.7-1.5,10-2.6
				c1.6,4.5,3.2,8.9,5.3,14.6c-7.6,1.9-15,3.8-23.8,6C312.1,357.2,312.3,351.9,313.7,347z M356.1,294.5c-0.1-0.3-0.1-0.5-0.1-0.8
				c0-1.9,2.4-3.2,3.5-4.7c2.2-2.7,4.8-4.9,7-7.6c3.8,2.9,7.5,5.7,12.3,9.4c-5.3,5.7-10.6,11.3-16.7,17.9
				C360.4,303.9,357.7,299.4,356.1,294.5z M363.5,227.4c-0.2-0.2-0.4-0.4-0.5-0.6c-1-1.6,0.2-4,0.4-5.9c0.3-3.4,1.4-6.7,1.8-10.2
				c4.8,0.4,9.4,0.8,15.5,1.2c-1.4,7.7-2.8,15.2-4.4,24.1C372.1,233,367.4,230.7,363.5,227.4z M333.4,167c-0.3,0-0.5-0.1-0.8-0.2
				c-1.7-0.8-2-3.5-2.8-5.1c-1.6-3.1-2.5-6.4-4-9.5c4.2-2.3,8.3-4.5,13.6-7.3c3,7.2,5.9,14.3,9.4,22.7
				C343.7,167,338.5,167.6,333.4,167z M275.4,132.4c-0.3,0.1-0.5,0.2-0.8,0.2c-1.9,0.2-3.5-1.9-5.1-2.8c-3-1.7-5.6-4.1-8.5-5.8
				c2.3-4.2,4.6-8.3,7.6-13.5c6.4,4.5,12.7,8.8,20.1,14C284.1,126.9,280,130.2,275.4,132.4z M207.9,134.7c-0.2,0.3-0.3,0.4-0.5,0.6
				c-1.4,1.2-4,0.4-5.8,0.4c-3.5,0.2-6.9-0.4-10.3-0.3c-0.3-4.8-0.6-9.4-1-15.5c7.8,0.3,15.5,0.6,24.5,0.9
				C212.2,125.3,210.6,130.3,207.9,134.7z M152.4,173.1c0,0.3,0,0.6-0.1,0.8c-0.6,1.8-3.2,2.4-4.7,3.5c-2.8,2-6,3.4-8.8,5.3
				c-2.8-3.8-5.6-7.6-9.2-12.5c6.7-4,13.3-7.9,21.1-12.5C151,162.9,152.3,167.9,152.4,173.1z M126.4,235.4c0.2,0.3,0.3,0.5,0.3,0.8
				c0.5,1.8-1.3,3.8-2,5.5c-1.3,3.2-3.2,6.1-4.6,9.3c-4.5-1.7-8.8-3.4-14.5-5.6c3.5-7,7-13.8,11-21.9
				C119.7,227.6,123.6,231.1,126.4,235.4z M138.3,301.9c0.3,0.1,0.5,0.3,0.7,0.4c1.4,1.3,0.9,3.9,1.3,5.7c0.6,3.4,0.5,6.9,1.2,10.3
				c-4.7,1-9.3,1.9-15.2,3.2c-0.8-7.7-1.6-15.4-2.6-24.4C128.4,298.9,133.6,299.8,138.3,301.9z M184.2,351.4c0.3,0,0.6,0,0.8,0
				c1.9,0.3,2.9,2.8,4.1,4.1c2.4,2.5,4.2,5.5,6.5,8c-3.4,3.4-6.7,6.6-11.1,10.9c-4.9-6.1-9.7-12.1-15.3-19.1
				C174.3,354.2,179.1,352.2,184.2,351.4z M224.2,377.9c-9,1-16.6,1.9-24.4,2.7c-0.1-6.1-0.1-10.7-0.2-15.5c3.4-0.1,6.8-1,10.3-1.1
				c1.9-0.1,4.3-1.1,5.9,0c0.2,0.2,0.4,0.3,0.6,0.6C219.4,368.8,221.4,373.6,224.2,377.9z M297.6,368.9c-7,5.7-13,10.5-19,15.5
				c-3.3-5.1-5.9-9-8.5-13c2.8-2,5.2-4.5,8-6.4c1.5-1.1,3-3.3,4.9-3.2c0.3,0,0.5,0.1,0.8,0.2C288.6,363.8,292.9,366.8,297.6,368.9z
				 M354.5,321.6c-2.8,8.6-5.2,15.9-7.7,23.3c-5.5-2.4-9.8-4.4-14.2-6.3c1.3-3.2,2-6.6,3.3-9.8c0.7-1.7,0.8-4.4,2.4-5.3
				c0.2-0.1,0.5-0.2,0.8-0.3C344.2,322.2,349.4,322.4,354.5,321.6z M376.7,251.1c2.3,8.7,4.2,16.2,6.2,23.7
				c-6,0.9-10.6,1.7-15.3,2.4c-0.6-3.4-1.9-6.6-2.5-10c-0.3-1.8-1.7-4.1-0.8-5.8c0.1-0.2,0.3-0.4,0.5-0.7
				C368.4,257.2,372.9,254.5,376.7,251.1z M357.4,179.7c6.6,6.1,12.3,11.3,18,16.6c-4.5,4-8,7.1-11.6,10.3c-2.4-2.5-5.2-4.5-7.5-7
				c-1.3-1.4-3.7-2.5-3.9-4.5c0-0.2,0-0.5,0.1-0.8C353.6,189.3,356,184.7,357.4,179.7z M302.5,130.2c8.9,1.6,16.5,2.9,24.2,4.3
				c-1.6,5.8-2.9,10.3-4.2,14.9c-3.3-0.8-6.8-1-10.1-1.8c-1.8-0.5-4.5-0.2-5.6-1.7c-0.2-0.2-0.3-0.4-0.4-0.7
				C304.5,140.3,304,135.1,302.5,130.2z M229.5,118.2c8.3-3.5,15.4-6.5,22.6-9.5c1.8,5.8,3.1,10.3,4.5,14.8
				c-3.3,1.1-6.3,2.8-9.5,3.9c-1.8,0.6-3.8,2.3-5.6,1.7c-0.2-0.1-0.5-0.2-0.7-0.4C236.7,125.6,233.4,121.5,229.5,118.2z
				 M161.6,147.5c5.1-7.4,9.4-13.8,13.9-20.2c4.6,3.9,8.2,7,11.8,10c-2.1,2.7-3.7,5.8-5.9,8.4c-1.2,1.5-2,4-3.9,4.4
				c-0.2,0.1-0.5,0.1-0.8,0.1C171.6,149.9,166.7,148.2,161.6,147.5z M120.4,208.9c0.3-9,0.5-16.7,0.8-24.5c6,0.8,10.6,1.4,15.4,2
				c-0.3,3.4,0,6.9-0.4,10.3c-0.2,1.9,0.5,4.4-0.8,5.8c-0.2,0.2-0.4,0.3-0.7,0.5C130.1,205.4,125,206.7,120.4,208.9z M118.9,282.8
				c-4.6-7.7-8.6-14.3-12.6-21c5.5-2.6,9.7-4.6,14-6.6c1.6,3.1,3.7,5.8,5.2,8.9c0.8,1.7,2.8,3.5,2.4,5.3c-0.1,0.3-0.1,0.5-0.3,0.8
				C125.2,274.7,121.6,278.5,118.9,282.8z M157.6,345.8c-8.1-4-15-7.4-22-10.9c3.2-5.1,5.7-9.1,8.2-13.1c3,1.7,6.2,2.9,9.2,4.6
				c1.6,1,4.2,1.4,4.9,3.2c0.1,0.3,0.2,0.5,0.2,0.8C158.5,335.6,157.5,340.7,157.6,345.8z M254.9,300.3c-0.3-0.1-0.7-0.3-0.9-0.3
				c-2-0.7-4.3-0.9-6.1-2c-1.4-0.8-2.4-1.9-4-2.6c3-2,5.2-3.5,7.3-5c0.5-0.4,1.1-0.9,1.6-1.3c0.6,0.3,1.3,0.5,1.9,0.7
				c2.5,0.7,5.1,1.3,8.6,2.1c-1.2,1.2-1.8,2.5-2.8,3.8c-1.3,1.6-3.4,2.7-5,4C255.5,299.9,255.2,300.1,254.9,300.3z M225.4,297.2
				c-0.2-0.3-0.4-0.6-0.6-0.8c-1.3-1.6-3.1-3.1-4-4.9c-0.7-1.4-1-2.9-1.9-4.3c3.6-0.1,6.2-0.1,8.9-0.3c0.7-0.1,1.3-0.2,2-0.3
				c0.4,0.6,0.8,1.1,1.3,1.6c1.7,2,3.6,3.8,6.1,6.4c-1.7,0.4-2.9,1.2-4.4,1.7c-2,0.7-4.3,0.4-6.4,0.7
				C226.1,297.1,225.7,297.1,225.4,297.2z M202.2,278.6c0-0.3-0.1-0.7-0.1-1c-0.2-2-1-4.3-0.7-6.3c0.2-1.6,0.7-2.9,0.7-4.6
				c3.1,1.9,5.3,3.3,7.6,4.5c0.6,0.3,1.2,0.6,1.9,0.9c0,0.7,0.1,1.3,0.2,2c0.4,2.6,1,5.1,1.6,8.7c-1.6-0.6-3-0.6-4.6-1
				c-2-0.5-3.9-2-5.7-2.9C202.9,278.9,202.6,278.7,202.2,278.6z M192.8,250.4c0.2-0.3,0.3-0.6,0.5-0.9c0.9-1.8,1.5-4.1,2.8-5.7
				c1-1.3,2.2-2.1,3.1-3.5c1.6,3.3,2.7,5.6,3.9,8c0.3,0.6,0.7,1.2,1.1,1.8c-0.3,0.6-0.7,1.2-0.9,1.8c-1.1,2.4-2,4.9-3.3,8.2
				c-1-1.3-2.3-2.1-3.4-3.3c-1.4-1.5-2.2-3.7-3.2-5.5C193.2,251,193,250.7,192.8,250.4z M200.1,221.6c0.3-0.2,0.6-0.3,0.8-0.5
				c1.8-1,3.5-2.6,5.5-3.3c1.5-0.5,3-0.6,4.5-1.3c-0.4,3.6-0.8,6.2-1,8.8c-0.1,0.7-0.1,1.4-0.1,2c-0.6,0.3-1.2,0.7-1.8,1
				c-2.2,1.4-4.3,3-7.2,5.1c-0.1-1.7-0.7-3-1-4.6c-0.4-2,0.2-4.3,0.3-6.4C200.1,222.3,200.1,221.9,200.1,221.6z M221.9,201.3
				c0.4,0,0.7,0,1,0.1c2,0.1,4.4-0.3,6.4,0.2c1.6,0.4,2.8,1.1,4.5,1.3c-2.3,2.8-4,4.8-5.6,6.9c-0.4,0.6-0.8,1.1-1.2,1.7
				c-0.7-0.1-1.4-0.1-2-0.1c-2.6,0-5.2,0.2-8.9,0.4c0.8-1.5,1-2.9,1.6-4.4c0.8-1.9,2.5-3.5,3.7-5.2
				C221.5,201.9,221.7,201.6,221.9,201.3z M251.1,196c0.3,0.2,0.6,0.4,0.8,0.6c1.7,1.2,3.9,2.1,5.3,3.6c1.1,1.2,1.8,2.5,3,3.6
				c-3.4,1.1-6,1.9-8.4,2.8c-0.6,0.2-1.3,0.5-1.9,0.8c-0.5-0.4-1.1-0.8-1.7-1.2c-2.2-1.4-4.5-2.7-7.6-4.5c1.5-0.8,2.4-1.9,3.7-2.9
				c1.7-1.2,4-1.6,5.9-2.4C250.5,196.3,250.8,196.1,251.1,196z M278.6,207.3c0.1,0.3,0.3,0.7,0.4,0.9c0.8,1.9,2.1,3.8,2.5,5.9
				c0.3,1.6,0.2,3,0.6,4.7c-3.5-0.9-6-1.7-8.6-2.2c-0.7-0.1-1.3-0.3-2-0.3c-0.2-0.6-0.5-1.3-0.8-1.9c-1.1-2.4-2.4-4.7-4-7.9
				c1.7,0.1,3.1-0.3,4.7-0.4c2.1-0.1,4.2,0.8,6.2,1.2C277.9,207.2,278.2,207.3,278.6,207.3z M295.6,231.7c-0.1,0.3-0.2,0.7-0.2,0.9
				c-0.4,2-0.3,4.4-1.1,6.3c-0.6,1.5-1.5,2.6-2,4.3c-2.5-2.7-4.2-4.7-6-6.5c-0.5-0.5-1-0.9-1.5-1.4c0.2-0.7,0.3-1.4,0.4-2
				c0.4-2.6,0.5-5.2,0.9-8.8c1.4,1,2.8,1.4,4.1,2.2c1.8,1,3.1,3,4.7,4.4C295,231.3,295.3,231.5,295.6,231.7z M296.6,261.4
				c-0.2,0.3-0.5,0.5-0.7,0.7c-1.4,1.5-2.6,3.5-4.3,4.7c-1.3,0.9-2.7,1.4-4,2.5c-0.6-3.6-1-6.2-1.5-8.7c-0.1-0.7-0.3-1.3-0.5-2
				c0.5-0.5,1-1,1.4-1.5c1.7-2,3.3-4.1,5.5-7c0.6,1.6,1.6,2.7,2.3,4.1c0.9,1.8,1,4.2,1.5,6.2C296.4,260.7,296.6,261.1,296.6,261.4z
				 M281.5,287c-0.3,0.1-0.7,0.2-0.9,0.2c-2,0.5-4.1,1.6-6.2,1.6c-1.6,0.1-3-0.3-4.7,0c1.4-3.3,2.5-5.7,3.4-8.2
				c0.2-0.6,0.4-1.3,0.6-1.9c0.7-0.1,1.4-0.3,2-0.5c2.5-0.8,5-1.7,8.4-2.9c-0.3,1.7-0.1,3.1-0.3,4.7c-0.2,2.1-1.4,4.1-2,6
				C281.7,286.3,281.6,286.6,281.5,287z M231.3,382.1c0.8-1.3,1.3-2.8,1.2-4.6c0.8,0.9,2,1.9,2.7,2.8c0.8,1.1,0.5,1.2-0.3,2.7
				c-1.1,1.9-2.3,3.9-4,5.4c-0.1,0.1-0.2,0.2-0.3,0.3c-0.1-0.1-0.2-0.3-0.3-0.4c-1.3-1.8-2.1-4-2.7-6.1c-0.5-1.5-0.7-1.8,0.3-2.6
				c0.9-0.7,2.2-1.5,3.2-2.2C230.7,379.1,230.8,380.7,231.3,382.1z M161.3,353.2c1.4-0.7,2.6-1.7,3.5-3.2c0.2,1.2,0.6,2.7,0.7,3.8
				c0.1,1.3-0.2,1.3-1.7,2.1c-1.9,1-4,2-6.2,2.4c-0.2,0-0.3,0.1-0.5,0.1c0-0.2,0-0.3,0-0.5c-0.1-2.2,0.4-4.5,1-6.6
				c0.4-1.6,0.3-1.9,1.7-2.1c1.1-0.1,2.7,0,3.9-0.1C162.4,350.3,161.6,351.7,161.3,353.2z M118,291c1.5,0.2,3.1,0,4.6-0.8
				c-0.5,1.1-0.9,2.6-1.4,3.6c-0.6,1.2-0.9,1-2.5,0.9c-2.2-0.2-4.5-0.5-6.5-1.4c-0.1-0.1-0.3-0.1-0.4-0.2c0.1-0.1,0.2-0.3,0.2-0.4
				c1.1-1.9,2.7-3.5,4.4-5c1.2-1.1,1.4-1.4,2.5-0.8c1,0.5,2.3,1.4,3.3,2C120.5,289.2,119.1,290,118,291z M115.2,215.3
				c1.2,1,2.6,1.6,4.4,1.8c-1,0.7-2.2,1.7-3.2,2.3c-1.2,0.7-1.3,0.3-2.6-0.6c-1.8-1.3-3.5-2.8-4.8-4.7c-0.1-0.1-0.2-0.3-0.3-0.4
				c0.2-0.1,0.3-0.2,0.4-0.2c2-1,4.2-1.5,6.4-1.8c1.6-0.2,1.9-0.4,2.6,0.7c0.6,1,1.2,2.4,1.7,3.5C118.3,215.1,116.7,215,115.2,215.3
				z M153.8,150.1c0.5,1.5,1.3,2.8,2.7,3.9c-1.2,0-2.8,0.3-3.9,0.2c-1.3-0.1-1.3-0.4-1.8-1.9c-0.8-2.1-1.4-4.3-1.5-6.5
				c0-0.2,0-0.3,0-0.5c0.2,0,0.3,0,0.5,0c2.2,0.2,4.4,1,6.4,1.9c1.5,0.7,1.8,0.6,1.8,2c0,1.1-0.3,2.7-0.5,3.9
				C156.5,151.7,155.2,150.7,153.8,150.1z M221.5,116.1c-0.4,1.5-0.4,3.1,0.2,4.7c-1-0.6-2.5-1.3-3.4-1.9c-1.1-0.8-0.8-1-0.5-2.6
				c0.5-2.2,1.1-4.4,2.3-6.3c0.1-0.1,0.2-0.2,0.3-0.4c0.1,0.1,0.3,0.2,0.4,0.3c1.8,1.4,3.1,3.2,4.4,5.1c0.9,1.4,1.2,1.5,0.4,2.6
				c-0.6,0.9-1.7,2.1-2.5,3C223,118.9,222.4,117.4,221.5,116.1z M296.8,124.2c-1.1,1-2,2.4-2.4,4.1c-0.5-1.1-1.4-2.4-1.8-3.5
				c-0.5-1.3-0.2-1.3,1-2.5c1.6-1.6,3.3-3,5.3-4c0.1-0.1,0.3-0.1,0.4-0.2c0.1,0.2,0.1,0.3,0.2,0.4c0.7,2.1,0.9,4.4,0.9,6.6
				c0,1.6,0.2,1.9-1,2.4c-1,0.5-2.6,0.8-3.7,1.2C296.6,127.2,296.9,125.7,296.8,124.2z M355.9,171.6c-1.5,0.3-2.9,0.9-4.2,2.1
				c0.1-1.2,0.1-2.8,0.3-3.9c0.3-1.3,0.6-1.2,2.2-1.6c2.2-0.5,4.4-0.8,6.6-0.5c0.2,0,0.3,0,0.5,0.1c0,0.2-0.1,0.3-0.1,0.4
				c-0.5,2.2-1.6,4.2-2.8,6.1c-0.9,1.4-0.9,1.7-2.2,1.5c-1.1-0.2-2.6-0.7-3.7-1C354,174.1,355.1,173,355.9,171.6z M379.9,243.5
				c-1.4-0.6-3-0.8-4.7-0.5c0.8-0.9,1.6-2.3,2.4-3.1c0.9-1,1.1-0.7,2.7-0.1c2.1,0.8,4.1,1.7,5.9,3.2c0.1,0.1,0.2,0.2,0.4,0.3
				c-0.1,0.1-0.2,0.2-0.3,0.3c-1.6,1.5-3.6,2.6-5.6,3.6c-1.5,0.7-1.7,1-2.7,0.1c-0.8-0.8-1.8-2-2.6-2.9
				C377,244.5,378.5,244.2,379.9,243.5z M361.2,316.9c-0.9-1.3-2.1-2.3-3.7-3c1.1-0.4,2.6-1,3.7-1.3c1.3-0.3,1.4,0.1,2.3,1.4
				c1.3,1.8,2.5,3.7,3.2,5.8c0.1,0.2,0.1,0.3,0.2,0.4c-0.2,0-0.3,0.1-0.5,0.1c-2.2,0.4-4.5,0.3-6.7,0c-1.6-0.2-1.9-0.1-2.3-1.4
				c-0.3-1.1-0.4-2.7-0.6-3.8C358.2,316.2,359.7,316.8,361.2,316.9z M305.9,368.6c0-1.5-0.5-3.1-1.5-4.5c1.2,0.3,2.7,0.5,3.8,0.9
				c1.3,0.5,1.1,0.8,1.2,2.4c0.2,2.2,0.2,4.5-0.4,6.7c0,0.2-0.1,0.3-0.1,0.4c-0.1,0-0.3-0.1-0.4-0.2c-2.1-0.8-3.9-2.2-5.6-3.6
				c-1.2-1-1.6-1.1-1.2-2.4c0.3-1.1,1.1-2.5,1.5-3.6C303.7,366.4,304.6,367.6,305.9,368.6z M228.5,408.3c0.4-0.3,0.8-0.6,1.3-0.8
				c2.8-1,5.6-2.1,8.5-3.1c2,2.2,4.2,4.4,6.6,6.9c-5.9,2.6-11.7,5.2-17.5,7.8c-5.1-3.7-10.3-7.5-15.5-11.3c2.9-1.9,5.4-3.6,7.9-5.3
				c2.6,1.6,5.1,3.2,7.6,4.8C227.8,407.5,228.2,407.9,228.5,408.3z M144.8,373.7c0.5,0,1,0,1.5,0c2.9,0.7,5.8,1.3,8.8,2
				c0.6,2.9,1.2,6,1.8,9.4c-6.4-1-12.7-1.9-18.9-2.9c-2.3-5.9-4.6-11.9-6.9-17.9c3.5-0.1,6.6-0.1,9.5-0.2c1.3,2.8,2.6,5.5,3.8,8.2
				C144.6,372.7,144.7,373.2,144.8,373.7z M93.1,299.4c0.4,0.3,0.9,0.5,1.3,0.8c2.1,2.1,4.2,4.2,6.3,6.4c-1.1,2.8-2.2,5.7-3.5,8.9
				c-4.8-4.2-9.6-8.5-14.4-12.7c1.3-6.2,2.6-12.5,3.9-18.8c2.9,1.8,5.6,3.4,8.1,5c-0.4,3-0.8,6-1.2,8.9
				C93.4,298.4,93.3,298.9,93.1,299.4z M89.7,208.8c0.2,0.5,0.5,0.9,0.7,1.4c0.6,2.9,1.3,5.8,1.9,8.8c-2.4,1.8-4.9,3.6-7.7,5.6
				c-1.8-6.2-3.5-12.3-5.2-18.4c4.4-4.5,8.9-9.1,13.4-13.7c1.5,3.1,2.9,5.9,4.2,8.6c-2,2.3-4,4.6-5.9,6.9
				C90.6,208.2,90.1,208.6,89.7,208.8z M135.9,130.9c-0.1,0.5-0.1,1-0.2,1.5c-1,2.8-2.1,5.6-3.2,8.4c-3,0.2-6.1,0.3-9.5,0.5
				c1.9-6.2,3.7-12.3,5.6-18.3c6.2-1.4,12.4-2.9,18.7-4.3c-0.4,3.4-0.8,6.5-1.2,9.5c-2.9,0.9-5.8,1.7-8.6,2.6
				C136.9,130.9,136.4,130.9,135.9,130.9z M216.8,90.3c-0.3,0.4-0.6,0.8-1,1.2c-2.4,1.8-4.8,3.5-7.2,5.4c-2.6-1.5-5.3-3-8.3-4.7
				c4.9-4.2,9.8-8.3,14.6-12.4c5.9,2.1,12,4.3,18,6.5c-2.2,2.7-4.2,5-6.1,7.3c-2.9-0.8-5.8-1.7-8.7-2.5
				C217.7,90.8,217.3,90.5,216.8,90.3z M306.9,99.9c-0.5,0.2-1,0.3-1.5,0.5c-2.9,0.2-6,0.4-9,0.6c-1.4-2.6-2.8-5.4-4.4-8.4
				c6.4-0.8,12.7-1.7,19-2.5c3.9,5,7.7,10.1,11.6,15.2c-3.3,1-6.2,2-9.1,2.9c-2-2.3-4-4.5-5.9-6.8
				C307.4,100.8,307.1,100.3,306.9,99.9z M377.4,156.6c-0.5-0.1-1-0.3-1.5-0.4c-2.6-1.4-5.2-2.9-7.9-4.4c0.3-3,0.5-6,0.8-9.5
				c5.8,2.7,11.6,5.4,17.3,8.1c0.5,6.3,1,12.7,1.6,19.1c-3.3-0.9-6.3-1.7-9.2-2.5c-0.4-3-0.9-6-1.3-8.9
				C377.4,157.6,377.4,157.1,377.4,156.6z M406.2,242.5c-0.3-0.4-0.7-0.8-1-1.1c-1.4-2.6-2.8-5.3-4.3-7.9c1.8-2.4,3.7-4.8,5.8-7.5
				c3.4,5.4,6.8,10.8,10.2,16.2c-3,5.6-6,11.2-9,16.9c-2.3-2.6-4.4-4.9-6.4-7.1c1.3-2.8,2.5-5.5,3.7-8.2
				C405.5,243.3,405.8,242.9,406.2,242.5z M383.8,330.3c-0.1-0.5-0.2-1-0.2-1.5c0.2-3,0.4-5.9,0.7-9c2.8-1,5.7-2,9-3.2
				c-0.1,6.4-0.1,12.8-0.2,19.1c-5.5,3.1-11.1,6.2-16.7,9.4c-0.6-3.4-1.1-6.5-1.6-9.4c2.6-1.7,5.1-3.3,7.6-4.9
				C382.9,330.6,383.4,330.5,383.8,330.3z M317.6,392.1c0.2-0.5,0.4-0.9,0.6-1.4c1.8-2.4,3.6-4.8,5.4-7.2c2.9,0.7,5.9,1.4,9.3,2.2
				c-3.5,5.4-7,10.7-10.5,16c-6.3-0.4-12.7-0.8-19.1-1.1c1.4-3.2,2.6-6,3.8-8.8c3,0,6.1,0,9-0.1C316.6,391.8,317.2,392,317.6,392.1z
				 M227.2,420.9c5.7-2.4,11.6-4.4,17.4-6.5c4.8-1.7,9.7,1.4,14.5,0.5c-0.9,1.3-0.4,2.7-0.8,4.2c-0.8,3-3.4,5.3-6.2,6.4
				c-8.8,3.3-17.6,6.7-26.4,10.1c-7.9-5.2-15.8-10.3-23.7-15.4c-2.5-1.6-4.7-4.4-4.8-7.5c-0.1-1.5,0.7-2.8,0.1-4.3
				c4.5,1.9,9.9-0.1,14.2,2.6C216.8,414.1,222.1,417.3,227.2,420.9z M136.9,383.6c6.1,1.1,12.2,2.5,18.2,4c5,1.1,7.4,6.4,11.9,8.2
				c-1.5,0.6-1.9,2.1-3,3.1c-2.3,2.2-5.8,2.6-8.7,2c-9.2-2-18.5-3.9-27.7-5.8c-3.9-8.6-7.7-17.2-11.6-25.8c-1.3-2.7-1.5-6.2,0.1-8.9
				c0.8-1.3,2.1-2,2.4-3.6c2.7,4,8.4,5.3,10.6,9.9C131.8,372.2,134.5,377.8,136.9,383.6z M81.1,303.4c4.5,4.3,8.8,8.7,13.2,13.2
				c3.6,3.7,2.7,9.4,5.6,13.4c-1.6-0.3-2.7,0.7-4.2,1c-3.1,0.6-6.3-0.9-8.4-3c-6.7-6.7-13.4-13.3-20.2-19.8c1.4-9.3,2.8-18.6,4.2-28
				c0.4-3,2.1-6.1,4.9-7.5c1.4-0.7,2.9-0.5,4-1.7c0.1,4.9,4.2,9,3.6,14C82.9,291.1,82.1,297.2,81.1,303.4z M77.5,205.7
				c1.5,6,2.7,12.1,4,18.2c1,5-2.8,9.4-2.5,14.3c-1.2-1.1-2.7-0.8-4.1-1.4c-2.9-1.2-4.8-4.2-5.4-7.1c-2-9.2-4.1-18.4-6.2-27.6
				c6.2-7.1,12.5-14.2,18.6-21.3c2-2.3,5-4,8.2-3.6c1.5,0.2,2.7,1.1,4.2,0.7c-2.5,4.2-1.3,9.8-4.6,13.8
				C85.7,196.4,81.7,201.2,77.5,205.7z M127.2,121.7c-2,5.9-4.2,11.7-6.5,17.5c-1.9,4.8-7.4,6.4-9.9,10.6c-0.4-1.6-1.8-2.1-2.6-3.4
				c-1.8-2.6-1.8-6.1-0.7-8.9c3.3-8.8,6.5-17.7,9.7-26.6c9.1-2.6,18.1-5.2,27.2-7.8c2.9-0.8,6.4-0.6,8.8,1.4c1.2,1,1.7,2.4,3.2,2.9
				c-4.4,2.1-6.4,7.6-11.3,9.1C139.2,118.2,133.3,120.1,127.2,121.7z M214.6,77.8c-4.9,3.9-9.9,7.5-14.9,11.2c-4.1,3-9.7,1.4-14,3.6
				c0.5-1.5-0.3-2.8-0.4-4.3c-0.1-3.1,1.8-6.1,4.2-7.9c7.5-5.7,15-11.4,22.5-17.1c9,2.7,18,5.4,27.1,8.1c2.9,0.8,5.7,2.9,6.7,5.9
				c0.5,1.5,0.1,2.9,1.1,4.2c-4.8-0.6-9.4,2.9-14.4,1.5C226.4,81.4,220.5,79.8,214.6,77.8z M311.7,88.2c-6.2,0.6-12.4,1-18.6,1.4
				c-5.1,0.3-8.9-4.1-13.8-4.5c1.2-1,1.2-2.5,2-3.8c1.6-2.7,4.8-4.1,7.8-4.4c9.4-0.7,18.8-1.4,28.2-2.2c6.1,7.2,12.2,14.3,18.4,21.5
				c1.9,2.3,3.2,5.6,2.4,8.6c-0.4,1.5-1.5,2.5-1.3,4.1c-3.8-3.1-9.5-2.7-13-6.5C319.8,97.6,315.6,93,311.7,88.2z M387.8,149.4
				c-5.5-2.8-10.9-5.9-16.4-8.9c-4.5-2.5-5.3-8.2-9.1-11.3c1.6-0.2,2.4-1.4,3.7-2.1c2.8-1.4,6.3-0.9,8.9,0.5
				c8.3,4.5,16.6,8.9,24.9,13.4c1.3,9.4,2.5,18.7,3.9,28c0.4,3-0.3,6.4-2.6,8.6c-1.1,1-2.6,1.3-3.3,2.8c-1.5-4.7-6.6-7.4-7.4-12.5
				C389.5,161.7,388.5,155.6,387.8,149.4z M418.8,242.1c-3.1-5.4-6-10.9-8.9-16.3c-2.4-4.5,0-9.8-1.6-14.4c1.4,0.7,2.8,0.1,4.3,0.2
				c3.1,0.3,5.7,2.6,7.2,5.3c4.5,8.3,9.1,16.5,13.7,24.7c-4,8.5-7.9,17.1-11.9,25.7c-1.3,2.7-3.7,5.2-6.8,5.8
				c-1.5,0.3-2.9-0.3-4.3,0.5c1.3-4.7-1.5-9.8,0.5-14.5C413.6,253.3,416,247.6,418.8,242.1z M394.7,336.7c0.3-6.2,0.8-12.4,1.3-18.6
				c0.4-5.1,5.3-8.2,6.5-13c0.8,1.4,2.3,1.5,3.5,2.5c2.4,2,3.4,5.4,3.2,8.3c-0.6,9.4-1.2,18.8-1.8,28.2c-8,5-15.9,10.1-23.9,15.2
				c-2.5,1.6-5.9,2.4-8.8,1.2c-1.4-0.6-2.3-1.8-3.9-1.9c3.6-3.3,4-9.1,8.2-11.9C384.3,343.4,389.4,339.9,394.7,336.7z M323.3,403.4
				c3.5-5.1,7.4-10,11.1-14.9c3.1-4.1,8.9-4,12.4-7.4c-0.1,1.6,1.1,2.5,1.6,4c1,3,0,6.3-1.8,8.8c-5.6,7.6-11.2,15.2-16.8,22.8
				c-9.4-0.1-18.9-0.1-28.3-0.2c-3,0-6.3-1.2-8.1-3.8c-0.9-1.3-1-2.8-2.3-3.7c4.8-0.8,8.3-5.5,13.4-5.6
				C310.9,403.3,317.1,403.2,323.3,403.4z M225.4,438c7.5-3,15.1-6,22.6-8.9c3.1-1.2,8.9-1.3,10.9-4.1c-0.1,1.5-0.3,3.1,0,4.6
				c0.2,1.5,1.1,2.6,1.5,4c-4.8,0.3-9.8,3.2-14.3,4.9c-5.1,2-10.2,4-15.3,6c-0.7,0.3-3.2,1.2-6.6,2.5c-3-1.9-5.3-3.4-5.9-3.8
				c-4.6-3-9.1-6.1-13.7-9.1c-4-2.6-8.3-6.6-12.9-7.8c0.8-1.3,1.8-2.2,2.4-3.6c0.5-1.4,0.7-3,1-4.5c1.4,3.2,7.1,4.5,9.8,6.3
				C211.9,429,218.6,433.5,225.4,438z M126.1,397c7.9,1.5,15.9,3.1,23.9,4.7c3.2,0.7,8.2,3.8,11.4,2.5c-0.9,1.2-1.9,2.5-2.5,3.9
				c-0.6,1.4-0.5,2.8-0.9,4.2c-4.2-2.4-10-2.6-14.7-3.5c-5.4-1.1-10.7-2.1-16.1-3.2c-0.7-0.1-3.4-0.7-6.9-1.4
				c-1.5-3.2-2.6-5.7-2.9-6.4c-2.2-5-4.4-10-6.6-15c-1.9-4.4-3.4-10-6.6-13.6c1.4-0.7,2.7-0.9,4-1.8c1.2-0.9,2.3-2.1,3.2-3.2
				c-0.6,3.4,3.5,7.6,4.9,10.6C119.6,382.1,122.8,389.5,126.1,397z M64.7,308.8c5.9,5.6,11.7,11.2,17.5,16.9
				c2.4,2.3,4.8,7.6,8.3,8.2c-1.4,0.5-2.9,1.1-4.2,1.9c-1.3,0.8-1.9,2.1-3,3.1c-2.2-4.2-7-7.6-10.4-10.9c-3.9-3.8-7.9-7.6-11.8-11.4
				c-0.5-0.5-2.5-2.4-5-4.9c0.5-3.5,0.9-6.2,1-6.9c0.9-5.4,1.7-10.8,2.6-16.2c0.8-4.7,2.5-10.3,1.8-15c1.5,0.2,2.8,0.7,4.3,0.6
				c1.5-0.1,3-0.6,4.5-1c-2.3,2.6-1.1,8.3-1.7,11.5C67.3,292.8,66,300.8,64.7,308.8z M60.8,201.5c1.9,7.9,3.8,15.8,5.6,23.7
				c0.8,3.2,0,9,2.5,11.4c-1.5-0.3-3-0.7-4.5-0.7c-1.5,0-2.7,0.7-4.2,1c0.4-4.8-1.8-10.2-2.9-14.8c-1.3-5.3-2.5-10.6-3.8-16
				c-0.2-0.7-0.8-3.4-1.5-6.8c2.4-2.7,4.1-4.7,4.6-5.3c3.6-4.1,7.3-8.2,10.9-12.2c3.2-3.6,7.7-7.3,9.6-11.7c1.2,0.9,1.9,2.1,3.3,2.9
				c1.3,0.7,2.9,1.2,4.3,1.6c-3.4,0.9-5.4,6.4-7.6,8.8C71.6,189.4,66.2,195.5,60.8,201.5z M115.5,109c-2.7,7.7-5.4,15.3-8.1,23
				c-1.1,3.1-4.9,7.6-4,10.9c-1.1-1-2.2-2.2-3.5-3c-1.3-0.8-2.7-0.9-4.1-1.5c2.9-3.8,4-9.5,5.6-14c1.8-5.2,3.6-10.3,5.5-15.5
				c0.3-0.7,1.2-3.2,2.4-6.6c3.4-1,6-1.7,6.7-1.9c5.3-1.5,10.5-2.9,15.8-4.4c4.6-1.3,10.4-1.9,14.4-4.6c0.5,1.4,0.5,2.8,1.2,4.2
				c0.7,1.3,1.8,2.5,2.8,3.7c-3.3-1.1-8,2.4-11.2,3.3C131.1,104.8,123.3,106.9,115.5,109z M211.5,60.9c-6.4,5-12.8,10-19.2,14.9
				c-2.6,2-8.2,3.7-9.3,7c-0.3-1.4-0.6-3-1.3-4.4c-0.7-1.4-1.8-2.2-2.6-3.5c4.5-1.6,8.5-5.8,12.3-8.8c4.3-3.4,8.6-6.7,13-10
				c0.6-0.5,2.7-2.1,5.6-4.2c3.4,1,6,1.8,6.7,2c5.2,1.6,10.4,3.2,15.7,4.9c4.6,1.4,9.8,4,14.6,3.9c-0.4,1.5-1.1,2.6-1.3,4.1
				c-0.1,1.5,0.2,3.1,0.3,4.6c-2.2-2.7-8.1-2.3-11.2-3.3C227,65.7,219.2,63.3,211.5,60.9z M318.3,72.2c-8.1,0.8-16.2,1.5-24.2,2.2
				c-3.3,0.3-8.9-1.3-11.6,0.8c0.5-1.4,1.1-2.9,1.3-4.4c0.2-1.5-0.3-2.8-0.3-4.3c4.7,1.1,10.3-0.3,15.1-0.7c5.5-0.5,10.9-1,16.3-1.4
				c0.7-0.1,3.4-0.3,7-0.5c2.3,2.7,4.1,4.7,4.6,5.3c3.5,4.2,7,8.4,10.6,12.5c3.1,3.7,6.1,8.6,10.2,11.1c-1.1,1-2.4,1.6-3.3,2.8
				c-0.9,1.2-1.5,2.7-2.2,4c-0.4-3.5-5.5-6.3-7.7-8.8C328.7,84.7,323.5,78.5,318.3,72.2z M402,139.5c-7.2-3.7-14.4-7.5-21.6-11.3
				c-2.9-1.5-6.8-5.9-10.2-5.6c1.2-0.9,2.5-1.8,3.5-3c1-1.2,1.3-2.5,2.1-3.8c3.3,3.4,8.8,5.3,13.1,7.5c4.8,2.5,9.7,5.1,14.5,7.6
				c0.7,0.3,3,1.6,6.2,3.3c0.5,3.5,0.9,6.2,1,6.9c0.7,5.4,1.4,10.8,2.1,16.3c0.6,4.7,0.5,10.6,2.5,14.9c-1.5,0.3-2.9,0.1-4.3,0.6
				c-1.4,0.5-2.8,1.4-4,2.2c1.5-3.1-1.3-8.3-1.7-11.5C404,155.6,403,147.6,402,139.5z M436,241.4c-4-7-8.1-14.1-12-21.1
				c-1.6-2.9-2.5-8.7-5.6-10.2c1.5-0.1,3.1-0.2,4.5-0.6c1.5-0.5,2.4-1.4,3.8-2.1c0.9,4.7,4.5,9.3,6.9,13.4c2.7,4.8,5.4,9.5,8.1,14.3
				c0.4,0.7,1.7,3,3.4,6.1c-1.5,3.2-2.6,5.7-2.9,6.4c-2.4,5-4.7,9.9-7,14.8c-2.1,4.3-5.3,9.1-5.9,13.9c-1.4-0.6-2.4-1.5-3.9-1.8
				c-1.5-0.3-3.1-0.3-4.5-0.3c2.9-1.8,3.4-7.6,4.8-10.6C429,256.1,432.5,248.7,436,241.4z M409.6,345.5c0.4-8.1,0.8-16.2,1.3-24.3
				c0.2-3.3,2.5-8.6,0.8-11.6c1.3,0.7,2.7,1.5,4.2,1.9c1.5,0.4,2.8,0.1,4.3,0.3c-1.8,4.5-1.2,10.2-1.4,15
				c-0.3,5.5-0.6,10.9-0.9,16.4c0,0.7-0.2,3.4-0.4,7c-3,1.9-5.3,3.4-5.9,3.8c-4.6,2.9-9.3,5.8-13.9,8.7c-4.1,2.5-9.4,4.8-12.5,8.5
				c-0.9-1.2-1.3-2.6-2.3-3.7c-1.1-1.1-2.4-1.9-3.7-2.7c3.5,0.1,7-4.6,9.8-6.3C395.8,354.1,402.7,349.8,409.6,345.5z M331,418.8
				c4.7-6.6,9.5-13.2,14.2-19.8c1.9-2.7,6.8-5.9,7-9.3c0.7,1.3,1.4,2.7,2.5,3.8c1,1.1,2.3,1.6,3.5,2.6c-3.9,2.8-6.5,8-9.3,11.9
				c-3.2,4.4-6.4,8.9-9.6,13.3c-0.4,0.6-2,2.8-4.2,5.6c-3.5,0-6.3,0-7,0c-5.5-0.1-10.9-0.2-16.4-0.3c-4.8-0.1-10.5-1-15.1,0.4
				c-0.1-1.5,0.3-2.9,0-4.4c-0.3-1.5-1-2.9-1.6-4.3c2.9,1.9,8.4-0.1,11.6,0C314.8,418.5,322.9,418.6,331,418.8z M221,479.1
				c4.1-1.4,8.1-3.1,12-5c2.8-1.3,5.3-2,8.3-2.5c2.5-0.5,4.7-1.7,7.2-2.2c-0.4,1.9-5.2,4.8-6.8,6c-3.1,2.5-6.3,4.9-9.5,7.3
				c-2.9,2.2-5.9,4.4-8.8,6.7c-1.2,1-2.9,2-3.9,3.3c-0.7-1.5-2.1-2.8-3.1-4c-2.4-2.8-4.7-5.6-7.1-8.4c-2.6-3-5.2-6.1-7.8-9.2
				c-1.3-1.5-5.4-5.3-5.4-7.3c2.3,0.9,4.3,2.6,6.6,3.6c2.8,1.2,5.1,2.4,7.6,4.2C213.7,474.3,217.3,476.8,221,479.1z M100.2,429.2
				c4.2,1,8.5,1.7,12.8,2.3c3,0.4,5.6,1.2,8.3,2.3c2.4,0.9,5,1.1,7.3,2.1c-1.4,1.4-7,1.2-8.9,1.4c-4,0.4-8,0.7-12,1
				c-3.7,0.3-7.3,0.6-11,0.9c-1.6,0.1-3.5,0.1-5,0.6c0.2-1.6-0.3-3.5-0.4-5.1c-0.5-3.6-1-7.3-1.5-10.9c-0.5-4-1.1-7.9-1.6-11.9
				c-0.3-2-1.7-7.4-0.6-9c1.4,2.1,2.2,4.5,3.6,6.7c1.7,2.5,3,4.8,4.1,7.7C96.7,421.3,98.3,425.3,100.2,429.2z M25.5,321.9
				c3,3.2,6.2,6,9.5,8.8c2.3,2,4,4,5.7,6.5c1.5,2.1,3.6,3.6,5,5.7c-1.9,0.5-6.5-2.8-8.3-3.7c-3.6-1.9-7.1-3.7-10.6-5.6
				c-3.2-1.7-6.5-3.5-9.7-5.2c-1.4-0.7-3-1.9-4.6-2.2c1.1-1.2,1.7-3.1,2.4-4.5c1.6-3.3,3.1-6.7,4.7-10c1.7-3.6,3.4-7.3,5.1-10.9
				c0.9-1.8,2.6-7.1,4.4-7.9c0.1,2.5-0.6,5-0.6,7.6c0.1,3,0,5.6-0.7,8.6C26.8,313.4,26,317.6,25.5,321.9z M20.7,191.3
				c0.8,4.3,2,8.4,3.2,12.6c0.9,2.9,1.2,5.6,1.3,8.6c0.1,2.5,1,5,1.1,7.5c-1.9-0.6-4-5.8-5-7.6c-2-3.5-4-7-5.9-10.5
				c-1.8-3.2-3.5-6.4-5.4-9.6c-0.8-1.4-1.5-3.2-2.7-4.3c1.6-0.5,3.1-1.7,4.4-2.5c3.2-1.9,6.2-3.9,9.3-5.9c3.4-2.1,6.8-4.3,10.2-6.4
				c1.7-1,6-4.6,8-4.3c-1.3,2.2-3.2,3.9-4.6,6c-1.6,2.6-3.1,4.7-5.3,6.9C26.5,184.8,23.5,188,20.7,191.3z M87.3,78.8
				c-1.6,4-2.9,8.2-4.1,12.3c-0.8,2.9-2,5.3-3.5,7.9c-1.2,2.2-1.8,4.7-3.1,6.9c-1.2-1.5-0.2-7.1-0.1-9c0.2-4,0.4-8,0.7-12
				c0.2-3.7,0.5-7.3,0.7-11c0.1-1.6,0.4-3.5,0.1-5.1c1.6,0.4,3.5,0.3,5.1,0.3c3.7,0.1,7.4,0.1,11,0.1c4,0,8,0,12,0.1
				c2,0.1,7.6-0.6,9,0.7c-2.2,1.2-4.8,1.5-7.1,2.6c-2.7,1.3-5.1,2.3-8.1,2.9C95.6,76.5,91.4,77.5,87.3,78.8z M204.1,20.2
				c-3.6,2.5-6.9,5.3-10.1,8.2c-2.3,2-4.6,3.4-7.2,4.8c-2.3,1.2-4.1,3-6.3,4.1c-0.2-2,3.7-6.1,4.8-7.7c2.4-3.3,4.7-6.5,7.1-9.7
				c2.2-2.9,4.4-5.9,6.5-8.9c0.9-1.3,2.2-2.7,2.8-4.3c1.1,1.2,2.8,2.1,4.1,3c3,2.1,6.1,4,9.2,6.1c3.4,2.2,6.7,4.4,10.1,6.6
				c1.7,1.1,6.7,3.5,7.2,5.5c-2.5-0.3-4.9-1.3-7.4-1.7c-3-0.3-5.6-0.8-8.4-1.9C212.4,22.7,208.3,21.3,204.1,20.2z M334.1,34
				c-4.3,0.2-8.6,0.8-12.9,1.4c-3,0.4-5.7,0.4-8.6,0.1c-2.5-0.2-5.1,0.3-7.6,0.1c0.9-1.8,6.4-3.1,8.2-3.8c3.7-1.5,7.5-2.9,11.2-4.4
				c3.4-1.3,6.9-2.6,10.3-4c1.5-0.6,3.4-1.1,4.7-2.1c0.2,1.6,1.2,3.3,1.9,4.8c1.4,3.4,3,6.7,4.5,10.1c1.6,3.7,3.3,7.3,4.9,11
				c0.8,1.8,3.7,6.6,3.1,8.5c-2-1.6-3.4-3.8-5.3-5.4c-2.3-1.9-4.2-3.7-6.1-6.2C339.6,40.6,337,37.2,334.1,34z M435.9,115.9
				c-3.8-2.2-7.7-4-11.6-5.8c-2.8-1.3-5-2.8-7.3-4.6c-2-1.6-4.4-2.4-6.4-4c1.7-1,7,0.8,9,1.2c3.9,0.8,7.9,1.6,11.8,2.4
				c3.6,0.8,7.2,1.5,10.8,2.2c1.5,0.3,3.4,0.9,5,0.8c-0.7,1.5-0.8,3.4-1,5c-0.6,3.6-1.1,7.3-1.7,10.9c-0.6,4-1.2,7.9-1.9,11.9
				c-0.3,2-0.5,7.6-2,8.8c-0.8-2.4-0.8-5-1.6-7.4c-0.9-2.9-1.6-5.4-1.8-8.5C437.1,124.5,436.7,120.2,435.9,115.9z M477.3,239.9
				c-2-3.9-4.3-7.5-6.7-11.2c-1.7-2.6-2.7-5-3.7-7.8c-0.8-2.4-2.4-4.5-3.2-6.9c2,0.1,5.5,4.5,6.9,5.9c2.9,2.8,5.8,5.6,8.6,8.4
				c2.6,2.6,5.2,5.2,7.9,7.7c1.2,1.1,2.4,2.6,3.8,3.4c-1.4,0.9-2.5,2.5-3.5,3.7c-2.5,2.7-4.9,5.5-7.3,8.3c-2.7,3-5.3,6-8,9
				c-1.4,1.5-4.5,6.1-6.5,6.4c0.6-2.5,2-4.6,2.7-7.1c0.8-2.9,1.6-5.4,3.1-8.1C473.6,247.7,475.6,243.9,477.3,239.9z M445.2,366.6
				c0.4-4.3,0.5-8.6,0.5-13c0-3,0.4-5.7,1.1-8.6c0.6-2.5,0.4-5.1,1-7.5c1.6,1.1,2.2,6.7,2.6,8.7c0.9,3.9,1.8,7.8,2.7,11.7
				c0.8,3.6,1.6,7.2,2.5,10.7c0.4,1.6,0.6,3.5,1.4,4.9c-1.6,0-3.4,0.8-5,1.2c-3.5,1-7.1,2-10.6,3c-3.9,1.1-7.7,2.2-11.6,3.3
				c-1.9,0.5-7.1,2.7-8.9,1.9c1.8-1.7,4.2-2.8,6.1-4.5c2.2-2,4.3-3.7,7-5.1C437.8,371.2,441.5,369,445.2,366.6z M349.6,455.7
				c2.7-3.4,5.1-7,7.4-10.7c1.6-2.6,3.4-4.5,5.6-6.6c1.8-1.8,3.1-4,4.9-5.8c0.7,1.9-1.8,6.8-2.5,8.7c-1.3,3.8-2.7,7.6-4.1,11.3
				c-1.3,3.5-2.5,6.9-3.7,10.4c-0.5,1.5-1.4,3.2-1.5,4.9c-1.4-0.9-3.3-1.2-4.8-1.7c-3.5-1.1-7-2.2-10.5-3.2
				c-3.8-1.2-7.7-2.3-11.5-3.5c-1.9-0.6-7.4-1.5-8.5-3.2c2.5-0.5,5-0.1,7.5-0.5c3-0.5,5.6-0.8,8.6-0.5
				C340.9,455.6,345.2,455.9,349.6,455.7z M222,469.8c3.3-1.3,6.6-2.6,10-3.8c8.5-3,17.1-5.6,25.7-8.4c-1.9,5.1-4.9,7.7-9.3,9.1
				c-3.5,1.2-7.1,2.3-10.6,3.5c-2.5,0.9-4.9,1.7-7.2,2.8c-2.4,1.2-4.9,2.7-7.4,3.7c-0.6,0.3-1.3,0.5-1.9,0.8
				c-0.6-0.4-1.2-0.8-1.7-1.2c-2.3-1.5-4.4-3.6-6.5-5.2c-2-1.6-4.2-2.9-6.4-4.3c-3.2-2-6.4-3.8-9.7-5.7c-4-2.3-6.4-5.5-7.2-10.9
				c7.8,4.5,15.7,8.9,23.3,13.6C216,465.9,219,467.8,222,469.8z M106,421.9c3.5,0.7,7,1.4,10.4,2.2c8.8,2.1,17.4,4.5,26.1,6.8
				c-4.3,3.3-8.3,3.8-12.7,2.7c-3.6-1-7.2-2-10.8-2.8c-2.6-0.6-5-1.2-7.6-1.5c-2.7-0.3-5.6-0.3-8.3-0.9c-0.7-0.1-1.4-0.3-2-0.4
				c-0.3-0.6-0.5-1.3-0.8-1.9c-1.1-2.6-1.7-5.4-2.7-7.9c-0.8-2.4-2-4.7-3.1-7.1c-1.6-3.4-3.4-6.7-5.1-10c-2.1-4-2.4-8-0.1-13
				c4.1,8,8.4,15.9,12.3,24.1C103.2,415.4,104.6,418.7,106,421.9z M34.4,319c2.6,2.4,5.1,4.9,7.6,7.5c6.3,6.5,12.2,13.2,18.3,19.9
				c-5.4,0.4-9.1-1.3-12.1-4.6c-2.5-2.8-5-5.6-7.6-8.2c-1.8-1.9-3.6-3.7-5.5-5.4c-2.1-1.7-4.5-3.3-6.5-5.2c-0.5-0.5-1-1-1.5-1.4
				c0.1-0.7,0.2-1.4,0.3-2c0.4-2.8,1.4-5.4,2-8.1c0.6-2.5,0.9-5,1.2-7.6c0.5-3.7,0.8-7.4,1.1-11.1c0.4-4.5,2.3-8.1,6.9-11
				c-0.9,8.9-1.6,17.9-2.7,26.9C35.5,311.9,34.9,315.5,34.4,319z M29.7,193.6c0.8,3.5,1.7,6.9,2.4,10.4c1.8,8.8,3.1,17.7,4.7,26.6
				c-4.8-2.6-6.9-6-7.7-10.5c-0.6-3.7-1.2-7.4-2-11c-0.5-2.6-1-5.1-1.8-7.5c-0.8-2.6-2-5.2-2.6-7.9c-0.2-0.7-0.3-1.4-0.5-2
				c0.5-0.5,0.9-1,1.4-1.5c1.9-2.1,4.1-3.8,6.1-5.7c1.8-1.8,3.4-3.7,5.1-5.7c2.4-2.9,4.7-5.8,7-8.8c2.8-3.6,6.3-5.6,11.8-5.5
				c-5.6,7-11,14.2-16.8,21.1C34.5,188.3,32.1,191,29.7,193.6z M93.6,85.6c-1.2,3.4-2.4,6.7-3.7,10c-3.3,8.4-7,16.6-10.5,24.9
				c-2.7-4.8-2.6-8.8-0.8-13c1.5-3.4,3-6.9,4.3-10.3c0.9-2.5,1.9-4.8,2.6-7.3c0.7-2.6,1.1-5.4,2-8.1c0.2-0.6,0.5-1.3,0.7-1.9
				c0.7-0.2,1.3-0.4,2-0.6c2.7-0.7,5.5-0.9,8.2-1.5c2.5-0.5,4.9-1.3,7.4-2.1c3.5-1.1,7.1-2.4,10.6-3.6c4.3-1.5,8.3-1.3,12.9,1.7
				c-8.5,2.9-17,6-25.5,8.7C100.5,83.8,97.1,84.7,93.6,85.6z M205.8,29.4c-2.8,2.2-5.6,4.4-8.5,6.5C190,41.1,182.4,46,175,51.1
				c0.3-5.4,2.5-8.8,6.3-11.4c3.1-2.1,6.2-4.2,9.2-6.3c2.1-1.6,4.2-3,6.1-4.7c2-1.8,3.9-4,6.1-5.7c0.5-0.4,1.1-0.8,1.6-1.3
				c0.7,0.2,1.3,0.4,2,0.6c2.7,0.8,5.2,2.2,7.7,3.2c2.4,0.9,4.8,1.6,7.4,2.3c3.6,1,7.2,1.8,10.9,2.7c4.4,1.1,7.7,3.4,9.9,8.4
				c-8.8-2.1-17.5-4.1-26.2-6.5C212.6,31.5,209.1,30.5,205.8,29.4z M330.5,42.7c-3.5,0.3-7.1,0.6-10.6,0.8c-9,0.5-18,0.6-27,0.8
				c3.2-4.4,6.9-6,11.5-6.1c3.7-0.1,7.5-0.1,11.2-0.4c2.6-0.2,5.2-0.3,7.7-0.7c2.7-0.4,5.4-1.2,8.2-1.5c0.7-0.1,1.3-0.1,2-0.2
				c0.5,0.5,0.9,1.1,1.3,1.6c1.8,2.1,3.2,4.6,4.7,6.8c1.5,2,3.2,3.9,5,5.9c2.5,2.8,5.1,5.4,7.7,8.1c3.1,3.3,4.6,7,3.8,12.4
				c-6.2-6.5-12.5-12.9-18.5-19.6C335.1,48.1,332.8,45.4,330.5,42.7z M428.3,121.3c-3.2-1.6-6.3-3.3-9.4-5.1
				c-7.8-4.4-15.4-9.3-23.1-13.9c5.1-1.9,9.1-1.3,13,1c3.2,1.9,6.4,3.9,9.6,5.7c2.3,1.3,4.5,2.6,6.8,3.6c2.5,1.1,5.2,1.9,7.7,3.2
				c0.6,0.3,1.2,0.6,1.8,0.9c0.1,0.7,0.2,1.4,0.3,2.1c0.4,2.8,0.2,5.6,0.3,8.3c0.1,2.5,0.6,5,1,7.7c0.6,3.7,1.3,7.3,2,11
				c0.9,4.5,0.1,8.4-3.5,12.5c-1.7-8.8-3.6-17.6-5-26.5C429.1,128.3,428.7,124.8,428.3,121.3z M468,240.2c-1.8-3.1-3.5-6.2-5.2-9.3
				c-4.2-8-8-16.2-12-24.2c5.3,1.1,8.3,3.8,10.4,7.9c1.6,3.3,3.2,6.7,5,10c1.2,2.3,2.4,4.6,3.8,6.7c1.5,2.3,3.4,4.4,4.7,6.8
				c0.3,0.6,0.7,1.2,1,1.8c-0.3,0.6-0.6,1.3-0.9,1.9c-1.2,2.5-2.9,4.8-4.3,7.2c-1.3,2.2-2.3,4.5-3.3,7c-1.5,3.4-2.9,6.9-4.2,10.4
				c-1.7,4.2-4.5,7.1-9.7,8.6c3.4-8.3,6.6-16.8,10.1-25C464.9,246.7,466.5,243.4,468,240.2z M437.1,361.8c0.2-3.6,0.4-7.1,0.7-10.7
				c0.8-9,2-17.9,3-26.8c3.9,3.8,5,7.7,4.4,12.2c-0.4,3.7-0.9,7.4-1.2,11.1c-0.2,2.6-0.5,5.1-0.4,7.7c0.1,2.7,0.5,5.6,0.3,8.3
				c0,0.7-0.1,1.4-0.1,2.1c-0.6,0.4-1.2,0.7-1.8,1.1c-2.4,1.5-5,2.5-7.5,3.7c-2.3,1.2-4.3,2.6-6.5,4.1c-3.1,2-6.1,4.3-9.2,6.4
				c-3.7,2.6-7.6,3.6-12.8,2c7.3-5.2,14.6-10.6,22.1-15.6C431.1,365.6,434.1,363.7,437.1,361.8z M345.4,447.4c2-2.9,4.1-5.8,6.3-8.6
				c5.5-7.1,11.4-14,17.1-20.9c1.2,5.3,0,9.2-2.9,12.7c-2.4,2.9-4.8,5.7-7.1,8.7c-1.6,2.1-3.2,4.1-4.5,6.2c-1.4,2.3-2.6,4.9-4.2,7.2
				c-0.4,0.6-0.8,1.1-1.2,1.7c-0.7,0-1.4,0-2.1,0c-2.8-0.1-5.6-0.7-8.3-0.9c-2.5-0.2-5.1-0.2-7.7-0.1c-3.7,0.1-7.5,0.3-11.2,0.5
				c-4.6,0.2-8.3-1.1-11.9-5.3c9-0.4,18-1,27-1.2C338.3,447.3,341.8,447.3,345.4,447.4z M223,460.1c1.7-0.7,3.5-1.3,5.2-2
				c11.2-4.4,22.7-8.3,34.9-12.7c-1,4.8-2.4,8-7.2,9.5c-11.3,3.6-22.4,7.6-33.5,11.6c-10-6.3-20.1-12.5-30.3-18.4
				c-4.5-2.6-5.1-5.9-5.1-10.9c11,6.9,21.4,13,31.4,19.7C219.9,458.1,221.5,459.1,223,460.1z M112.1,414.3c1.8,0.4,3.6,0.8,5.4,1.2
				c11.8,2.4,23.5,5.3,36.2,8.2c-3.5,3.5-6.3,5.4-11.2,4.1c-11.4-3-23-5.7-34.5-8.3c-5-10.7-10.1-21.4-15.5-31.9
				c-2.4-4.6-1.1-7.7,1.6-11.9c5.5,11.7,10.9,22.5,15.8,33.6C110.6,410.9,111.4,412.6,112.1,414.3z M43.6,315.9
				c1.3,1.3,2.6,2.6,4,3.9c8.7,8.4,16.9,17.2,26,26.4c-4.8,1-8.2,1.2-11.7-2.6c-8-8.7-16.2-17.2-24.5-25.6
				c1.5-11.7,3.1-23.5,4.2-35.2c0.5-5.1,3.3-7.1,7.7-9.1c-1.7,12.8-3,24.8-4.9,36.8C44.2,312.2,43.9,314,43.6,315.9z M39.2,196
				c0.4,1.8,0.8,3.6,1.2,5.4c2.8,11.7,5,23.6,7.6,36.3c-4.6-1.7-7.5-3.5-8.4-8.5c-2-11.7-4.4-23.2-6.8-34.8
				c7.6-9,15.3-18.1,22.6-27.4c3.2-4,6.6-4.1,11.5-3.5c-8.3,9.9-15.9,19.3-24,28.3C41.6,193.2,40.5,194.6,39.2,196z M100.3,92.8
				c-0.6,1.8-1.3,3.5-1.9,5.2c-4,11.4-8.6,22.6-13.2,34.6c-2.9-3.9-4.5-7-2.5-11.7C87.3,110.1,91.6,99,95.8,88
				c11.3-3.5,22.6-7,33.8-10.8c4.9-1.7,7.8,0.1,11.5,3.3c-12.4,3.8-23.9,7.6-35.5,10.8C103.9,91.7,102.1,92.3,100.3,92.8z M207.5,39
				c-1.5,1.1-3,2.2-4.4,3.3c-9.6,7.4-19.4,14.3-29.9,22c-0.3-4.9,0-8.3,4.3-11.2c9.8-6.7,19.3-13.6,28.9-20.6
				c11.4,3.2,22.8,6.4,34.3,9.2c5,1.2,6.5,4.3,7.9,9c-12.5-3.5-24.2-6.5-35.7-10.1C211.1,40,209.3,39.5,207.5,39z M326.8,51.7
				c-1.9,0.2-3.7,0.3-5.5,0.4c-12,1-24.1,1.5-37,2.3c2.4-4.3,4.5-7,9.6-7.1c11.8-0.3,23.6-1,35.4-1.7c7.9,8.8,15.7,17.7,23.9,26.2
				c3.5,3.7,3.2,7.1,1.8,11.8c-8.6-9.7-16.8-18.5-24.6-27.8C329.2,54.5,328,53.1,326.8,51.7z M420.2,126.8c-1.7-0.9-3.3-1.8-4.9-2.7
				c-10.7-5.6-21.1-11.7-32.4-18c4.3-2.3,7.6-3.4,12-0.8c10.1,6.1,20.4,11.9,30.7,17.7c1.9,11.7,3.7,23.4,5.9,35
				c1,5-1.2,7.7-4.9,10.9c-2-12.8-4.1-24.7-5.7-36.6C420.8,130.5,420.5,128.7,420.2,126.8z M458.2,240.6c-0.9-1.6-1.8-3.3-2.7-4.9
				c-5.9-10.5-11.4-21.3-17.5-32.7c4.9,0.3,8.2,1.2,10.5,5.8c5.2,10.6,10.8,21.1,16.3,31.5c-4.8,10.8-9.5,21.6-13.9,32.6
				c-1.9,4.8-5.1,5.8-10,6.6c5.2-11.8,9.9-23,15-33.9C456.7,244,457.4,242.3,458.2,240.6z M428.7,356.9c0.1-1.9,0.3-3.7,0.4-5.6
				c0.7-12,1.9-24.1,2.9-37c3.9,2.9,6.3,5.4,5.7,10.5c-1.4,11.7-2.4,23.5-3.3,35.3c-9.9,6.5-19.7,13-29.4,19.9
				c-4.2,3-7.5,2.1-12,0.1c10.8-7.1,20.7-14,31-20.4C425.6,358.9,427.1,357.8,428.7,356.9z M341,438.7c1.1-1.5,2.2-3,3.3-4.5
				c7.1-9.8,14.6-19.2,22.5-29.5c1.7,4.6,2.3,8-0.9,11.9c-7.5,9.1-14.7,18.5-21.9,27.9c-11.8,0.2-23.7,0.3-35.5,0.9
				c-5.1,0.3-7.5-2.3-10.1-6.4c13-0.2,25-0.6,37.1-0.4C337.3,438.7,339.2,438.7,341,438.7z M224.1,449.8c6.2-2.8,12.3-5.6,18.5-8.1
				c5.5-2.3,11.5-3.5,17.3-4.8c1.4-0.3,3.2,1,4.9,1.6c-0.8,1.4-1.3,3.5-2.5,4c-11.1,4.6-22.4,9.1-33.6,13.5
				c-1.9,0.7-3.7,1.4-5.6,2.2c-1.7-1.1-3.3-2.2-5-3.3c-10.1-6.7-20.1-13.4-30-20.3c-1.1-0.7-1.1-2.9-1.6-4.4
				c1.7-0.2,3.8-1.1,5.1-0.5c5.4,2.5,11,5,15.9,8.3C213.2,441.8,218.7,445.8,224.1,449.8z M118.6,406.3c6.7,1,13.4,2,20,3.2
				c5.9,1.1,11.6,3.2,17.2,5.3c1.4,0.5,2.2,2.6,3.3,4c-1.4,0.7-3,2.3-4.2,2c-11.9-2.1-23.7-4.5-35.6-6.8c-1.9-0.4-3.9-0.8-5.9-1.2
				c-0.8-1.8-1.6-3.7-2.4-5.5c-4.8-11.1-9.7-22.1-14.3-33.3c-0.5-1.2,0.7-3,1.1-4.6c1.6,0.8,3.8,1.1,4.6,2.4
				c3.2,5,6.5,10.1,8.8,15.6C113.8,393.7,116.2,400,118.6,406.3z M53.4,312.6c5.1,4.5,10.2,8.9,15.1,13.5c4.4,4.1,8,9,11.6,13.7
				c0.9,1.2,0.4,3.4,0.6,5.1c-1.6-0.2-3.7,0.3-4.7-0.6c-8.8-8.2-17.5-16.6-26.2-25c-1.4-1.4-2.9-2.8-4.3-4.2c0.3-2,0.6-3.9,0.9-5.9
				c1.9-11.9,3.8-23.8,6-35.7c0.2-1.3,2.2-2.2,3.4-3.3c0.9,1.5,2.6,3,2.6,4.5c0,6,0,12.1-1,17.9C56.2,299.4,54.8,306,53.4,312.6z
				 M49.2,198.6c1.9,6.5,3.7,13,5.4,19.5c1.4,5.8,1.8,11.9,2.3,17.8c0.1,1.5-1.5,3.1-2.3,4.6c-1.3-1-3.3-1.8-3.6-3
				c-3-11.7-5.8-23.4-8.6-35.2c-0.5-1.9-0.9-3.9-1.4-5.8c1.3-1.5,2.7-3,4-4.5c8-9,16.1-18,24.3-26.8c0.9-0.9,3-0.6,4.6-0.9
				c0,1.7,0.6,3.9-0.2,5.1c-3.2,5-6.5,10.2-10.5,14.6C58.7,189,54,193.8,49.2,198.6z M107.4,100.4c-1.9,6.5-3.9,12.9-6,19.3
				c-1.9,5.6-4.8,11-7.7,16.2c-0.7,1.3-2.9,1.8-4.4,2.7c-0.5-1.5-1.8-3.3-1.4-4.5c3.8-11.4,7.8-22.8,11.8-34.2
				c0.7-1.9,1.3-3.8,2-5.7c1.9-0.5,3.8-1.1,5.8-1.6c11.6-3.2,23.3-6.4,35-9.4c1.2-0.3,2.9,1.1,4.4,1.7c-1,1.4-1.6,3.6-3,4.2
				c-5.5,2.5-11,5-16.8,6.5C120.5,97.4,113.9,98.9,107.4,100.4z M209.4,49.2c-5.1,4.4-10.3,8.8-15.5,13c-4.6,3.7-10,6.6-15.2,9.5
				c-1.3,0.7-3.4,0-5.1-0.1c0.4-1.5,0.3-3.7,1.2-4.5c9.4-7.6,18.9-15,28.4-22.4c1.6-1.2,3.2-2.4,4.7-3.7c1.9,0.6,3.8,1.2,5.7,1.8
				c11.5,3.6,23.1,7.2,34.5,11c1.2,0.4,1.8,2.5,2.7,3.8c-1.6,0.7-3.3,2.1-4.8,1.9c-5.9-0.8-12-1.7-17.6-3.5
				C222,53.8,215.7,51.5,209.4,49.2z M322.8,61.2c-6.7,0.9-13.4,1.9-20.1,2.6c-5.9,0.6-12,0.2-18-0.2c-1.5-0.1-2.9-1.9-4.3-2.9
				c1.2-1.1,2.2-3,3.5-3.1c12-1.3,24-2.4,36-3.5c2-0.2,4-0.4,6-0.5c1.3,1.5,2.6,3.1,3.9,4.6c7.7,9.2,15.5,18.5,23.1,27.9
				c0.8,1,0.2,3.1,0.3,4.7c-1.7-0.3-4,0-5.1-1c-4.5-3.9-9.1-7.9-12.9-12.5C331,72,326.9,66.6,322.8,61.2z M411.8,132.7
				c-6.1-2.8-12.3-5.6-18.3-8.7c-5.3-2.7-10.2-6.4-15-9.9c-1.2-0.9-1.4-3.1-2-4.7c1.6-0.3,3.5-1.3,4.6-0.8
				c10.8,5.4,21.5,11,32.2,16.6c1.8,0.9,3.5,1.9,5.3,2.8c0.3,2,0.5,4,0.8,5.9c1.5,12,3.1,23.9,4.3,36c0.2,1.3-1.5,2.7-2.3,4.1
				c-1.3-1.2-3.3-2.1-3.7-3.5c-1.7-5.7-3.4-11.6-4.1-17.5C412.8,146.2,412.3,139.5,411.8,132.7z M447.9,241
				c-3.6-5.7-7.2-11.4-10.7-17.2c-3-5.1-5.1-10.8-7.2-16.4c-0.5-1.4,0.5-3.4,0.8-5.1c1.5,0.6,3.7,0.8,4.3,1.9
				c6.2,10.4,12.1,20.9,18.1,31.3c1,1.7,2,3.5,3,5.2c-0.8,1.8-1.7,3.6-2.6,5.4c-5.2,10.9-10.4,21.8-15.8,32.6
				c-0.6,1.1-2.7,1.5-4.2,2.2c-0.4-1.7-1.6-3.6-1.2-5c1.7-5.7,3.4-11.6,6-16.9C441.5,252.9,444.7,246.9,447.9,241z M419.8,351.6
				c0-6.7,0-13.5,0.3-20.2c0.2-6,1.6-11.9,2.8-17.8c0.3-1.4,2.3-2.5,3.5-3.8c0.9,1.3,2.7,2.6,2.6,3.9c-0.4,12.1-1.1,24.1-1.7,36.2
				c-0.1,2-0.2,4-0.3,6c-1.7,1.1-3.4,2.1-5.1,3.2c-10.3,6.4-20.5,12.7-30.9,18.9c-1.1,0.7-3.1-0.2-4.7-0.4c0.5-1.7,0.6-3.9,1.7-4.9
				c4.5-3.9,9.1-7.9,14.2-11C408,358.1,413.9,354.8,419.8,351.6z M336.4,429.4c3.7-5.7,7.3-11.3,11.2-16.8c3.4-4.9,7.7-9.2,12-13.4
				c1-1,3.3-0.9,5-1.3c0,1.6,0.8,3.6,0.1,4.7c-6.8,9.9-13.9,19.7-21,29.5c-1.2,1.6-2.4,3.2-3.5,4.9c-2,0-4-0.1-6-0.1
				c-12.1-0.2-24.2-0.4-36.2-0.8c-1.3,0-2.5-1.9-3.7-2.9c1.4-1.1,2.6-3,4-3.2c5.9-0.8,12-1.7,17.9-1.6
				C322.9,428.5,329.6,429,336.4,429.4z M171.1,428.6c-3.7-2-5.4-5.7-7.6-9.6c-1-1.8-2.3-3.8-2.5-5.7c-0.4-5.8,2.4-10.3,6.7-14
				c1.2-0.9,2.4-1.8,4.6-3.4c-8.9-2.9-13-8.9-14.3-17.2c-1.3-7.5,0.8-14.3,11.5-17.4c0.7,1,1.2,2.2,2,3.2c2.5,2.9,3.2,5.1,0.1,8.8
				c-4.6,5.3-2.7,14.9,2.8,19.5c1.2,1,2.4,2.1,4.2,3.5c-3,1.5-5.6,2.4-7.6,3.9c-4.8,3.9-5.6,10.8-1.4,16.2c1.4,1.8,2.8,3.5,4.3,5.2
				c2.2-0.1,4.5-0.4,6.7-0.6c6.6-0.9,11-6.3,10.4-12.5c-0.3-2.5-1.5-4.9-2.6-8.1c2.3,0.2,3.9,0.3,5.5,0.4
				c7.2,0.6,15.3-4.9,15.8-11.8c0.4-4.7,2.4-5.9,6.3-6.1c1.3-0.1,2.5-0.5,3.7-0.8c5.4,9.7,2.1,16-4.1,20.4c-6.8,4.9-14,6.3-22.3,2.1
				c0.4,2.6,0.7,4.1,0.9,5.6c0.5,5.6-0.7,10.9-5.1,14.7c-1.5,1.3-3.8,1.7-5.8,2.3C179.1,428.4,175.1,429.8,171.1,428.6z M85.5,359.8
				c-2-3.6-1.5-7.8-1.2-12.2c0.1-2.1,0.1-4.4,1-6.1c2.8-5.1,7.6-7.4,13.2-8.1c1.5-0.2,3-0.2,5.7-0.3c-5.9-7.2-6.1-14.5-2.8-22.2
				c3-7,8.4-11.6,19-8.4c0,1.2-0.2,2.5,0,3.8c0.5,3.8-0.1,6.1-4.7,7.4c-6.7,2-10.3,11.1-8.2,18c0.5,1.5,0.9,3.1,1.6,5.2
				c-3.4-0.3-6-1.1-8.5-0.8c-6.2,0.7-10.5,6.1-9.9,12.8c0.2,2.2,0.5,4.5,0.8,6.7c2,1.1,4,2.1,6,3.1c6.1,2.9,12.6,0.7,15.5-4.9
				c1.1-2.3,1.3-5,2.2-8.3c1.8,1.4,3.1,2.4,4.4,3.3c5.7,4.4,15.5,4.2,19.7-1.4c2.9-3.8,5.2-3.6,8.6-1.8c1.1,0.6,2.4,0.9,3.5,1.4
				c-0.7,11-6.9,14.6-14.5,14.9c-8.4,0.4-15.1-2.3-19.9-10.3c-1.1,2.4-1.6,3.9-2.3,5.2c-2.6,5-6.4,8.8-12.2,9.6
				c-1.9,0.3-4.1-0.6-6.1-1.2C92.3,363.9,88.2,363,85.5,359.8z M50.7,255.6c0.3-4.2,3-7.3,5.6-10.9c1.2-1.7,2.4-3.7,4.2-4.6
				c5.1-2.8,10.4-2.1,15.5,0.3c1.4,0.6,2.6,1.4,5,2.8c-1.1-9.3,2.7-15.5,9.7-20.2c6.3-4.2,13.4-5.2,20.6,3.2c-0.7,1-1.5,2-2,3.2
				c-1.6,3.5-3.4,5-7.9,3.7c-6.7-1.9-14.7,3.8-16.6,10.7c-0.4,1.5-0.9,3.1-1.5,5.3c-2.6-2.1-4.5-4.2-6.7-5.3
				c-5.6-2.7-12.2-0.6-15.3,5.4c-1,2-2,4-2.9,6.1c1,2,2.2,3.9,3.4,5.8c3.5,5.7,10.3,7.4,15.6,4.3c2.2-1.3,3.9-3.5,6.3-5.8
				c0.8,2.1,1.3,3.6,1.9,5.1c2.5,6.8,10.8,11.9,17.3,9.5c4.5-1.6,6.3-0.3,8.2,3.1c0.6,1.1,1.5,2.1,2.2,3c-6.6,8.9-13.7,8.5-20.3,4.8
				c-7.3-4.2-11.5-10.1-11.1-19.4c-2.2,1.5-3.4,2.4-4.7,3.1c-4.9,2.8-10.1,3.9-15.4,1.5c-1.8-0.8-3.2-2.7-4.5-4.3
				C54.2,262.7,51.3,259.7,50.7,255.6z M77.8,149.1c2.5-3.4,6.5-4.6,10.5-6.2c1.9-0.8,4-1.8,6-1.6c5.8,0.4,9.9,3.9,12.9,8.7
				c0.8,1.3,1.4,2.6,2.7,5c4.1-8.4,10.6-11.6,19-11.8c7.6-0.2,14,2.9,15.5,13.8c-1.1,0.5-2.3,0.9-3.4,1.6c-3.3,2.1-5.6,2.4-8.7-1.2
				c-4.6-5.3-14.4-4.7-19.7,0c-1.2,1.1-2.4,2.1-4.1,3.6c-1.1-3.2-1.5-5.9-2.8-8.1c-3.2-5.3-9.9-7-15.8-3.7c-1.9,1.1-3.9,2.3-5.7,3.5
				c-0.2,2.2-0.3,4.5-0.3,6.7c-0.1,6.7,4.6,11.8,10.8,12c2.5,0.1,5.1-0.8,8.4-1.4c-0.5,2.2-0.8,3.8-1.2,5.4
				c-1.6,7,2.6,15.8,9.5,17.3c4.6,1,5.5,3.2,5.2,7.1c-0.1,1.3,0.2,2.6,0.3,3.8c-10.4,3.9-16.1-0.2-19.6-7
				c-3.9-7.5-4.2-14.7,1.2-22.4c-2.7,0-4.2,0.2-5.7,0.1c-5.6-0.3-10.6-2.2-13.8-7.1c-1.1-1.7-1.2-4-1.5-6.1
				C76.8,157,76,152.9,77.8,149.1z M158.1,74.2c3.9-1.5,7.9-0.4,12.2,0.5c2,0.4,4.4,0.7,5.9,1.9c4.7,3.5,6.2,8.6,6.1,14.2
				c0,1.5-0.3,3-0.5,5.7c8-4.8,15.2-4,22.4,0.4c6.5,4,10.2,10,5.6,20c-1.2-0.2-2.5-0.5-3.7-0.5c-3.9,0-6-1-6.7-5.7
				c-1-6.9-9.5-11.7-16.7-10.6c-1.6,0.3-3.2,0.5-5.4,0.8c0.8-3.3,1.9-5.8,2-8.3c0.2-6.2-4.5-11.3-11.3-11.6
				c-2.2-0.1-4.5-0.2-6.7-0.1c-1.3,1.8-2.7,3.6-3.9,5.5c-3.7,5.6-2.5,12.4,2.6,16c2.1,1.4,4.7,2.1,7.9,3.4c-1.6,1.6-2.8,2.7-3.9,3.9
				c-5.1,5-6.3,14.7-1.4,19.7c3.3,3.4,2.9,5.6,0.6,8.8c-0.8,1-1.3,2.2-1.8,3.3c-10.9-2.3-13.4-8.9-12.7-16.4
				c0.8-8.4,4.4-14.7,13-18.2c-2.3-1.4-3.6-2.1-4.8-3c-4.6-3.3-7.8-7.6-7.8-13.4c0-2,1.2-4,2.1-5.9
				C153.1,80.3,154.5,76.4,158.1,74.2z M266.1,54.6c4.1,0.8,6.9,4,10,7c1.5,1.5,3.3,2.9,4,4.8c2.1,5.5,0.6,10.6-2.5,15.3
				c-0.8,1.2-1.8,2.4-3.5,4.5c9.3,0.3,15,4.9,18.6,12.5c3.3,6.8,3.2,13.9-6.1,19.9c-0.9-0.8-1.8-1.8-2.9-2.4c-3.2-2.1-4.5-4-2.5-8.4
				c2.9-6.4-1.7-15-8.3-17.9c-1.5-0.7-2.9-1.3-5-2.2c2.5-2.3,4.7-3.8,6.2-5.9c3.5-5.1,2.3-12-3.2-15.9c-1.8-1.3-3.7-2.6-5.6-3.8
				c-2.1,0.8-4.2,1.6-6.2,2.5c-6.2,2.7-8.8,9.1-6.4,14.9c1,2.3,2.9,4.3,4.8,7.1c-2.2,0.5-3.8,0.8-5.4,1.1c-7.1,1.5-13.3,9-11.8,15.8
				c1,4.6-0.6,6.3-4.3,7.7c-1.2,0.5-2.3,1.2-3.3,1.8c-7.9-7.8-6.5-14.7-1.8-20.7c5.2-6.7,11.6-9.9,20.8-8.3
				c-1.1-2.4-1.9-3.7-2.4-5.1c-2.1-5.3-2.4-10.6,0.7-15.5c1.1-1.7,3.1-2.7,4.9-3.8C258.6,57,262,54.5,266.1,54.6z M367.7,96.5
				c3,2.9,3.6,7,4.6,11.3c0.5,2,1.2,4.3,0.8,6.2c-1.2,5.7-5.2,9.2-10.4,11.5c-1.4,0.6-2.8,1-5.4,1.9c7.7,5.3,9.9,12.2,8.9,20.5
				c-0.9,7.5-4.9,13.5-15.9,13.4c-0.3-1.2-0.6-2.4-1.1-3.6c-1.6-3.5-1.6-5.8,2.4-8.4c5.9-3.8,6.7-13.6,2.8-19.5
				c-0.9-1.3-1.8-2.7-3-4.6c3.3-0.6,6.1-0.7,8.4-1.6c5.7-2.4,8.4-8.8,5.9-15.1c-0.8-2.1-1.7-4.1-2.7-6.2c-2.2-0.5-4.4-0.9-6.6-1.3
				c-6.7-1.1-12.3,2.9-13.5,9c-0.5,2.5,0.1,5.2,0.2,8.6c-2.1-0.8-3.6-1.4-5.1-1.9c-6.7-2.6-16,0.4-18.5,6.9
				c-1.7,4.4-3.9,4.9-7.7,4.1c-1.3-0.3-2.5-0.2-3.8-0.3c-2.4-10.8,2.5-15.9,9.7-18.4c8-2.8,15.2-2.1,22,4.3c0.3-2.7,0.5-4.2,0.7-5.6
				c1.1-5.6,3.7-10.2,9-12.6c1.8-0.8,4.1-0.6,6.2-0.6C360,94.5,364.2,94.2,367.7,96.5z M430.4,186.7c0.9,4.1-0.8,7.9-2.2,12
				c-0.7,2-1.3,4.2-2.7,5.6c-4.1,4.1-9.4,5-15,4c-1.5-0.2-2.9-0.7-5.5-1.3c3.6,8.6,1.8,15.6-3.6,22.1c-4.9,5.8-11.4,8.7-20.6,2.7
				c0.3-1.2,0.8-2.4,1-3.6c0.6-3.8,1.8-5.8,6.6-5.8c7,0,13-7.7,12.9-14.9c0-1.6,0-3.2-0.1-5.5c3.2,1.3,5.5,2.7,7.9,3.2
				c6.1,1.1,11.8-2.9,13.1-9.5c0.4-2.2,0.8-4.4,1.1-6.6c-1.6-1.6-3.2-3.1-4.9-4.6c-5-4.5-11.9-4.2-16.2,0.3
				c-1.7,1.8-2.7,4.4-4.4,7.3c-1.4-1.8-2.3-3.1-3.3-4.4c-4.3-5.8-13.7-8.4-19.3-4.2c-3.8,2.8-6,2-8.7-0.7c-0.9-0.9-2-1.5-3-2.3
				c3.8-10.4,10.7-12,18.1-10.3c8.2,1.9,13.9,6.5,16.2,15.5c1.7-2,2.6-3.3,3.7-4.3c3.9-4.1,8.6-6.6,14.4-5.8
				c1.9,0.3,3.8,1.7,5.5,2.9C425.1,180.8,428.7,182.8,430.4,186.7z M434.5,296.4c-1.4,3.9-4.9,6.2-8.4,8.9c-1.6,1.3-3.4,2.8-5.3,3.3
				c-5.7,1.3-10.6-0.9-14.8-4.7c-1.1-1-2.1-2.1-4-4c-1.6,9.2-6.9,14.1-15,16.7c-7.2,2.3-14.2,1.2-18.8-8.9c0.9-0.8,2-1.5,2.8-2.5
				c2.6-2.9,4.6-3.9,8.7-1.4c5.9,3.7,15.1,0.5,18.9-5.6c0.8-1.4,1.7-2.7,2.9-4.6c1.9,2.8,3.1,5.2,5,7c4.6,4.2,11.5,4,16.2-0.9
				c1.6-1.6,3.1-3.3,4.5-5c-0.4-2.2-1-4.4-1.6-6.5c-1.8-6.5-7.7-10-13.8-8.5c-2.4,0.6-4.6,2.2-7.7,3.7c-0.2-2.3-0.3-3.9-0.4-5.5
				c-0.4-7.2-7-14.4-14-14c-4.7,0.3-6.1-1.5-7-5.3c-0.3-1.2-0.8-2.4-1.3-3.5c8.8-6.7,15.5-4.3,20.8,1.2c5.8,6.1,8.2,12.9,5.2,21.8
				c2.5-0.8,4-1.3,5.4-1.7c5.5-1.3,10.8-0.9,15.2,2.9c1.5,1.3,2.3,3.5,3.1,5.4C433.1,288.6,435.1,292.3,434.5,296.4z M378.5,391
				c-3.3,2.5-7.5,2.6-11.9,2.9c-2.1,0.2-4.4,0.6-6.2-0.1c-5.5-2-8.4-6.5-9.9-12c-0.4-1.4-0.6-2.9-1.1-5.6
				c-6.3,6.9-13.5,8.1-21.6,5.9c-7.3-2-12.6-6.7-11-17.7c1.2-0.2,2.5-0.2,3.7-0.6c3.7-1.1,6-0.8,8,3.6c3,6.3,12.5,8.6,19,5.5
				c1.4-0.7,2.9-1.4,5-2.3c0.1,3.4-0.2,6.1,0.4,8.5c1.6,6,7.5,9.5,14.1,8c2.2-0.5,4.4-1.1,6.5-1.8c0.8-2.1,1.5-4.2,2.2-6.4
				c2-6.4-1.1-12.6-7-14.6c-2.4-0.8-5.1-0.7-8.5-1c1.1-2,1.9-3.4,2.6-4.8c3.5-6.3,1.9-15.9-4.2-19.3c-4.2-2.3-4.3-4.6-3-8.2
				c0.4-1.2,0.6-2.5,0.8-3.7c11-0.9,15.4,4.8,16.8,12.2c1.6,8.3-0.1,15.3-7.4,21.1c2.6,0.7,4.1,1,5.5,1.5c5.3,1.9,9.6,5.1,11.2,10.7
				c0.6,1.9,0,4.2-0.3,6.2C381.6,383.7,381.3,387.8,378.5,391z M280.4,440.2c-4.2,0.3-7.7-1.9-11.6-3.9c-1.8-1-4-1.9-5.2-3.5
				c-3.5-4.7-3.6-10-1.9-15.4c0.4-1.4,1.1-2.8,2-5.3c-9,2.4-15.7-0.4-21.4-6.7c-5.1-5.6-7-12.5,0.3-20.8c1.1,0.5,2.2,1.2,3.4,1.5
				c3.7,1.1,5.5,2.6,4.8,7.3c-0.9,6.9,5.8,14,13,14.9c1.6,0.2,3.2,0.4,5.4,0.7c-1.7,2.9-3.5,5-4.2,7.4c-1.9,5.9,1.2,12.1,7.5,14.3
				c2.1,0.8,4.2,1.4,6.4,2c1.8-1.3,3.6-2.7,5.3-4.2c5.2-4.3,5.9-11.2,2-16.1c-1.6-2-4-3.3-6.6-5.4c2-1.1,3.4-1.9,4.8-2.6
				c6.4-3.4,10.2-12.4,6.9-18.5c-2.3-4.2-1.2-6.2,1.9-8.6c1-0.8,1.8-1.8,2.7-2.6c9.8,5.2,10.4,12.3,7.6,19.4
				c-3.1,7.8-8.4,12.8-17.6,13.8c1.8,2,2.8,3.1,3.8,4.2c3.5,4.5,5.3,9.5,3.7,15.1c-0.6,1.9-2.3,3.5-3.6,5.1
				C286.9,435.8,284.4,439.1,280.4,440.2z M164.7,444.2c-0.8-4.4,1.3-7.7,4.3-10.4C169.1,437.8,168.3,441.7,164.7,444.2z
				 M71.7,369.4c1.7-4.1,5.3-5.7,9.2-6.4C78.9,366.5,76.1,369.2,71.7,369.4z M33.9,256.2c3.7-2.5,7.5-2,11.3-0.4
				C41.5,257.6,37.7,258.4,33.9,256.2z M63.3,140.5c4.4-0.1,7.4,2.4,9.7,5.7C68.9,145.9,65.3,144.5,63.3,140.5z M150.5,59.1
				c3.8,2.3,4.9,6,5,10C152.4,66.7,150.1,63.5,150.5,59.1z M267.9,37.8c1.9,4,0.9,7.7-1.2,11.2C265.5,45.2,265.2,41.3,267.9,37.8z
				 M378.2,83.4c-0.5,4.4-3.5,7-7,8.8C372.2,88.2,374.1,84.8,378.2,83.4z M446.4,181.3c-2.8,3.4-6.7,4-10.7,3.6
				C438.7,182.1,442.1,180.3,446.4,181.3z M450.8,300.6c-4.2,1.4-7.8-0.3-10.9-2.8C443.9,297.1,447.8,297.4,450.8,300.6z M390,403.3
				c-4.3-1.1-6.4-4.4-7.7-8.2C386.1,396.6,389.2,398.9,390,403.3z M283.4,456.8c-3-3.2-3-7.2-2-11.1
				C283.6,449.1,285,452.7,283.4,456.8z M242.4,277.4c2.5-1.5,5-3,7.5-4.4c2.9,0.5,5.7,1,8.6,1.5c1.3-2.6,2.6-5.2,3.9-7.8
				c2.7-1.1,5.3-2.3,8-3.4c-0.3-2.9-0.6-5.8-0.9-8.7c1.6-2.4,3.3-4.8,4.9-7.2c-1.8-2.3-3.6-4.5-5.5-6.8c0.1-2.9,0.2-5.8,0.3-8.7
				c-2.8-0.9-5.5-1.9-8.3-2.8c-1.5-2.5-3-5-4.5-7.5c-2.9,0.7-5.7,1.4-8.5,2.1c-2.6-1.3-5.2-2.5-7.8-3.9c-2,2.2-4,4.3-6,6.4
				c-2.9,0.3-5.7,0.7-8.7,1c-0.5,2.9-1.1,5.7-1.6,8.6c-2.3,1.8-4.5,3.6-6.8,5.5c1.1,2.7,2.2,5.4,3.3,8.1c-0.9,2.8-1.8,5.5-2.7,8.3
				c2.4,1.7,4.8,3.3,7.2,5c0.7,2.8,1.5,5.6,2.2,8.4c3,0.1,5.9,0.2,8.8,0.3C238.2,273.4,240.3,275.4,242.4,277.4z M252.1,284.5
				c-1.1,0.5-1.9,1.1-2.9,2.2c-1.8-1.2-3.4-2.4-5.5-3.1c-0.6-0.2-1.3-0.5-1.9-0.7c-0.7,0.1-1.4,0.2-2,0.3c-2.2,0.3-4,1.1-6,1.9
				c-0.7-1.3-1.4-2.1-2.3-2.8c-1.2-0.2-2.3-0.1-3.6,0.3c-0.8-2-1.6-3.8-2.9-5.6c-0.4-0.5-0.8-1.1-1.2-1.6c-0.6-0.3-1.2-0.6-1.8-0.8
				c-2-0.9-4-1.3-6.1-1.7c0.1-1.4,0-2.5-0.5-3.6c-0.9-0.8-1.8-1.3-3.2-1.7c0.3-2.1,0.8-4.1,0.5-6.2c0-0.7-0.1-1.4-0.1-2
				c-0.4-0.6-0.8-1.1-1.1-1.7c-1.2-1.9-2.6-3.2-4.2-4.7c0.9-1.1,1.4-2.1,1.6-3.3c-0.3-1.1-0.8-2.1-1.8-3.2c1.4-1.6,2.8-3,3.8-5
				c0.3-0.6,0.6-1.2,1-1.8c0-0.7,0-1.4,0-2c0-2.2-0.5-4.1-1-6.2c1.3-0.5,2.3-1.1,3.1-1.9c0.3-1.1,0.4-2.2,0.2-3.6
				c2.1-0.6,4-1,5.9-2.1c0.6-0.3,1.2-0.7,1.8-1c0.4-0.6,0.7-1.2,1.1-1.7c1.2-1.8,1.8-3.7,2.5-5.7c1.4,0.3,2.5,0.3,3.6,0.1
				c0.9-0.8,1.6-1.6,2.1-3c2.1,0.6,3.9,1.3,6.1,1.4c0.7,0,1.4,0.1,2,0.1c0.6-0.3,1.2-0.6,1.8-0.8c2-0.9,3.5-2.1,5.2-3.5
				c1,1,1.9,1.6,3,2c1.2-0.1,2.2-0.5,3.4-1.3c1.4,1.7,2.6,3.2,4.4,4.5c0.5,0.4,1.1,0.8,1.6,1.2c0.7,0.1,1.3,0.2,2,0.3
				c2.2,0.3,4.1,0.1,6.3-0.1c0.3,1.4,0.7,2.4,1.5,3.3c1,0.5,2.1,0.8,3.5,0.7c0.3,2.1,0.5,4.1,1.3,6.1c0.3,0.6,0.5,1.3,0.7,1.9
				c0.5,0.4,1,0.9,1.5,1.3c1.6,1.5,3.4,2.3,5.3,3.3c-0.5,1.3-0.7,2.4-0.6,3.6c0.6,1,1.4,1.8,2.6,2.5c-0.9,1.9-1.9,3.7-2.3,5.8
				c-0.2,0.7-0.3,1.3-0.4,2c0.2,0.7,0.4,1.3,0.6,1.9c0.6,2.1,1.6,3.8,2.7,5.7c-1.2,0.8-1.9,1.7-2.4,2.7c0,1.2,0.2,2.3,0.8,3.5
				c-1.8,1.1-3.6,2.1-5.1,3.7c-0.5,0.5-1,1-1.4,1.4c-0.2,0.7-0.4,1.3-0.6,2c-0.7,2.1-0.7,4.1-0.8,6.2c-1.4,0.1-2.5,0.4-3.5,1
				c-0.7,1-1,2-1.2,3.4c-2.2,0-4.1-0.1-6.3,0.4c-0.7,0.2-1.3,0.3-2,0.4c-0.5,0.5-1,0.9-1.5,1.3c-1.7,1.4-2.8,3.1-4,4.8
				C254.3,284.9,253.3,284.6,252.1,284.5z M247.1,256.8c-0.8-0.5-1.5-1-2.3-1.4c-0.8,0.3-1.7,0.6-2.5,0.9c-0.4-0.8-0.7-1.6-1.1-2.4
				c-0.9-0.2-1.7-0.4-2.6-0.6c0.1-0.9,0.3-1.8,0.4-2.7c-0.6-0.6-1.3-1.3-1.9-1.9c0.6-0.7,1.2-1.4,1.7-2c-0.2-0.9-0.4-1.8-0.6-2.6
				c0.8-0.3,1.7-0.5,2.6-0.8c0.3-0.8,0.6-1.7,0.9-2.5c0.9,0.3,1.7,0.5,2.6,0.8c0.7-0.5,1.4-1.1,2.2-1.6c0.6,0.7,1.2,1.3,1.7,2
				c0.9-0.1,1.8-0.1,2.7-0.2c0.1,0.9,0.3,1.8,0.4,2.7c0.8,0.4,1.6,0.8,2.4,1.3c-0.4,0.8-0.7,1.6-1.1,2.4c0.4,0.8,0.8,1.6,1.3,2.4
				c-0.8,0.5-1.5,1-2.2,1.4c-0.1,0.9-0.2,1.8-0.2,2.7c-0.9,0-1.8,0-2.7,0C248.1,255.4,247.6,256.1,247.1,256.8z M245.3,250.8
				c0.3,0,0.5,0,0.7,0.1c0.2-0.1,0.4-0.2,0.6-0.3c0.2-0.1,0.4-0.2,0.6-0.3c0.1-0.2,0.3-0.4,0.4-0.6c0.1-0.2,0.2-0.4,0.3-0.6
				c0-0.2,0-0.5,0-0.7c0-0.2,0-0.5-0.1-0.7c-0.1-0.2-0.3-0.4-0.4-0.6c-0.1-0.2-0.3-0.4-0.4-0.6c-0.2-0.1-0.4-0.2-0.7-0.3
				c-0.2-0.1-0.4-0.2-0.7-0.3c-0.2,0-0.5,0.1-0.7,0.1c-0.2,0.1-0.5,0.1-0.7,0.2c-0.2,0.2-0.3,0.3-0.5,0.5c-0.2,0.2-0.3,0.3-0.5,0.5
				c-0.1,0.2-0.1,0.4-0.2,0.7c-0.1,0.2-0.1,0.4-0.2,0.7c0.1,0.2,0.1,0.5,0.2,0.7c0.1,0.2,0.2,0.4,0.2,0.7c0.2,0.2,0.4,0.3,0.5,0.5
				c0.2,0.1,0.4,0.3,0.6,0.4C244.8,250.8,245,250.8,245.3,250.8z M244.6,257.1c1,0.6,1.9,1.2,2.8,1.8c0.6-0.9,1.3-1.8,2-2.6
				c1.1-0.1,2.2-0.1,3.3-0.1c0.1-1.1,0.1-2.2,0.3-3.3c0.9-0.7,1.8-1.3,2.8-1.9c-0.6-0.9-1.1-1.9-1.6-2.9c0.4-1,0.9-2.1,1.3-3
				c-1-0.5-1.9-1.1-2.9-1.6c-0.2-1.1-0.4-2.2-0.5-3.3c-1.1,0.1-2.2,0.2-3.3,0.2c-0.8-0.8-1.5-1.6-2.2-2.5c-0.9,0.7-1.8,1.3-2.7,2
				c-1.1-0.3-2.2-0.6-3.2-0.9c-0.3,1-0.7,2.1-1.2,3.1c-1,0.4-2.1,0.7-3.2,1c0.3,1.1,0.5,2.2,0.7,3.3c-0.7,0.9-1.4,1.7-2.2,2.5
				c0.8,0.8,1.6,1.5,2.4,2.4c-0.1,1.1-0.3,2.2-0.4,3.3c1.1,0.2,2.2,0.4,3.3,0.8c0.5,1,1,2,1.4,3
				C242.5,257.9,243.5,257.5,244.6,257.1z M249.5,270.3c-0.9,0.4-1.9,0.8-2.9,1.1c-0.8,0.3-2.1-0.2-2.9-0.7
				c-0.2-0.1-0.3-0.2-0.5-0.4c-0.2,0.1-0.4,0.2-0.6,0.3c-0.9,0.3-2.2,0.5-3,0.1c-0.9-0.5-1.7-1.1-2.6-1.7c-1-0.2-2-0.4-3-0.6
				c-0.8-0.2-1.7-1.3-2-2.2c-0.1-0.2-0.2-0.4-0.3-0.6c-0.2,0-0.4-0.1-0.6-0.1c-0.9-0.2-2.2-0.8-2.5-1.5c-0.4-0.9-0.9-1.9-1.3-2.8
				c-0.7-0.7-1.5-1.4-2.2-2.2c-0.6-0.6-0.7-2-0.5-2.9c0-0.2,0.1-0.4,0.1-0.6c-0.2-0.2-0.3-0.3-0.5-0.5c-0.7-0.7-1.4-1.8-1.3-2.7
				c0.1-1,0.3-2,0.4-3c-0.3-1-0.5-2-0.7-3c-0.2-0.8,0.5-2,1.1-2.7c0.1-0.2,0.3-0.3,0.4-0.5c0-0.2-0.1-0.4-0.2-0.6
				c-0.2-0.9-0.2-2.3,0.3-2.9c0.6-0.8,1.3-1.6,2-2.3c0.3-1,0.7-1.9,1-2.9c0.3-0.8,1.5-1.4,2.4-1.7c0.2-0.1,0.4-0.1,0.6-0.2
				c0.1-0.2,0.1-0.4,0.2-0.6c0.3-0.9,1.1-2,1.9-2.3c1-0.3,1.9-0.6,2.9-0.9c0.8-0.6,1.6-1.3,2.4-1.8c0.7-0.5,2-0.4,3-0.1
				c0.2,0.1,0.4,0.1,0.6,0.2c0.2-0.1,0.3-0.3,0.5-0.4c0.8-0.6,2-1.2,2.8-0.9c1,0.3,2,0.6,2.9,0.9c1-0.1,2-0.2,3-0.2
				c0.8-0.1,1.9,0.8,2.6,1.5c0.1,0.2,0.3,0.3,0.4,0.5c0.2,0,0.4-0.1,0.7-0.1c0.9-0.1,2.3,0.1,2.9,0.8c0.7,0.8,1.4,1.5,2,2.3
				c0.9,0.5,1.8,0.9,2.7,1.5c0.7,0.4,1.2,1.7,1.4,2.6c0,0.2,0,0.4,0.1,0.7c0.2,0.1,0.4,0.2,0.6,0.3c0.8,0.5,1.9,1.3,2,2.2
				c0.2,1,0.3,2,0.4,3c0.5,0.9,1,1.8,1.5,2.7c0.4,0.7,0.1,2.1-0.3,2.9c-0.1,0.2-0.2,0.4-0.3,0.6c0.1,0.2,0.2,0.4,0.3,0.6
				c0.5,0.8,0.8,2.2,0.5,2.9c-0.4,0.9-0.8,1.9-1.3,2.8c0,1-0.1,2-0.2,3c-0.1,0.8-1,1.8-1.9,2.3c-0.2,0.1-0.4,0.2-0.6,0.3
				c0,0.2,0,0.4,0,0.7c-0.1,0.9-0.4,2.3-1.1,2.7c-0.8,0.6-1.7,1.1-2.6,1.6c-0.6,0.8-1.2,1.7-1.8,2.5c-0.5,0.7-1.9,1-2.8,0.9
				c-0.2,0-0.4,0-0.7,0c-0.1,0.2-0.3,0.3-0.4,0.5c-0.6,0.8-1.6,1.7-2.4,1.7C251.5,270.3,250.5,270.3,249.5,270.3z"/>
		</g>
	</g>
</g>
</svg>
