<?xml version="1.0" encoding="utf-8"?>
<!-- Generator: Adobe Illustrator 23.0.3, SVG Export Plug-In . SVG Version: 6.00 Build 0)  -->
<svg version="1.1" id="Calque_1" xmlns="http://www.w3.org/2000/svg" xmlns:xlink="http://www.w3.org/1999/xlink" x="0px" y="0px"
	 viewBox="0 0 500 500" style="enable-background:new 0 0 500 500;" xml:space="preserve">
<style type="text/css">
	.st0{fill:#231F20;}
</style>
<g>
	<g>
		<g>
			<g>
				<path class="st0" d="M136.8,402.8c-1-4.6-1.4-9.3-1.6-14c-2.6,5.5-1.9,11.1-0.4,16.5c5.6,0.4,11.2-0.1,16.1-3.8
					C146.2,402.3,141.5,402.8,136.8,402.8z"/>
			</g>
		</g>
		<g>
			<g>
				<path class="st0" d="M84.8,208.7c4.1-2.3,8.4-4.2,12.8-5.9c-6.1-0.7-11.2,1.7-15.8,4.8c1.4,5.4,3.6,10.6,8.6,14.1
					C88.2,217.4,86.3,213.1,84.8,208.7z"/>
			</g>
		</g>
		<g>
			<g>
				<path class="st0" d="M253.3,99.1c3.5,3.2,6.6,6.7,9.6,10.4c-1.2-6-5-10.1-9.4-13.6c-4.7,3-9,6.7-10.8,12.5
					C246.1,105.1,249.6,101.9,253.3,99.1z"/>
			</g>
		</g>
		<g>
			<g>
				<path class="st0" d="M409.5,225.6c-1.9,4.3-4.3,8.3-6.9,12.3c5.3-3,8.1-7.9,10-13.1c-4.3-3.6-9.1-6.5-15.2-6.4
					C401.6,220.5,405.7,222.9,409.5,225.6z"/>
			</g>
		</g>
		<g>
			<g>
				<path class="st0" d="M337.6,413.3c-4.6-0.5-9.3-1.5-13.8-2.8c4.5,4.1,10,5.2,15.6,5.4c2.1-5.2,3.3-10.7,1.4-16.4
					C339.9,404.2,339,408.8,337.6,413.3z"/>
			</g>
		</g>
		<g>
			<g>
				<path class="st0" d="M135.3,299.1c0.6,1.8,1.5,3.4,2.7,4.9c-3.2-2.9-7.6-1.9-11.3-0.7c-1.9,0.7-3.7,1.5-5.3,2.5
					c-1.6,1.1-3.1,2.4-5,2.9c3.2,2.1,6.2,4.4,10.2,4.3c-3.7,0.4-7.6,0.2-11.2,1.1c-6.9,1.7-12.6,4.6-16.6,10
					c-20.9,19.3-27.2,49.8-27.2,77.2c0,22.2,3.5,46.7,10.4,68.9c23.2,2.2,47.8,0.5,69.6-4.1c26.8-5.7,55.3-18.2,69.9-42.7
					c4.4-5,6.1-11.2,6.3-18.3c0.1-3.7-0.9-7.5-1.3-11.2c0.8,3.9,3.6,6.4,6.3,9c0.1-1.9,1.1-3.7,1.8-5.5c0.7-1.8,1.1-3.8,1.4-5.7
					c0.5-3.9,0.4-8.4-3-10.9c1.7,1,3.5,1.4,5.3,1.7c1.9-0.1,3.7-0.3,5.5-1.1c-3.7,2.1-4.2,6.6-4.1,10.5c0,2,0.2,3.9,0.7,5.8
					c0.5,1.9,1.4,3.7,1.3,5.7c3-2.3,6.1-4.5,7.2-8.3c-0.8,3.6-2.1,7.3-2.4,11c-0.6,7.1,0.6,13.4,4.4,18.9c11.9,25.9,39,41.3,65,49.7
					c21.1,6.9,45.5,11.2,68.8,11.4c9.3-21.3,15.2-45.3,17.5-67.5c2.9-27.3-0.2-58.3-19-79.6c-3.4-5.7-8.8-9.3-15.5-11.6
					c-3.5-1.3-7.4-1.5-11-2.3c4,0.5,7.2-1.4,10.6-3.2c-1.8-0.7-3.2-2.2-4.7-3.4c-1.5-1.3-3.2-2.3-5-3.1c-3.5-1.6-7.9-3-11.3-0.5
					c1.4-1.3,2.4-2.9,3.2-4.6c0.5-1.8,0.8-3.6,0.7-5.6c0.9,4.2,5,6,8.7,7.2c1.9,0.6,3.8,1,5.8,1.1c1.9,0.1,4-0.1,5.8,0.6
					c-1.3-3.6-2.4-7.2-5.7-9.5c3.2,1.9,6.3,4.3,9.7,5.7c6.5,2.7,12.9,3.6,19.3,1.7c28.3-3.3,51.3-24.3,67.4-46.5
					c13.1-18,24.7-39.9,32-61.9c-17.4-15.4-38.4-28.5-58.7-37.5c-25-11.1-55.5-17.8-81.6-6.6c-6.5,1.5-11.6,5.5-15.9,11.1
					c-2.3,2.9-3.7,6.6-5.6,9.8c1.7-3.6,0.9-7.3,0.2-11.1c-1.2,1.5-3.1,2.3-4.7,3.4c-1.6,1.1-3.1,2.4-4.5,3.8
					c-2.7,2.9-5.3,6.6-4,10.6c-0.8-1.8-2-3.2-3.4-4.5c-1.6-1-3.2-1.9-5.1-2.4c4.2,0.5,7.3-2.9,9.5-6.1c1.1-1.6,2.1-3.3,2.8-5.2
					c0.7-1.8,1-3.8,2.3-5.3c-3.8,0.1-7.6,0.1-10.8,2.5c2.8-2.5,6-4.7,8.4-7.5c4.6-5.4,7.4-11.2,7.6-17.8
					c5.5-27.9-7.3-56.3-23.4-78.5c-13.1-18-30.3-35.8-49-49.6c-20,11.8-39,27.7-53.9,44.3c-18.3,20.4-34,47.2-31.4,75.6
					c-0.6,6.6,1.6,12.7,5.6,18.5c2.1,3,5.1,5.5,7.6,8.3c-2.9-2.7-6.7-3.1-10.5-3.6c1.1,1.6,1.3,3.7,1.7,5.5c0.5,1.9,1.3,3.7,2.3,5.4
					c1.9,3.4,4.6,7.1,8.8,7.1c-1.9,0.3-3.7,0.9-5.3,1.8c-1.5,1.2-2.8,2.5-3.8,4.1c1.8-3.9-0.5-7.8-2.9-11c-1.2-1.6-2.5-3.1-4.1-4.3
					c-1.5-1.2-3.3-2.2-4.3-3.8c-1.1,3.7-2.3,7.3-1,11c-1.5-3.4-2.6-7.2-4.5-10.3c-3.7-6-8.3-10.5-14.6-12.7
					c-24.8-13.9-55.8-10.5-81.9-2c-21.1,6.9-43.4,17.7-62.3,31.2c5,22.7,14.3,45.6,25.4,64.9c13.7,23.7,34.4,47,62.2,53.3
					c6.2,2.6,12.6,2.4,19.4,0.3c3.5-1,6.8-3.1,10.2-4.6c-3.5,1.9-5,5.4-6.6,8.8c1.9-0.5,3.9-0.1,5.8,0.1c2,0.1,3.9-0.1,5.9-0.5
					c3.8-0.8,8.1-2.2,9.4-6.3C134.9,295.4,135,297.3,135.3,299.1z M145.8,391.7c-1-3.3-1.8-6.7-2.1-10.2c-0.6-5.7,0-11.5-0.3-17.2
					c-0.2-4-0.9-6.9-1.8-10.5c-0.9-3.6-0.4-7.8-0.4-11.6c0,2.4,3.6,7.9,6.5,5.9c-1.2,0.8,2.3,9,2.7,10.1c1.8,4.1,3.5,8.2,5.2,12.4
					c-2.6,2.6-3.2,6.4-0.6,9.8c3.9,1.8,7.5,0.5,9.5-2.6c4.4,0.9,8.8,1.7,13.2,2.6c1.1,0.2,9.9,1.9,10.4,0.5
					c-1.4,3.2,4.7,5.7,7.1,5.1c-3.7,0.8-7.7,2.2-11.4,2c-3.7-0.2-6.7-0.2-10.6,0.4c-5.7,0.9-11.2,2.7-16.9,3.3
					C152.7,392,149.3,391.9,145.8,391.7z M98.1,213.8c2.9-1.9,5.8-3.7,9.1-5.2c5.2-2.3,10.9-3.5,16.3-5.6c3.7-1.4,6.3-3,9.4-5
					c3.1-2,7.3-2.8,10.8-3.9c-2.3,0.7-6.4,5.8-3.6,8c-1.2-0.9-7.9,4.9-8.8,5.7c-3.4,2.9-6.8,5.9-10.1,8.8c-3.3-1.7-7.1-1.1-9.5,2.4
					c-0.5,4.2,1.9,7.3,5.5,8.2c0.5,4.4,1.1,8.9,1.6,13.3c0.1,1.2,1.2,10,2.7,10.1c-3.5-0.3-3.9,6.2-2.7,8.3
					c-1.9-3.2-4.5-6.6-5.4-10.2c-1-3.6-1.9-6.4-3.7-10c-2.6-5.1-6-9.8-8.4-15C99.9,220.4,99,217.1,98.1,213.8z M252.6,113.4
					c2.7,2.1,5.3,4.4,7.7,7.1c3.8,4.3,6.7,9.3,10.3,13.7c2.5,3.1,4.8,5.1,7.7,7.4c2.8,2.3,4.9,6.1,7.1,9.1c-1.4-2-7.5-4.3-8.7-0.9
					c0.5-1.4-7.1-6-8.1-6.6c-3.8-2.3-7.7-4.6-11.5-6.9c0.6-3.6-1.2-7.1-5.3-8.3c-4.2,0.8-6.3,4-6.1,7.7c-4.1,1.9-8.1,3.8-12.2,5.7
					c-1,0.5-9.1,4.2-8.8,5.7c-0.8-3.4-7.1-1.8-8.7,0c2.5-2.8,4.9-6.3,8-8.3c3.1-2,5.5-3.8,8.4-6.6c4.1-4.1,7.4-8.7,11.7-12.6
					C246.8,117.2,249.6,115.3,252.6,113.4z M395.7,229.3c-1.2,3.3-2.5,6.4-4.3,9.5c-2.9,5-6.7,9.3-9.9,14.1
					c-2.2,3.4-3.3,6.1-4.7,9.6c-1.3,3.4-4.3,6.5-6.5,9.6c1.5-1.9,1.7-8.5-1.8-8.5c1.5,0,3.5-8.6,3.7-9.8c1-4.4,2-8.7,3-13.1
					c3.7-0.5,6.4-3.3,6.3-7.6c-2.1-3.8-5.8-4.8-9.2-3.4c-3.1-3.3-6.1-6.5-9.2-9.8c-0.8-0.8-6.8-7.4-8.1-6.6c3-1.8-0.5-7.3-2.7-8.3
					c3.4,1.5,7.5,2.8,10.4,5c2.9,2.3,5.3,4.1,8.9,5.9c5.1,2.6,10.6,4.4,15.6,7.2C390.3,225,393.1,227.1,395.7,229.3z M329.8,401.3
					c-3.5-0.1-6.9-0.4-10.4-1.2c-5.6-1.2-10.9-3.5-16.4-5c-3.9-1-6.8-1.3-10.5-1.5c-3.7-0.2-7.6-2.1-11.1-3.2c2.3,0.8,8.6-1,7.6-4.3
					c0.4,1.4,9.3,0.6,10.4,0.5c4.4-0.4,8.9-0.8,13.4-1.2c1.6,3.3,5.1,5.1,9.1,3.6c2.9-3.1,2.8-7,0.4-9.8c2.2-3.9,4.3-7.8,6.5-11.7
					c0.6-1,4.9-8.8,3.8-9.8c2.7,2.3,6.8-2.7,7-5.2c-0.4,3.7-0.3,8-1.6,11.4c-1.3,3.5-2.3,6.3-2.9,10.3c-0.9,5.7-0.9,11.4-2.1,17.1
					C332.2,394.8,331.1,398.1,329.8,401.3z M145.7,296.3c0.2,1.6,0.3,3.2,1,4.8c-0.1-0.3-3.1-0.9-3.7-1.1c-0.9-0.5-1.8-1-2.4-1.9
					c-0.1-0.1-0.1-0.2-0.2-0.4c0-0.1,0-0.3,0-0.4c0.1-1,0.5-1.9,1.1-2.8c0.3-0.5,2.6-2.5,2.6-2.8
					C144.4,293.4,145.1,294.9,145.7,296.3z M188.8,184.2c-1.5,0.7-3,1.3-4.2,2.4c0.2-0.2-0.1-3.2-0.1-3.8c0.1-1,0.4-2,1-2.8
					c0.1-0.1,0.2-0.2,0.3-0.3c0.1-0.1,0.3-0.1,0.4-0.1c1-0.2,2-0.1,3,0.2c0.5,0.2,3.2,1.7,3.4,1.6C191.2,182,190,183.2,188.8,184.2z
					 M308.7,190.5c-1.1-1.2-2.2-2.4-3.6-3.3c0.3,0.2,3-1.1,3.6-1.2c1-0.2,2-0.2,3,0.1c0.1,0,0.3,0.1,0.4,0.1
					c0.1,0.1,0.2,0.2,0.2,0.4c0.5,0.9,0.7,1.9,0.7,2.9c0,0.6-0.7,3.5-0.4,3.8C311.5,192.1,310.1,191.3,308.7,190.5z M339.8,306.5
					c0.8-1.4,1.6-2.8,2-4.4c-0.1,0.3,2,2.6,2.3,3.1c0.5,0.9,0.8,1.8,0.8,2.9c0,0.1,0,0.3,0,0.4c-0.1,0.1-0.2,0.2-0.3,0.3
					c-0.7,0.8-1.6,1.3-2.5,1.6c-0.5,0.2-3.6,0.4-3.7,0.7C339.1,309.7,339.4,308,339.8,306.5z M239.1,371.9c1.6,0.3,3.2,0.7,4.8,0.6
					c-0.3,0-1.8,2.7-2.2,3.1c-0.7,0.7-1.5,1.4-2.5,1.7c-0.1,0.1-0.3,0.1-0.4,0.1c-0.1,0-0.3-0.1-0.4-0.1c-1-0.4-1.7-1.1-2.3-1.9
					c-0.3-0.4-1.5-3.2-1.8-3.3C235.8,372.3,237.5,372,239.1,371.9z M199.5,325.4c-1,0.2-1.8,0.8-3,1.4c-0.6-2-0.3-4.3-1.5-6.1
					c-0.8-1.2-3.6-3-5.1-1.9c2.5-1.9,5.1-4.4,5-7.8c-0.1-4.1-4.1-3.8-6.3-6c1-1.2,2.4-2.1,2.5-3.9c0.1-1-0.2-2.1-0.1-3.1
					c0.8,0.1,1.5,0.1,2.3,0.1c0.3,3.1,2,6.1,5.5,5.9c2.5-0.1,6.4-2.5,6.8-5.2c0,0.3,2.9-1.3,3.1-1.4c1.3-1,2.6-2,3.5-3.4
					c-3.4,5.5-5.3,12.5-7.8,18.5c0.3-0.8,2.2-2,2.7-2.9c1.2-1.9,2.2-4,3.1-6.1c2.6-5.8,4.6-11.9,6.3-18c0.9-2.9,1.7-5.9,2.4-8.9
					c-2.1-2.2-4.3-4.4-6.5-6.5c-4.6-4.4-9.3-8.6-14.4-12.4c-1.8-1.3-3.7-2.7-5.8-3.7c-0.9-0.5-3.1-0.6-3.8-1.1
					c5.1,4,10.3,9.1,16,12.2c-1.4-0.8-3.1-1-4.7-1.2c-0.2,0-3.6,0.1-3.4,0.3c-1.7-2.2-6.3-2.2-8.5-1.1c-3.1,1.6-3.1,5-1.8,7.9
					c-0.7,0.4-1.3,0.8-2,1.3c-0.6-0.7-0.9-1.9-1.5-2.7c-1-1.5-2.6-1.6-4.1-2.1c0.7-2.9,4.3-4.8,2.4-8.3c-1.6-3-5.1-3.8-8.2-4.3
					c1.9,0.3,3.3-2.7,3.4-4.1c0.1-2.3-1.3-4.1-1.7-6.1c1.3-0.1,2.3,0.1,3.2-0.3c-0.5-0.9-1.3-1.5-2.2-2.4c1.7-1.2,4-1.6,5.3-3.3
					c0.9-1.1,1.8-4.3,0.3-5.4c2.6,1.8,5.8,3.5,8.9,2.4c3.8-1.4,2.4-5.1,3.8-7.8c1.5,0.5,2.7,1.6,4.5,1.1c1-0.2,2-0.9,2.9-1
					c0.1,0.8,0.4,1.5,0.6,2.2c-2.8,1.3-5.2,3.8-3.9,7.1c0.9,2.3,4.4,5.3,7,4.9c-0.3,0.1,2.1,2.4,2.3,2.5c1.3,1,2.7,1.9,4.3,2.3
					c-6.3-1.6-13.6-1.2-20-1.7c0.8,0.1,2.6,1.4,3.6,1.7c2.2,0.6,4.5,0.9,6.7,1.1c6.3,0.6,12.7,0.7,19,0.5c3.1-0.1,6.1-0.2,9.2-0.4
					c1.5-2.7,2.8-5.5,4.1-8.2c2.7-5.7,5.3-11.6,7.3-17.6c0.7-2.1,1.4-4.4,1.7-6.6c0.1-1-0.4-3.2-0.1-4c-2.2,6.1-5.4,12.6-6.6,19
					c0.3-1.6,0-3.3-0.3-4.9c-0.1-0.2-1.2-3.4-1.3-3.1c1.5-2.2,0.2-6.6-1.6-8.4c-2.5-2.5-5.8-1.4-8.1,0.7c-0.6-0.5-1.1-1.1-1.8-1.5
					c0.5-0.8,1.5-1.4,2.1-2.2c1.1-1.4,0.7-3,0.7-4.5c3-0.2,5.9,2.6,8.7-0.3c2.3-2.4,2-6,1.5-9.1c0.3,1.9,3.6,2.3,5,2
					c2.2-0.6,3.5-2.4,5.2-3.5c0.5,1.2,0.6,2.2,1.3,3c0.7-0.7,1-1.7,1.6-2.8c1.7,1.3,2.7,3.3,4.9,4.1c1.3,0.5,4.7,0.4,5.2-1.4
					c-0.8,3-1.6,6.6,0.5,9.2c2.5,3.2,5.6,0.7,8.6,1.2c-0.1,1.6-0.7,3,0.3,4.6c0.5,0.9,1.4,1.6,1.9,2.4c-0.7,0.4-1.3,0.8-1.9,1.3
					c-2.1-2.3-5.2-3.8-7.9-1.6c-1.9,1.6-3.7,5.8-2.4,8.2c-0.1-0.2-1.6,2.8-1.7,3c-0.5,1.5-0.9,3.2-0.8,4.8
					c-0.5-6.5-3.1-13.3-4.6-19.5c0.2,0.8-0.6,2.9-0.5,3.9c0.1,2.3,0.6,4.5,1,6.7c1.3,6.2,3.3,12.3,5.4,18.3c1,2.9,2.1,5.7,3.3,8.6
					c3,0.5,6,1,9.1,1.4c6.3,0.8,12.6,1.5,19,1.5c2.3,0,4.6,0,6.8-0.4c1-0.2,2.9-1.3,3.7-1.3c-6.5-0.2-13.6-1.3-20.1-0.4
					c1.6-0.2,3.1-1,4.5-1.8c0.2-0.1,2.8-2.2,2.6-2.2c2.6,0.8,6.4-1.9,7.5-4.1c1.6-3.2-0.5-5.9-3.2-7.4c0.3-0.7,0.7-1.4,0.9-2.2
					c0.9,0.3,1.8,1,2.8,1.3c1.7,0.6,3-0.3,4.6-0.7c1.1,2.8-0.7,6.4,2.9,8.2c3,1.5,6.4,0.1,9.2-1.4c-1.7,0.9-1.1,4.2-0.3,5.4
					c1.2,1.9,3.4,2.5,5,3.9c-1,0.8-1.9,1.3-2.5,2.2c1,0.5,1.9,0.4,3.2,0.7c-0.7,2-2.3,3.6-2.4,5.8c-0.1,1.4,1.1,4.6,3,4.5
					c-3.1,0.1-6.8,0.6-8.6,3.4c-2.3,3.4,1.1,5.6,1.5,8.6c-1.5,0.4-3.1,0.3-4.3,1.7c-0.7,0.8-1.1,1.9-1.8,2.5c-0.6-0.6-1.2-1-1.8-1.4
					c1.6-2.7,2-6.1-1-8c-2.1-1.4-6.6-1.8-8.5,0.2c0.2-0.2-3.1-0.7-3.3-0.7c-1.6,0-3.3,0.1-4.8,0.7c6-2.5,11.7-7,17.2-10.4
					c-0.7,0.4-2.9,0.4-3.9,0.7c-2.1,0.8-4.1,1.9-6.1,3.1c-5.5,3.2-10.7,6.9-15.7,10.8c-2.4,1.9-4.8,3.8-7.2,5.8
					c0.4,3,0.9,6.1,1.5,9.1c1.1,6.2,2.5,12.5,4.4,18.5c0.7,2.1,1.5,4.3,2.5,6.3c0.4,0.9,2.2,2.4,2.4,3.2c-1.8-6.2-3-13.4-5.8-19.2
					c0.7,1.5,1.9,2.7,3.1,3.8c0.2,0.2,2.9,2,2.9,1.8c0.1,2.7,3.8,5.5,6.2,5.8c3.5,0.5,5.5-2.3,6.1-5.3c0.8,0.1,1.5,0.2,2.3,0.2
					c0,1-0.4,2-0.4,3.1c-0.1,1.8,1.2,2.8,2.1,4.1c-2.4,1.9-6.3,1.3-6.9,5.3c-0.5,3.3,1.9,6.1,4.1,8.3c-1.3-1.3-4.3,0.2-5.2,1.3
					c-1.4,1.7-1.3,4-2.1,6c-1.1-0.7-1.8-1.4-2.8-1.7c-0.2,1,0.2,2,0.4,3.2c-2.1-0.1-4.1-1-6.3-0.4c-1.4,0.4-4,2.4-3.4,4.2
					c-1.1-2.9-2.6-6.3-5.9-7.2c-3.9-1.1-4.9,2.8-7.7,4.1c-0.9-1.3-1.3-2.9-2.9-3.6c-0.9-0.4-2.1-0.5-2.9-0.9
					c0.4-0.7,0.6-1.4,0.8-2.2c3,0.7,6.4,0,7.3-3.4c0.7-2.4-0.4-6.9-2.8-8c0.3,0.1-0.3-3.2-0.4-3.4c-0.5-1.6-1.1-3.1-2.2-4.4
					c4.2,5,10.3,8.9,15.2,13.1c-0.6-0.5-1.3-2.7-1.9-3.5c-1.4-1.8-3.1-3.3-4.8-4.9c-4.7-4.2-9.9-8-15.1-11.6c-2.5-1.7-5.1-3.4-7.7-5
					c-2.8,1.3-5.5,2.8-8.2,4.2c-5.6,3-11.1,6.2-16.2,9.9c-1.8,1.3-3.7,2.7-5.3,4.3c-0.7,0.7-1.6,2.8-2.3,3.3
					c5.4-3.7,11.8-7,16.5-11.5c-1.2,1.1-2,2.7-2.6,4.1c-0.1,0.2-1,3.4-0.7,3.3c-2.6,0.9-4.1,5.3-3.7,7.7c0.6,3.5,3.9,4.5,6.9,4.2
					c0.1,0.8,0.3,1.5,0.6,2.2c-0.9,0.3-2,0.3-3,0.6c-1.7,0.5-2.3,2-3.3,3.2c-2.6-1.6-3.2-5.6-7.2-4.9c-3.3,0.6-5.2,3.7-6.6,6.5
					c0.8-1.7-1.6-4-2.9-4.5c-2.1-0.8-4.2-0.1-6.3-0.2C199.1,327.3,199.5,326.5,199.5,325.4z M165.7,367.1c-1,0.1-2.1,0.1-3.2,0
					c-0.3,0-0.5-0.1-0.8-0.1c-7-1-10.6-9.1-10.8-15.2c-0.2-4.7,3.2-7.9,6.8-10.5c4.5-3.2,10.3-4.6,15.2-1.5
					c3.4,2.1,5.8,6.4,6.3,10.6c4.2-0.3,8.9,1.2,11.7,4c4.1,4.1,3.9,10.1,1.7,15.2c-1.8,4.1-4.2,8.1-8.8,8.8c-6,1-14.7-0.8-17.1-7.4
					c-0.1-0.2-0.2-0.5-0.3-0.7C166.1,369.2,165.8,368.1,165.7,367.1z M127.6,225.1c-0.4-1-0.7-2-1-3.1c0-0.3-0.1-0.5-0.1-0.8
					c-1.2-6.9,5.4-12.9,11.1-15c4.4-1.7,8.5,0.6,12.1,3.2c4.4,3.3,7.5,8.4,6.1,14c-1,3.8-4.3,7.5-8.1,9.3c1.6,3.9,1.7,8.8-0.2,12.3
					c-2.7,5.1-8.4,6.9-13.9,6.3c-4.4-0.4-9-1.5-11.2-5.7c-2.8-5.4-3.8-14.3,1.8-18.6c0.2-0.2,0.4-0.3,0.6-0.5
					C125.8,226.1,126.7,225.5,127.6,225.1z M250.9,145c0.8-0.7,1.6-1.3,2.6-1.9c0.2-0.1,0.5-0.3,0.7-0.4c6.2-3.3,13.9,1.2,17.7,5.9
					c2.9,3.7,2.1,8.3,0.7,12.5c-1.7,5.2-5.6,9.7-11.4,10.1c-4,0.2-8.5-1.8-11.4-4.8c-3.2,2.7-7.9,4.3-11.8,3.6
					c-5.7-1-9.1-5.9-10.3-11.2c-1-4.3-1.3-9,2-12.4c4.3-4.3,12.4-8,18.2-4.1c0.2,0.2,0.4,0.3,0.6,0.4
					C249.4,143.5,250.2,144.2,250.9,145z M365.2,237.5c0.9,0.5,1.8,1.2,2.6,1.9c0.2,0.2,0.4,0.4,0.6,0.5c5.1,4.9,3.2,13.6-0.2,18.7
					c-2.6,3.9-7.2,4.5-11.7,4.5c-5.5,0-11-2.3-13.1-7.7c-1.5-3.7-0.9-8.6,1.1-12.3c-3.6-2.2-6.5-6.2-7.1-10.1
					c-0.8-5.7,2.8-10.5,7.5-13.3c3.8-2.3,8.2-4.1,12.4-2c5.5,2.7,11.4,9.3,9.5,16.1c-0.1,0.3-0.1,0.5-0.2,0.8
					C366.1,235.6,365.7,236.6,365.2,237.5z M312.5,374.8c-0.2,1-0.6,2-1,3.1c-0.1,0.2-0.2,0.5-0.3,0.7c-3.1,6.3-11.9,7.2-17.8,5.6
					c-4.5-1.3-6.6-5.5-7.9-9.7c-1.6-5.2-1.2-11.2,3.3-14.9c3.1-2.5,7.9-3.5,12-2.8c1-4.1,3.9-8.1,7.4-9.9c5.2-2.6,10.8-0.6,15,3
					c3.3,2.9,6.4,6.5,5.7,11.2c-0.9,6-5.3,13.8-12.4,14c-0.3,0-0.5,0-0.8,0C314.6,375.1,313.5,375,312.5,374.8z M156.7,378.2
					c-0.4-0.8-0.5-1.7-0.2-2.6c0.5-1.8,2.8-4.1,4.8-3.8c0.1,0,0.3,0.1,0.5,0.1c0.1,0.1,0.2,0.3,0.2,0.5c0.7,2-1.1,4.6-2.8,5.5
					C158.5,378.3,157.6,378.4,156.7,378.2z M114.3,220c0.7-0.6,1.5-1,2.4-1c1.9-0.1,4.7,1.4,5.2,3.4c0,0.1,0,0.3,0,0.5
					c-0.1,0.2-0.3,0.3-0.4,0.4c-1.7,1.3-4.8,0.4-6.1-0.9C114.7,221.7,114.4,220.8,114.3,220z M251.7,130.7c0.8,0.4,1.4,1.1,1.7,2
					c0.7,1.8,0.2,4.9-1.6,6c-0.1,0.1-0.3,0.1-0.5,0.2c-0.2-0.1-0.3-0.1-0.4-0.2c-1.7-1.2-1.8-4.4-1-6.1
					C250.2,131.7,250.9,131.1,251.7,130.7z M379,233.8c-0.2,0.9-0.7,1.7-1.4,2.2c-1.5,1.2-4.6,1.7-6.2,0.3c-0.1-0.1-0.2-0.2-0.3-0.4
					c0-0.2,0-0.4,0.1-0.5c0.6-2,3.6-3.1,5.5-2.9C377.6,232.6,378.4,233.1,379,233.8z M320.3,386.8c-0.9,0.1-1.8-0.1-2.5-0.6
					c-1.5-1-3-3.9-2.2-5.8c0.1-0.1,0.2-0.3,0.3-0.4c0.2-0.1,0.3-0.1,0.5-0.1c2.1,0,4.1,2.5,4.4,4.3C321,385.1,320.8,386,320.3,386.8
					z M216.7,277.3c0,0.1-0.1,0.1-0.1,0.2c-0.7,2.1-1.5,4.3-2.3,6.4c-1.9,4.8-2.7,11.3-7.8,13.8c0.3-2.8-2.8-5.2-5.6-5
					c0.6-1.9,1.3-3.6-0.3-5.2c-1.6-1.6-3.1-1.9-5.3-2c-5.2-0.2-8.4,3.8-7.1,8.6c-0.5-2.4-5.1-2.2-6.9-1.5c-2.7,1-3.7,3.1-4.3,5.7
					c-0.9,3.5,3.7,8.1,7.2,7.5c-2.1,1.1-3.7,3.1-3.9,5.4c-1.9-3-7-3.5-10-1.9c2.2-1.2,3.1-5.9,3.3-8.1c0.2-3-0.5-6.1-2.1-8.6
					c-0.6-1-1.3-1.8-2.2-2.6c0.4-1,0.6-2.1,0.6-3.3c0-3-0.9-6-2.6-8.5c-1.2-1.8-4.3-5.5-6.9-5.4c3.3-0.1,7.5-3.1,7.7-6.7
					c1.3,1.9,3.7,2.8,6,2.7c-3.4,1.3-5,7.5-2.5,10.1c1.9,2,3.8,3.2,6.6,2.7c1.9-0.3,5.9-2.4,5.2-4.8c1.3,4.8,6.1,6.7,10.5,4
					c1.9-1.2,3-2.1,3.6-4.4c0.6-2.3-0.9-3.3-2.4-4.7c2.6-1.2,4-4.8,2.4-7.1c5.8-0.4,9.7,4.8,13.7,8c1.8,1.4,3.5,2.9,5.2,4.4
					C216.6,277.2,216.6,277.3,216.7,277.3z M228.8,245.8c-0.1,0-0.1,0-0.2,0c-2.3,0-4.5,0-6.8-0.2c-5.2-0.3-11.5,1-15.5-3.2
					c2.8-0.6,4.1-4.3,3-6.9c2-0.1,3.8,0.2,4.9-1.9c1.1-2.1,0.9-3.5,0.3-5.7c-1.4-5-6.2-6.8-10.4-4.1c2.1-1.3,0.5-5.5-0.7-7
					c-1.7-2.2-4.1-2.6-6.7-2.4c-3.6,0.3-6.6,6-4.9,9.2c-1.7-1.6-4.1-2.6-6.3-2c2.3-2.8,1.1-7.7-1.2-10.1c1.8,1.8,6.6,1.2,8.7,0.6
					c2.9-0.7,5.6-2.4,7.6-4.6c0.7-0.9,1.3-1.8,1.8-2.9c1.1,0,2.2-0.1,3.3-0.5c2.9-0.9,5.5-2.7,7.3-5.1c1.4-1.7,3.8-5.8,2.9-8.2
					c1.2,3.1,5.3,6.2,8.7,5.2c-1.5,1.8-1.5,4.4-0.7,6.6c-2.2-2.8-8.7-2.5-10.4,0.7c-1.3,2.4-1.9,4.6-0.6,7.1
					c0.9,1.7,4.1,4.9,6.1,3.4c-4.1,2.7-4.5,7.9-0.5,11.2c1.7,1.4,3,2.2,5.3,2.1c2.3-0.1,2.8-1.9,3.7-3.7c1.9,2.1,5.8,2.4,7.5,0.1
					c2.1,5.3-1.6,10.7-3.4,15.5c-0.8,2.1-1.7,4.2-2.6,6.3C228.8,245.7,228.8,245.7,228.8,245.8z M262.5,247.6c0-0.1,0-0.2-0.1-0.2
					c-0.7-2.2-1.3-4.3-1.9-6.6c-1.3-5-4.5-10.7-1.8-15.8c1.4,2.4,5.3,2.6,7.5,0.7c0.7,1.9,1,3.7,3.3,4.1c2.3,0.4,3.6-0.3,5.4-1.5
					c4.3-2.9,4.5-8,0.6-11.2c1.9,1.6,5.4-1.2,6.5-2.8c1.6-2.4,1.2-4.6,0.2-7.1c-1.4-3.4-7.7-4.4-10.3-1.8c1-2.1,1.2-4.6-0.1-6.6
					c3.4,1.3,7.7-1.3,9.2-4.3c-1.1,2.3,0.9,6.6,2.1,8.4c1.6,2.5,4,4.6,6.7,5.8c1.1,0.4,2.2,0.7,3.3,0.8c0.3,1,0.8,2.1,1.5,3
					c1.7,2.4,4.3,4.3,7.1,5.4c2.1,0.8,6.7,1.8,8.7,0.3c-2.6,2.1-4.3,6.9-2.3,9.9c-2.2-0.8-4.6-0.1-6.5,1.3c2-3-0.3-9-3.9-9.7
					c-2.7-0.5-5-0.4-6.9,1.7c-1.3,1.4-3.4,5.4-1.4,6.9c-3.9-3.1-8.8-1.8-10.8,2.9c-0.8,2.1-1.2,3.5-0.3,5.7c0.9,2.1,2.7,2.1,4.7,2.4
					c-1.4,2.5-0.4,6.3,2.2,7.1c-4.4,3.7-10.6,1.8-15.8,1.6c-2.3-0.1-4.6-0.3-6.8-0.5C262.6,247.6,262.6,247.6,262.5,247.6z
					 M271.2,280.2c0.1,0,0.1-0.1,0.2-0.1c1.8-1.3,3.7-2.6,5.6-3.9c4.3-2.8,8.8-7.5,14.4-6.6c-1.9,2.1-0.8,5.9,1.6,7.3
					c-1.6,1.2-3.2,2.1-2.8,4.4c0.3,2.3,1.4,3.3,3.1,4.7c4.1,3.2,9,1.8,10.8-2.8c-1,2.3,2.8,4.8,4.6,5.3c2.7,0.8,4.8-0.3,6.9-2
					c2.8-2.4,1.8-8.7-1.5-10.3c2.3,0.3,4.8-0.3,6.3-2.1c-0.2,3.6,3.6,6.9,6.9,7.4c-2.5-0.4-6,2.9-7.4,4.6c-1.9,2.3-3.2,5.2-3.4,8.2
					c-0.1,1.2,0,2.3,0.3,3.3c-0.9,0.6-1.7,1.4-2.4,2.3c-1.8,2.4-2.8,5.4-2.9,8.4c-0.1,2.2,0.3,7,2.4,8.4c-2.8-1.8-7.9-1.9-10.1,0.9
					c0.1-2.3-1.4-4.4-3.3-5.7c3.5,1,8.5-3.1,8-6.7c-0.4-2.7-1.2-4.9-3.7-6.1c-1.7-0.9-6.2-1.5-7,0.8c1.8-4.6-1-9-6.1-9.4
					c-2.2-0.1-3.7,0-5.5,1.4c-1.8,1.5-1.2,3.2-0.8,5.2c-2.8-0.6-6.1,1.5-6.1,4.4c-4.9-3.1-5-9.6-6.3-14.5c-0.6-2.2-1.1-4.4-1.6-6.6
					C271.3,280.3,271.3,280.3,271.2,280.2z M242.9,298.6c0.1,0,0.1,0.1,0.2,0.1c1.8,1.4,3.6,2.7,5.4,4.2c4,3.3,9.9,6,10.7,11.7
					c-2.6-1.1-5.8,1-6.5,3.8c-1.6-1.1-3-2.4-5.1-1.3c-2.1,1-2.8,2.3-3.5,4.4c-1.8,4.9,1.1,9.1,6,9.4c-2.5-0.2-3.7,4.1-3.6,6
					c0.1,2.8,1.8,4.5,4.1,5.9c3.1,1.9,8.8-1,9.4-4.6c0.4,2.3,1.8,4.4,3.9,5.3c-3.5,0.9-5.5,5.6-4.9,8.9c-0.4-2.5-4.6-4.8-6.7-5.6
					c-2.8-1.1-6-1.4-8.9-0.7c-1.1,0.3-2.2,0.7-3.1,1.3c-0.9-0.7-1.9-1.2-3-1.6c-2.8-1-6-1-8.9-0.2c-2.1,0.6-6.5,2.4-7.2,4.9
					c0.9-3.2-0.6-8.1-4-9.4c2.2-0.7,3.8-2.7,4.5-4.9c0.1,3.6,5.5,7.1,8.8,5.5c2.4-1.2,4.3-2.6,4.7-5.4c0.3-1.9-0.5-6.4-3-6.4
					c5,0.2,8.2-3.7,7-8.7c-0.5-2.1-1.1-3.5-3-4.8c-1.9-1.3-3.4-0.1-5.2,0.8c-0.3-2.8-3.3-5.3-6-4.5c1.4-5.6,7.6-7.7,11.9-10.5
					c1.9-1.3,3.9-2.4,5.8-3.6C242.8,298.7,242.8,298.6,242.9,298.6z M196.1,297.9c1.1-1.5,3.6-2.8,5.5-2.2c1.3,0.5,2,1.4,2.1,2.3
					c0.1,1-0.6,2.1-1.9,2.6c-2.1,0.8-4,2.2-5.7-0.1C195.5,299.7,195.5,298.7,196.1,297.9z M256.1,324.5c-1.1-1.5-1.6-4.3-0.4-5.9
					c0.9-1.1,1.9-1.5,2.8-1.3c1,0.2,1.8,1.2,1.9,2.6c0.2,2.2,0.9,4.5-1.9,5.3C257.7,325.6,256.7,325.3,256.1,324.5z M300,275.6
					c-1.8,0.6-4.6,0.2-5.7-1.5c-0.8-1.2-0.8-2.3-0.3-3.1c0.5-0.9,1.7-1.3,3-1c2.2,0.5,4.5,0.6,4.5,3.4
					C301.5,274.5,300.9,275.3,300,275.6z M267.1,218.8c0,1.9-1.2,4.4-3.2,5c-1.4,0.4-2.5,0.1-3-0.7c-0.7-0.8-0.7-2,0-3.2
					c1.2-1.9,1.9-4.1,4.7-3.2C266.4,217,267.1,217.8,267.1,218.8z M202.8,232.6c1.8,0.6,3.8,2.5,3.8,4.5c-0.1,1.4-0.7,2.4-1.6,2.7
					c-0.9,0.4-2.1,0.1-3-1c-1.4-1.7-3.3-3.1-1.6-5.4C201,232.6,201.9,232.2,202.8,232.6z M187.3,267.6c0.3-2.9,2.6-2.7,4.8-2.9
					c1.4-0.2,2.5,0.4,2.9,1.3c0.4,0.8,0.3,1.9-0.7,3c-1.3,1.5-4.1,1.6-5.8,0.9C187.6,269.4,187.2,268.5,187.3,267.6z M224.6,323.5
					c-2.7-1.1-1.7-3.3-1.3-5.5c0.2-1.4,1.1-2.2,2.1-2.4c0.9-0.1,1.9,0.4,2.7,1.6c1.1,1.7,0.3,4.4-1,5.8
					C226.4,323.7,225.4,323.9,224.6,323.5z M289.2,305.4c-1.9,2.1-3.7,0.6-5.6-0.4c-1.2-0.7-1.8-1.8-1.6-2.8
					c0.1-0.9,0.9-1.7,2.3-2.1c1.9-0.5,4.3,1.1,5.2,2.7C290.1,303.6,289.9,304.6,289.2,305.4z M292,238.2c1.5,2.5-0.6,3.7-2.2,5.2
					c-1,1-2.2,1.1-3.1,0.7c-0.8-0.4-1.4-1.4-1.3-2.8c0.1-2,2.3-3.7,4.2-4.1C290.6,236.9,291.5,237.4,292,238.2z M229,214.8
					c2.8-0.6,3.3,1.7,4.3,3.7c0.6,1.2,0.4,2.5-0.3,3.2c-0.7,0.6-1.8,0.9-3.1,0.3c-1.8-0.7-2.8-3.4-2.6-5.3
					C227.3,215.7,228,215,229,214.8z M193.7,295.2c-3.4-0.3-3.6-4.6-1.6-6.4c1-0.9,2.2-1.4,3.5-1.5c0.5,0,1,0,1.6,0.1
					c1.5,0.3,2.9,0.5,3.1,2.2C200.6,292.2,196,295.4,193.7,295.2z M252.9,325.9c-1.4,3.1-5.5,2-6.6-0.5c-0.5-1.2-0.6-2.5-0.3-3.8
					c0.1-0.5,0.3-1,0.6-1.5c0.7-1.3,1.3-2.6,3.1-2.3C252.1,318.4,253.8,323.8,252.9,325.9z M300.3,279.2c2.6,2.3,0.2,5.9-2.5,6.2
					c-1.3,0.1-2.6-0.2-3.7-0.9c-0.4-0.3-0.9-0.6-1.2-1c-1-1.1-2.1-2.1-1.2-3.6C292.9,277.6,298.6,277.7,300.3,279.2z M270.5,219.6
					c2.9-1.8,5.7,1.6,5.1,4.3c-0.3,1.3-1,2.4-2,3.3c-0.4,0.3-0.9,0.6-1.3,0.9c-1.3,0.7-2.6,1.3-3.8,0
					C266.7,226.1,268.5,220.8,270.5,219.6z M204.6,229.5c-0.7-3.3,3.3-4.9,5.6-3.5c1.1,0.7,2,1.7,2.5,2.9c0.2,0.5,0.3,1,0.4,1.5
					c0.2,1.5,0.4,2.9-1.2,3.7C209.7,235.1,205.1,231.7,204.6,229.5z M196.4,274.8c0.7,1.6-0.4,2.6-1.6,3.5c-0.4,0.3-0.9,0.6-1.3,0.8
					c-1.2,0.6-2.5,0.8-3.8,0.5c-2.7-0.6-4.6-4.4-1.8-6.4C189.7,272,195.4,272.5,196.4,274.8z M234.3,317.1c1.8-0.2,2.3,1.2,2.8,2.6
					c0.2,0.5,0.3,1,0.4,1.5c0.2,1.3-0.1,2.6-0.7,3.8c-1.3,2.4-5.6,3.1-6.6-0.2C229.5,322.6,231.7,317.3,234.3,317.1z M286.2,294.1
					c0.4-1.7,1.9-1.8,3.3-1.9c0.5,0,1,0,1.6,0.1c1.3,0.2,2.5,0.9,3.4,1.8c1.8,2,1.2,6.3-2.3,6.2
					C289.9,300.4,285.6,296.6,286.2,294.1z M280.4,237.6c-1.5-0.9-1.1-2.3-0.8-3.8c0.1-0.5,0.3-1,0.6-1.5c0.6-1.1,1.6-2.1,2.8-2.6
					c2.5-1.1,6.3,0.8,5.2,4.1C287.4,236,282.6,239,280.4,237.6z M224.8,225.7c-1.3,1.2-2.6,0.4-3.8-0.4c-0.4-0.3-0.8-0.6-1.2-1
					c-0.9-1-1.5-2.2-1.7-3.5c-0.3-2.7,2.7-5.8,5.5-3.7C225.5,218.5,226.8,224.1,224.8,225.7z M191.3,329.5c-1.8,1.4-4.9,3-7,1.6
					c-1.9-1.2-2.8-4.2-2.3-6.3c0.7-2.9,4-4.2,6.9-3.9c2.5,0.3,4.7,2,4.3,5.1C193,327.4,192.4,328.7,191.3,329.5z M284.7,338.8
					c0.8,2.1,1.3,5.5-0.6,7.2c-1.7,1.4-4.9,1.3-6.7,0.2c-2.5-1.6-2.8-5.1-1.6-7.7c1.1-2.3,3.3-3.8,6.2-2.5
					C283.2,336.5,284.2,337.5,284.7,338.8z M322.4,252.9c2.2-0.1,5.7,0.4,6.6,2.8c0.8,2.1-0.2,5.1-1.9,6.4c-2.3,1.9-5.7,1.1-7.8-0.9
					c-1.8-1.8-2.6-4.4-0.5-6.7C319.7,253.5,321,252.9,322.4,252.9z M252.3,190.4c0.6-2.2,2.2-5.3,4.7-5.4c2.2-0.1,4.7,1.8,5.6,3.8
					c1.1,2.7-0.8,5.8-3.3,7.1c-2.2,1.2-4.9,1.1-6.5-1.6C252.1,193.2,252,191.7,252.3,190.4z M171.3,237.8c-1.9-1.2-4.3-3.7-3.7-6.1
					c0.6-2.1,3.2-4,5.3-4.1c2.9-0.2,5.2,2.5,5.8,5.3c0.5,2.5-0.4,5-3.5,5.7C173.9,238.8,172.4,238.5,171.3,237.8z M172,246.9
					c1.9,2.5,0.8,5.1-1.2,6.6c-2.3,1.7-5.8,2.2-7.8,0.1c-1.5-1.5-2.2-4.6-1.2-6.6c1.2-2.3,4.6-2.4,6.9-2.1
					C169.9,245.1,171.2,245.8,172,246.9z M200.1,331.7c3-1,5.1,0.7,5.9,3.2c0.9,2.7,0.3,6.2-2.4,7.5c-1.9,1-5.1,0.7-6.6-0.9
					c-1.8-1.8-0.9-5.2,0.1-7.2C197.8,333,198.9,332.1,200.1,331.7z M289.5,331.1c0-3.2,2.3-4.6,4.8-4.6c2.9-0.1,6,1.6,6.4,4.6
					c0.3,2.1-0.9,5.1-2.9,6c-2.2,1.2-5.2-0.7-6.8-2.3C290.1,333.8,289.5,332.4,289.5,331.1z M316.5,245.9c-3-1-3.7-3.6-2.9-6
					c0.8-2.7,3.4-5.2,6.3-4.7c2.1,0.4,4.5,2.4,4.8,4.6c0.4,2.5-2.3,4.7-4.3,5.7C319.3,246.2,317.8,246.3,316.5,245.9z M243.9,193.9
					c-1.8,2.6-4.6,2.4-6.6,1c-2.4-1.6-3.9-4.8-2.5-7.5c1-1.9,3.7-3.5,5.9-3.2c2.5,0.4,3.7,3.6,4.1,5.9
					C245,191.4,244.7,192.8,243.9,193.9z M183.8,344.7c-2.5-1.7-4-4.9-1.6-7.4c1.7-1.9,4.9-3,7.3-2.2c0.6,0.2,1.1,0.4,1.5,0.7
					c0.4,0.4,0.7,0.8,1,1.3c1.3,2.3,0.9,5.5-0.6,7.6C189.4,347.6,186,346.9,183.8,344.7z M154.5,235.4c0.8-2.9,3.5-5.3,6.6-3.9
					c2.3,1,4.3,3.7,4.3,6.3c0,0.6-0.1,1.2-0.2,1.7c-0.2,0.5-0.5,1-0.9,1.4c-1.8,1.9-5,2.5-7.4,1.8
					C153.5,241.6,153.1,238.1,154.5,235.4z M249.4,173.7c3-0.2,6.1,1.6,5.7,5c-0.3,2.5-2.2,5.2-4.6,6.1c-0.6,0.2-1.1,0.3-1.7,0.3
					c-0.5-0.1-1-0.2-1.6-0.4c-2.4-1.1-4-4-4-6.5C243.2,174.7,246.4,173.3,249.4,173.7z M337.4,244.9c1.1,2.8,0.3,6.3-3,7
					c-2.5,0.5-5.7-0.4-7.2-2.5c-0.4-0.5-0.6-1-0.8-1.5c-0.1-0.5-0.1-1.1-0.1-1.7c0.3-2.6,2.6-5,5-5.8
					C334.5,239.3,336.9,242,337.4,244.9z M296.9,350.6c-2.4,1.9-5.9,2.2-7.6-0.7c-1.3-2.2-1.3-5.5,0.2-7.6c0.4-0.5,0.7-0.9,1.2-1.2
					c0.5-0.3,1-0.5,1.6-0.6c2.5-0.5,5.5,0.9,7.1,2.9C301.3,346.2,299.5,349.3,296.9,350.6z M187.3,316.1c-2.1,0.2-3.9-0.7-4.5-2.8
					c-0.6-2.4,0.9-4.6,3-5.9c2.2-1.3,5.1,0.4,6.3,2.5c0.2,0.3,0.3,0.6,0.5,1C193.6,313.7,189.8,315.9,187.3,316.1z M270.8,338.5
					c-0.4,2.1-1.8,3.5-4.1,3.4c-2.5-0.1-4.1-2.3-4.7-4.6c-0.6-2.5,1.9-4.7,4.3-5.3c0.4-0.1,0.7-0.1,1.1-0.2
					C270.4,331.7,271.3,336,270.8,338.5z M317.8,266c1.9,1.1,2.8,2.8,2,4.9c-0.9,2.4-3.5,3.2-5.9,3c-2.6-0.2-3.9-3.3-3.7-5.7
					c0-0.4,0.1-0.7,0.2-1.1C311.2,264.3,315.6,264.8,317.8,266z M263.4,198.9c1.5-1.4,3.5-1.8,5.3-0.4c1.9,1.6,2,4.3,1,6.5
					c-1,2.4-4.3,2.7-6.6,1.7c-0.3-0.1-0.7-0.3-0.9-0.5C259.7,204.6,261.5,200.6,263.4,198.9z M182.8,229.9c-0.9-1.9-0.6-3.9,1.3-5.1
					c2.1-1.4,4.7-0.6,6.5,1c1.9,1.7,1.2,4.9-0.4,6.8c-0.2,0.3-0.5,0.5-0.8,0.8C187.1,235.1,183.8,232.2,182.8,229.9z M179.1,260.3
					c0.1,0.3,0.1,0.7,0.1,1.1c-0.1,2.4-1.7,5.3-4.3,5.3c-2.4,0-4.9-1.1-5.5-3.6c-0.6-2.1,0.5-3.8,2.5-4.7
					C174.1,257.4,178.6,257.4,179.1,260.3z M215.1,329c0.4,0,0.7,0.1,1,0.3c2.3,0.8,4.6,3.2,3.8,5.7c-0.8,2.3-2.6,4.3-5.2,4.1
					c-2.2-0.1-3.5-1.7-3.7-3.8C210.8,332.9,212.2,328.7,215.1,329z M291.6,316c0.2-0.3,0.4-0.6,0.6-0.9c1.5-1.9,4.5-3.3,6.6-1.8
					c2,1.4,3.2,3.8,2.4,6.1c-0.8,2.1-2.7,2.8-4.8,2.4C293.9,321.3,290.3,318.7,291.6,316z M302.9,239.3c-0.3-0.2-0.5-0.5-0.7-0.8
					c-1.4-2-1.8-5.3,0.3-6.8c2-1.4,4.6-1.9,6.6-0.3c1.8,1.4,1.8,3.4,0.7,5.2C308.6,238.7,305,241.3,302.9,239.3z M233.4,204.8
					c-0.3,0.2-0.6,0.3-1,0.4c-2.3,0.7-5.6,0-6.4-2.4c-0.7-2.3-0.4-4.9,1.7-6.3c1.8-1.2,3.8-0.7,5.2,0.9
					C234.6,199.2,235.9,203.4,233.4,204.8z M185.8,303.6c-2.2,0.3-5.7-2.3-6-4.4c0-0.1,0-0.2,0-0.2c-0.2-2,0.9-4.5,3-4.9
					c2.7-0.5,5.4,0.3,6.5,3.2C190.1,299.6,188.5,303.2,185.8,303.6z M258.4,336c-0.4,2.1-3.9,4.7-6,4.3c-0.1,0-0.1,0-0.2,0
					c-2-0.4-4-2.3-3.7-4.4c0.4-2.7,1.9-5,5-5.2C255.9,330.7,258.8,333.4,258.4,336z M311.6,277.1c1.9,1,3.2,5.1,2.3,7.1
					c0,0.1-0.1,0.1-0.1,0.2c-1,1.7-3.4,3.1-5.3,2.2c-2.5-1.2-4.2-3.4-3.4-6.4C305.7,277.8,309.2,275.8,311.6,277.1z M272,208.2
					c1.6-1.5,5.9-1.5,7.4,0c0.1,0.1,0.1,0.1,0.1,0.1c1.4,1.5,1.9,4.2,0.4,5.7c-1.9,2-4.5,2.9-7.1,1.2
					C270.8,214,270.1,210.1,272,208.2z M194.2,224.6c-1-2,0.4-6.1,2.3-7.1c0.1,0,0.1-0.1,0.2-0.1c1.8-0.8,4.6-0.5,5.6,1.3
					c1.3,2.4,1.4,5.2-1,7.1C199.4,227.5,195.5,227,194.2,224.6z M183,273.8c0.5,3-1.4,5.1-4,6c-2,0.7-4.3-0.9-5.1-2.7
					c0-0.1-0.1-0.1-0.1-0.2c-0.7-2,1-6,3-6.8C179.3,269,182.6,271.3,183,273.8z M229.1,329.5c3,0.5,4.3,2.9,4.5,5.7
					c0.1,2.1-2.2,3.8-4.2,4c-0.1,0-0.1,0-0.2,0c-2.1,0.1-5.4-2.8-5.5-5C223.5,331.5,226.7,329.1,229.1,329.5z M296.4,302.9
					c1.4-2.7,4.1-3.2,6.8-2.5c2.1,0.6,2.9,3.2,2.5,5.2c0,0.1,0,0.1-0.1,0.2c-0.6,2.1-4.3,4.3-6.4,3.7
					C296.5,308.8,295.3,305.1,296.4,302.9z M291.8,230.6c-2.2-2.2-1.8-4.9-0.3-7.2c1.2-1.8,4-1.8,5.7-0.8c0.1,0,0.2,0.1,0.2,0.1
					c1.8,1.2,2.7,5.4,1.5,7.2C297.6,232.3,293.6,232.4,291.8,230.6z M221.7,212.7c-2.7,1.4-5.2,0.2-6.9-2c-1.3-1.7-0.4-4.3,1-5.7
					c0.1-0.1,0.1-0.1,0.2-0.1c1.7-1.3,6-0.9,7.4,0.8C225.1,207.7,223.9,211.5,221.7,212.7z M176.2,336.3c-0.3,0-0.7-0.1-1-0.2
					c-2.9-0.8-5.5-3.1-4-6.3c1-1.8,3.3-2.8,5.3-2.7C182.2,327.5,181.5,336.8,176.2,336.3z M286.5,355.3c-0.1,0.3-0.3,0.6-0.5,0.9
					c-1.6,2.5-4.7,4.3-7.2,1.8c-1.5-1.5-1.6-4-0.9-5.9C280,346.9,288.6,350.4,286.5,355.3z M338.7,256.3c0.3,0.2,0.5,0.5,0.7,0.8
					c1.8,2.3,2.7,5.8-0.5,7.4c-1.8,1-4.3,0.3-5.9-1C328.6,259.9,334.6,252.7,338.7,256.3z M260.6,176c0.3-0.2,0.6-0.3,1-0.5
					c2.8-1,6.3-0.7,6.9,2.8c0.3,2.1-1,4.2-2.7,5.3C260.9,186.7,256,178.8,260.6,176z M160.1,225.5c-0.1-0.3-0.1-0.7-0.1-1.1
					c-0.1-3,1.3-6.2,4.8-5.7c2.1,0.3,3.7,2.3,4.2,4.2C170.4,228.5,161.4,230.8,160.1,225.5z M156.9,254.3c-1.6,1.1-4.2,1.5-5.9,0.3
					c-3-1.9-1.8-5.3,0.3-7.4c0.3-0.3,0.5-0.5,0.8-0.7C156.5,243.4,161.7,251.2,156.9,254.3z M202.5,348.3c0.5,1.9,0.1,4.4-1.5,5.7
					c-2.8,2.2-5.6,0.1-7-2.5c-0.2-0.4-0.3-0.7-0.4-1C192.1,345.3,201,342.8,202.5,348.3z M306,333.9c2,0.1,4.3,1.3,5,3.2
					c1.3,3.3-1.6,5.3-4.6,5.8c-0.4,0.1-0.7,0.1-1.1,0.1C300,342.9,300.3,333.7,306,333.9z M324.3,231.1c0.7-1.9,2.5-3.7,4.6-3.8
					c3.5-0.2,4.6,3.2,4.1,6.2c-0.1,0.4-0.1,0.7-0.3,1C331.1,239.6,322.4,236.4,324.3,231.1z M232.2,181.9c-1.6-1.2-2.7-3.5-2.2-5.6
					c0.9-3.4,4.5-3.3,7.2-2c0.3,0.2,0.6,0.4,0.9,0.6C242.4,178.1,236.7,185.4,232.2,181.9z M174,311.2c2.3,0.4,5.4,2.5,5.9,4.4
					c0.7,2.3-0.7,5.5-4.6,5.2c-3.1-0.2-5.9-0.5-6.2-4.9C168.9,312.1,171.5,310.8,174,311.2z M262,349.6c1.1-2,4-4.3,6-4.3
					c2.4,0.1,5,2.4,3.5,6c-1.2,2.9-2.3,5.5-6.5,4.4C261.2,354.7,260.7,351.9,262,349.6z M325.6,277.8c-1.6-1.7-2.9-5.1-2.2-7.1
					c0.8-2.2,3.8-4,6.8-1.5c2.4,2,4.5,3.9,2.1,7.6C330.3,280.1,327.4,279.7,325.6,277.8z M277.1,195.1c-2.1,1-5.8,1.1-7.4-0.1
					c-1.9-1.4-2.6-4.9,0.7-6.9c2.6-1.6,5.1-3.1,7.8,0.3C280.7,191.4,279.4,193.9,277.1,195.1z M183.4,215.7c0.3,2.3-0.7,5.8-2.4,7
					c-1.9,1.3-5.4,1-6.3-2.8c-0.7-3-1.4-5.8,2.7-7.4C181,211.1,183,213.1,183.4,215.7z M156.2,267.7c-2-3.9,0.3-5.5,2.9-7.3
					c3.2-2.2,6.1-0.1,6.6,2.1c0.5,2-1.1,5.3-2.9,6.8C160.8,271,157.9,271.1,156.2,267.7z M215,353.1c-4.3,0.7-5.2-2-6-5
					c-1.1-3.8,1.7-5.8,4.1-5.6c2,0.1,4.7,2.7,5.6,4.9C219.6,349.7,218.9,352.5,215,353.1z M314.5,323.6c-0.7,4.3-3.5,4.3-6.6,4.2
					c-3.9-0.1-5-3.4-4.1-5.6c0.8-1.9,4.1-3.6,6.4-3.8C312.7,318.1,315.1,319.7,314.5,323.6z M317.1,219.8c3.9,2,3,4.7,1.9,7.6
					c-1.3,3.7-4.8,3.7-6.6,2.1c-1.6-1.3-2.2-5-1.7-7.2C311.4,219.8,313.6,218,317.1,219.8z M219.3,185.3c3.1-3.1,5.4-1.4,7.8,0.5
					c3.1,2.4,2,5.7,0,7c-1.8,1.1-5.4,0.6-7.4-0.7C217.5,190.7,216.5,188,219.3,185.3z M166.9,290.7c3,2.2,5.2,5.8,5.3,9.4
					c0.1,4.1-4.1,8.5-8.5,8.8c-4.5,0.3-10.4-1.9-12.3-6.3c-0.9-2.1-0.6-5.3,0.5-7.8c-2.2-1.6-4.1-4.3-4.3-6.5
					c-0.5-4.8,3.4-9.6,7.5-11.6c3.9-1.9,9.8-0.2,11.7,3.3C168.5,283,168.4,287.3,166.9,290.7z M200.7,202.6c-1.2,3.5-3.9,6.8-7.3,8
					c-3.8,1.4-9.3-1.3-11-5.4c-1.7-4.2-1.4-10.5,2.2-13.7c1.7-1.5,4.9-2.2,7.6-1.9c0.9-2.6,2.8-5.2,4.9-6.2c4.4-2,10.2,0.3,13.4,3.5
					c3,3.2,3.2,9.3,0.4,12.2C208.5,201.8,204.4,203,200.7,202.6z M294.9,207.5c-3.7,0-7.7-1.6-9.8-4.5c-2.5-3.2-1.6-9.3,1.7-12.1
					c3.5-2.9,9.5-4.6,13.7-2.1c1.9,1.2,3.6,4,4.2,6.6c2.7,0,5.8,1,7.4,2.7c3.3,3.6,2.9,9.8,0.8,13.8c-2.1,3.8-7.8,5.9-11.5,4.2
					C298.1,214.7,295.7,211.1,294.9,207.5z M319.3,298.6c-1.1-3.5-0.8-7.8,1.2-10.7c2.3-3.3,8.3-4.4,12.1-2.1
					c3.8,2.4,7.3,7.6,6.2,12.4c-0.5,2.2-2.7,4.7-5,6c0.8,2.6,0.8,5.9-0.3,7.8c-2.4,4.2-8.4,5.8-12.9,5c-4.3-0.8-8.1-5.6-7.5-9.6
					C313.5,303.9,316.1,300.5,319.3,298.6z M240.2,350c3-2.2,7.1-3.2,10.6-2.2c3.9,1.2,6.8,6.6,5.7,10.8c-1.1,4.4-5,9.3-9.8,9.8
					c-2.2,0.2-5.3-1.1-7.3-2.9c-2.2,1.6-5.3,2.6-7.5,2.1c-4.7-1-8.1-6.2-8.7-10.7c-0.6-4.3,2.8-9.4,6.8-10.1
					C233.4,346.1,237.5,347.6,240.2,350z M153.7,311.1c2.2-0.4,4.8-0.6,7,0.3c3.6,1.4,4.8,5.5,6.1,8.7c1.8,4.5,0.2,8.9-2.9,12.1
					c-3.2,3.2-7.8,6.6-12.6,5.3c-5.8-1.7-9.6-7.7-9.9-13.6c-0.3-5.7,2.8-9.4,7.3-11.4C150.2,311.9,151.9,311.4,153.7,311.1z
					 M255.6,368.9c0.4-2.3,1-4.8,2.4-6.6c2.4-3,6.7-2.9,10.2-3.1c4.9-0.3,8.5,2.6,10.6,6.6c2.1,4.1,3.9,9.4,1.1,13.6
					c-3.4,5-10.3,6.8-15.9,5.2c-5.5-1.5-8.1-5.6-8.6-10.4C255.2,372.5,255.3,370.7,255.6,368.9z M342,289.9c-2-1-4.2-2.4-5.5-4.3
					c-2.1-3.2-0.7-7.3,0.2-10.7c1.2-4.7,5.1-7.3,9.5-8.1c4.5-0.7,10.2-0.8,13.2,3.1c3.7,4.8,3.3,11.9,0.1,16.8
					c-3.1,4.8-7.8,6-12.6,4.9C345.3,291.3,343.7,290.7,342,289.9z M293.6,183.2c-1.6,1.6-3.6,3.3-5.8,3.9c-3.7,1-7.1-1.6-10.1-3.5
					c-4.1-2.6-5.4-7.1-4.7-11.6c0.7-4.5,2.4-9.9,7.1-11.6c5.7-2.1,12.3,0.5,16,5.1c3.6,4.4,3.3,9.3,0.8,13.5
					C296,180.5,294.9,181.9,293.6,183.2z M177.2,196.3c1,2,2,4.4,1.9,6.8c-0.2,3.8-3.8,6.3-6.4,8.5c-3.7,3.1-8.4,2.9-12.5,0.9
					c-4.1-2-8.7-5.3-8.9-10.3c-0.2-6,4.3-11.5,9.8-13.6c5.3-2,9.8-0.2,13.1,3.4C175.3,193.2,176.3,194.7,177.2,196.3z M140.1,280.9
					c-4.9,0.5-9.4-1.2-12-6.2c-2.7-5.2-2.4-12.3,1.8-16.7c3.5-3.6,9.1-2.9,13.5-1.7c4.3,1.2,7.9,4.2,8.6,9c0.5,3.5,1.5,7.6-0.9,10.6
					c-1.5,1.8-3.8,2.9-5.9,3.7C143.5,280.3,141.8,280.7,140.1,280.9z M222.6,372.5c-1,4.8-4,8.5-9.7,9.5c-5.8,1-12.4-1.5-15.3-6.9
					c-2.3-4.4,0-9.6,2.5-13.4c2.5-3.8,6.5-6.3,11.2-5.4c3.5,0.6,7.7,0.9,9.8,4.1c1.3,1.9,1.6,4.5,1.7,6.8
					C223.1,369,223,370.8,222.6,372.5z M335.2,322.3c4.2,2.4,6.9,6.5,6,12.1c-0.9,5.8-5.3,11.4-11.3,12.5c-4.9,0.9-9.1-3-11.9-6.5
					c-2.8-3.5-3.9-8.1-1.7-12.4c1.6-3.1,3.2-7.1,7-8.1c2.3-0.6,4.8-0.1,7,0.4C332.1,320.8,333.8,321.5,335.2,322.3z M322.3,199.7
					c3.6-3.3,8.3-4.6,13.4-2c5.3,2.6,9.2,8.6,8.3,14.6c-0.7,4.9-5.6,7.7-9.9,9.4c-4.2,1.6-8.9,1.3-12.3-2.2
					c-2.4-2.5-5.7-5.3-5.5-9.1c0.1-2.3,1.3-4.6,2.6-6.5C319.9,202.2,321.1,200.8,322.3,199.7z M201.7,174.1c-2-4.5-1.8-9.3,2.2-13.3
					c4.1-4.2,11-6.1,16.4-3.4c4.5,2.2,5.6,7.7,5.8,12.3c0.2,4.5-1.6,8.8-5.9,11c-3.2,1.5-6.8,3.8-10.4,2.4c-2.2-0.8-4-2.7-5.4-4.5
					C203.4,177.2,202.4,175.6,201.7,174.1z M147.4,346.3c-0.7,0-1.5-0.3-2.3-1c-2.9-2.4-1.4-7.5,2.7-6.8
					C152.8,339.4,150.9,346.2,147.4,346.3z M287.1,385.7c-0.2,0.7-0.7,1.4-1.6,1.9c-3.2,2-7.6-1-5.7-4.7
					C282.2,378.5,288.1,382.4,287.1,385.7z M367.8,265.1c0.6,0.4,1.1,1.1,1.3,2.1c0.9,3.7-3.3,6.9-6.2,3.9
					C359.4,267.5,364.9,263.1,367.8,265.1z M278,151.1c0.6-0.4,1.4-0.7,2.5-0.6c3.8,0.3,5.5,5.3,1.8,7.1
					C277.7,159.8,275.2,153.2,278,151.1z M141.8,201.2c-0.2-0.7-0.2-1.5,0.2-2.5c1.4-3.5,6.7-3.6,7.3,0.5
					C150,204.2,142.9,204.5,141.8,201.2z M126.4,258.8c-3.2,2.7-7-1-5.7-4.5c0.4-1,0.9-1.6,1.5-2
					C125.3,250.6,130.3,255.6,126.4,258.8z M197.4,378.7c1.5,3.8-3.1,6.4-6.1,4.1c-0.8-0.7-1.3-1.4-1.4-2.1
					C189.3,377.2,195.5,374,197.4,378.7z M333.4,348.2c4.1-0.3,5.1,4.9,2,7.1c-0.9,0.6-1.7,0.8-2.4,0.7
					C329.5,355.5,328.3,348.5,333.4,348.2z M346.4,209.5c1-4,6.3-3.3,7.3,0.3c0.3,1,0.2,1.9-0.1,2.5
					C352.1,215.5,345.1,214.4,346.4,209.5z M218.5,154.3c-3.5-2.2-1.2-7,2.5-6.9c1.1,0,1.8,0.4,2.4,0.8
					C225.9,150.6,222.8,156.9,218.5,154.3z M139.1,298.1c0.9,2.3,2.2,4.2,4,5c-2.7-1.1-4.4-2.5-5.5-4.6c-0.1-2.3,0.7-4.4,2.5-6.7
					C138.9,293.3,138.8,295.7,139.1,298.1z M185,178.5c-1.9,1.6-3.3,3.4-3.5,5.3c0.3-2.9,1-4.9,2.6-6.7c2.2-0.7,4.4-0.7,7.1,0.3
					C189.5,176.8,187.2,177.4,185,178.5z M313,185.1c-2.1-1.3-4.3-2.1-6.2-1.7c2.8-0.7,5-0.5,7.1,0.5c1.4,1.9,2,4,2,6.9
					C316,188.9,314.7,186.9,313,185.1z M346.2,308.9c0.6-2.4,0.7-4.7-0.3-6.4c1.5,2.5,2,4.6,1.8,6.9c-1.3,1.9-3.2,3.1-5.9,4
					C343.5,312.9,345,311.1,346.2,308.9z M238.7,378.8c2.4-0.2,4.7-0.8,6-2.3c-1.9,2.2-3.8,3.4-6,3.8c-2.2-0.7-3.9-2.1-5.6-4.4
					C234.1,377.5,236.3,378.3,238.7,378.8z M140.6,306.2c1,0.4,6.3,3.8,7.3,2.9c-2.5,2.2-5.4,3.1-8.7,2.5c-2.9-0.5-6.5-1.1-8.9-2.7
					c1-0.3,1.9-1.4,2.7-2.1C135.4,305.1,137.9,305.1,140.6,306.2z M246.8,379.8c0.7-0.8,5.6-4.9,5.1-6.1c1.3,3.1,1.3,6.1-0.3,9.1
					c-1.3,2.6-3.1,5.9-5.3,7.7c0-1.1-0.8-2.2-1.1-3.3C244.3,384.4,244.9,382,246.8,379.8z M349.7,301.6c-0.6-1-2.9-6.8-4.2-6.7
					c3.3-0.4,6.2,0.7,8.6,3.1c2,2.1,4.6,4.7,5.6,7.4c-1-0.3-2.4,0-3.5,0C353.3,305.4,351.3,304,349.7,301.6z M307.1,179.5
					c-1.1,0.3-7.4,0.7-7.7,1.9c0.7-3.3,2.6-5.7,5.6-7.2c2.6-1.3,5.9-2.9,8.8-3.1c-0.6,0.9-0.7,2.3-1,3.3
					C311.8,177.3,309.9,178.8,307.1,179.5z M177.8,182.4c-0.1,1.1-1.7,7.2-0.5,7.9c-2.9-1.7-4.6-4.2-5.2-7.5c-0.4-2.9-1-6.6-0.2-9.3
					c0.6,0.9,1.9,1.3,2.8,2C177.2,177.1,178,179.5,177.8,182.4z M129.5,293.6c-1.1-0.1-2.4-0.6-3.4-0.4c1.3-2.6,4.1-5,6.4-6.8
					c2.6-2.1,5.5-2.8,8.8-2.1c-1.3-0.3-4.2,5.3-4.9,6.2C134.6,292.7,132.4,293.9,129.5,293.6z M231.4,386.5c-0.4,1-1.3,2.1-1.5,3.1
					c-2.1-2-3.5-5.5-4.5-8.2c-1.2-3.1-1-6.1,0.7-9.1c-0.7,1.1,3.8,5.6,4.4,6.6C232.2,381.4,232.6,383.8,231.4,386.5z M351.3,318.3
					c0.8,0.7,1.6,1.9,2.5,2.4c-2.6,1.3-6.3,1.6-9.2,1.8c-3.3,0.2-6.2-1-8.4-3.5c0.9,1,6.5-1.8,7.6-2.2
					C346.7,316,349.1,316.3,351.3,318.3z M323.5,183.2c0.9-0.5,2.3-0.9,3-1.7c0.5,2.9-0.4,6.5-1.2,9.3c-0.9,3.2-2.8,5.6-5.9,6.9
					c1.2-0.5,0.3-6.8,0.3-7.9C319.8,186.9,320.9,184.6,323.5,183.2z M186.4,167.9c-0.2-1-0.1-2.4-0.7-3.4c2.9,0.4,6,2.4,8.5,4
					c2.8,1.8,4.4,4.4,4.8,7.7c-0.1-1.3-6.4-2.4-7.4-2.7C188.8,172.5,187,170.8,186.4,167.9z M122.8,309.3c-0.7-0.3-1.3-0.4-1.8-0.4
					c2.9-0.2,5-1.3,7.4-2.9c2.9-2,4.5-2.1,8-1.7c-1.7,0.7-3.4,0.6-5,1.7c-1.5,1.1-4.3,2.9-2.7,4.5c1.3,1.2,3.7,1.7,5.3,2.2
					c1.9,0.5,4.6,1.3,6.6,0.7c-2.5,0.8-4.9,1.8-7.7,1.3c-2.1-0.4-4.3-2.2-6.3-3.2C125.7,310.9,124.2,309.9,122.8,309.3z
					 M244.3,397.7c-0.5,0.5-0.8,1.1-1,1.6c0.8-2.8,0.3-5.1-0.5-7.9c-1-3.4-0.6-5,0.8-8.1c0.1,1.8-0.5,3.5,0.1,5.2
					c0.6,1.7,1.4,5,3.5,3.9c1.5-0.8,2.8-3,3.7-4.4c1.1-1.7,2.7-4,2.7-6.1c0,2.6,0.2,5.2-1.1,7.7c-1.1,1.9-3.4,3.5-5,5
					C246.8,395.4,245.3,396.5,244.3,397.7z M365.9,309.4c0.4,0.6,0.7,1.1,1.2,1.4c-2.4-1.6-4.8-1.9-7.7-2c-3.5-0.1-4.9-0.9-7.5-3.3
					c1.8,0.5,3.1,1.5,5,1.5c1.8,0,5.2,0.2,4.8-2.1c-0.3-1.7-2-3.6-3-4.9c-1.2-1.5-3-3.8-5-4.4c2.5,0.8,5,1.4,6.9,3.5
					c1.5,1.6,2.2,4.3,3.2,6.3C364.5,306.4,365.1,308.2,365.9,309.4z M319.6,166.5c0.7-0.1,1.3-0.4,1.7-0.7c-2.3,1.8-3.3,4-4.2,6.7
					c-1.2,3.3-2.4,4.4-5.4,6.1c1-1.5,2.4-2.5,3-4.3c0.6-1.7,1.8-4.9-0.5-5.2c-1.8-0.2-4,0.8-5.6,1.4c-1.9,0.7-4.5,1.7-5.7,3.3
					c1.6-2.1,2.9-4.3,5.5-5.5c2-0.9,4.8-0.8,7-1.2C316.3,166.9,318.1,166.9,319.6,166.5z M169.3,166.5c0.1-0.7,0-1.3-0.1-1.8
					c1,2.7,2.8,4.3,5,6.1c2.8,2.2,3.4,3.7,4.1,7.1c-1.1-1.4-1.6-3.1-3.1-4.2c-1.5-1.1-4.1-3.2-5.1-1.1c-0.8,1.6-0.5,4-0.4,5.7
					c0.1,2,0.2,4.8,1.4,6.5c-1.5-2.1-3.2-4.1-3.6-6.9c-0.3-2.2,0.7-4.8,1.1-7C168.7,169.7,169.2,167.9,169.3,166.5z M121.7,292.8
					c1.2-1.8,2.3-4.5,3.9-5.9c2.1-1.8,4.7-2.1,7.2-2.7c-2,0.5-4,2.5-5.4,3.9c-1.2,1.2-3,2.9-3.5,4.6c-0.7,2.2,2.8,2.4,4.6,2.6
					c1.9,0.2,3.4-0.7,5.2-1c-2.8,2.1-4.3,2.7-7.8,2.5c-2.9-0.2-5.2-0.2-7.8,1.2c0.5-0.2,0.9-0.7,1.3-1.3
					C120.3,295.4,121.1,293.8,121.7,292.8z M228.3,393.6c-1.4-1.7-3.5-3.5-4.4-5.5c-1.1-2.6-0.6-5.1-0.4-7.7c-0.2,2.1,1.1,4.6,2,6.3
					c0.8,1.5,1.8,3.8,3.2,4.8c1.9,1.3,3.1-1.9,3.8-3.6c0.8-1.7,0.4-3.4,0.7-5.2c1.1,3.3,1.3,4.9,0,8.2c-1.1,2.7-1.8,4.9-1.3,7.8
					c-0.1-0.5-0.4-1.1-0.8-1.7C230.3,395.8,229,394.5,228.3,393.6z M357.1,323.5c-2.1,0.8-4.5,2.3-6.6,2.5c-2.8,0.3-5-1-7.5-2.1
					c1.9,0.8,4.7,0.3,6.6,0c1.7-0.3,4.2-0.5,5.5-1.6c1.8-1.4-0.8-3.6-2.2-4.8c-1.4-1.3-3.1-1.4-4.7-2.2c3.5,0,5.1,0.3,7.8,2.6
					c2.2,1.8,4.1,3.2,7,3.7c-0.5-0.1-1.2,0-1.8,0.2C359.8,322.2,358.2,323.1,357.1,323.5z M330.2,179.3c0.1,2.2,0.8,4.9,0.3,7.1
					c-0.6,2.7-2.5,4.5-4.3,6.5c1.4-1.5,1.8-4.3,2.1-6.3c0.3-1.7,0.8-4.1,0.2-5.8c-0.8-2.2-3.6-0.3-5.2,0.6c-1.6,1-2.3,2.6-3.6,3.8
					c1-3.3,1.8-4.7,4.8-6.6c2.4-1.5,4.3-2.9,5.6-5.5c-0.2,0.5-0.3,1.1-0.3,1.8C329.8,176.3,330.1,178.1,330.2,179.3z M184.7,160.3
					c2.1,0.6,4.9,0.8,6.8,1.9c2.4,1.4,3.5,3.8,4.8,6c-1-1.8-3.6-3-5.4-3.9c-1.5-0.8-3.7-2-5.4-2c-2.3,0.1-1.4,3.4-1,5.2
					c0.4,1.8,1.7,2.9,2.6,4.6c-2.8-2-3.9-3.2-4.8-6.6c-0.7-2.8-1.5-5-3.5-7.1c0.4,0.4,1,0.7,1.6,0.9
					C181.8,159.8,183.6,160,184.7,160.3z M118.3,317.2c0.2-0.1,0.4-0.1,0.6-0.1c-5.8,2.5-11,5.9-15.7,9.9
					C107.3,322.4,112.1,318.7,118.3,317.2z M250.5,404.4c0-0.2,0.1-0.4,0.1-0.6c0.5,6.3,2.1,12.3,4.6,18
					C252,416.5,249.9,410.8,250.5,404.4z M374.2,305.7c-0.2-0.1-0.4-0.2-0.6-0.3c6.2,1.4,12.4,1.8,18.6,1.2
					C386.2,308,380.1,308.2,374.2,305.7z M318.6,157.5c-0.1,0.1-0.3,0.3-0.5,0.4c3.2-5.4,5.5-11.2,6.9-17.3
					C324.5,146.8,322.8,152.6,318.6,157.5z M160.4,164.6c0.1,0.2,0.2,0.4,0.3,0.6c-4.1-4.8-9-8.7-14.3-11.9
					C152.1,155.7,157.1,159.1,160.4,164.6z M93.6,291c6.1,1.2,12.3,1.5,18.6,0.7c-0.2,0.1-0.4,0.2-0.6,0.2
					C105.4,293.8,99.4,293.1,93.6,291z M217.9,419.9c3-5.4,5.2-11.3,6.4-17.5c0,0.2,0.1,0.4,0.1,0.6
					C224.3,409.5,221.6,415,217.9,419.9z M378.9,341.5c-4.2-4.5-9.1-8.4-14.6-11.5c0.2,0.1,0.4,0.1,0.6,0.1
					C370.9,332.2,375.3,336.4,378.9,341.5z M354,164.1c-5.6,2.6-10.8,6-15.5,10.3c0.1-0.2,0.2-0.4,0.3-0.5
					C342.8,168.8,348.1,165.9,354,164.1z M177.7,133c0.7,6.1,2.4,12.2,5.1,17.9c-0.1-0.2-0.3-0.3-0.4-0.5
					C178.7,145.1,177.6,139.1,177.7,133z M106.6,440.2c-6.6-8.8-13.5-16.8-17.8-27.6c-4.7-11.8-6.3-24.6-5.3-37.2
					c2.2-28.4,20.5-47.3,45.2-58.8c0.7,0,1.3,0,2.1,0c-0.7,5.3-1.7,10.9-2.2,16.5c-0.8,8-1.2,16.1-1.9,24.2
					c-0.7,7.9-1.8,15.6-3.9,23.2c0.4,0.9,0.7,1.9,1.1,2.9c2.9-10,4.7-20.4,4.8-30.9c0.1-6.3,1-12.5,1.9-18.8
					c0.8-4.9,0.6-10.6,2.7-15.2c0.7-1.7,4.7-1.9,6.5-2.3c1.3-0.2,2.6-0.5,3.7-1.1c-3.1,1.3-4.6,6-5,9c-0.5,3.4,0.7,6.3,3,8.7
					c-0.1-0.1-1.5,4.2-1.5,4.4c-0.3,1.9-0.4,3.9-0.5,5.8c-0.2,2.7-0.7,5.3-0.9,8c-0.2,2.8,0.4,5.3,1.3,7.7c0.9,2.5,1.3,5.1,1.8,7.8
					c1,5.1-0.2,10.3,0,15.5c0.2,4,1.9,7.3,3.1,10.8c3.7,0.5,7.3,1.4,11.2,0.8c5.1-0.8,10-3.2,15.2-3.2c2.7,0,5.3-0.2,8,0.2
					c2.6,0.3,5.2,0.4,7.8-0.4c2.6-0.8,5-1.8,7.7-2.6c1.8-0.6,3.8-1,5.6-1.7c0.3-0.1,4.1-2.4,4-2.4c2.8,1.7,6,2.3,9.2,1.1
					c2.9-1.1,7.2-3.5,7.8-6.8c-0.4,1.3-0.3,2.6-0.3,3.9c0,1.8,0.6,5.7-0.9,6.8c-4.1,3-9.7,4-14.3,5.8c-5.9,2.3-11.8,4.4-17.9,5.8
					c-10.2,2.3-20,6.2-29.2,11.2c1,0.2,2.1,0.3,3,0.5c6.9-3.6,14.3-6.4,21.8-8.7c7.7-2.4,15.5-4.4,23.2-6.9
					c5.4-1.7,10.7-3.8,15.7-5.6c0.1,0.7,0.3,1.3,0.4,2c-6,26.6-20.8,48.4-48.1,56.5c-12.1,3.6-25,4.7-37.5,2.6
					C125.8,449.9,116.6,444.8,106.6,440.2z M39.9,191.4c6.3-9.1,11.8-18,20.8-25.4c9.8-8.1,21.4-13.6,33.7-16.5
					c27.7-6.6,51.4,4.9,69.9,24.9c0.2,0.6,0.4,1.3,0.7,1.9c-5.2,0.9-10.9,1.8-16.4,3c-7.9,1.7-15.7,3.8-23.6,5.7
					c-7.7,1.8-15.4,3.1-23.2,3.4c-0.8,0.7-1.6,1.3-2.4,2c10.5-0.3,20.9-1.8,30.9-4.9c6-1.9,12.2-2.9,18.4-4
					c4.9-0.8,10.3-2.7,15.3-2.2c1.8,0.2,3.3,3.9,4.2,5.5c0.6,1.1,1.2,2.3,2.2,3.2c-2.2-2.5-7.1-2.5-10.1-2c-3.4,0.6-5.8,2.6-7.4,5.5
					c0-0.1-4.4-0.1-4.7-0.1c-1.9,0.3-3.8,0.9-5.7,1.3c-2.7,0.6-5.3,1-7.9,1.6c-2.7,0.6-4.9,2-6.9,3.6c-2.1,1.6-4.5,2.9-6.8,4.2
					c-4.5,2.5-9.9,2.9-14.7,4.8c-3.7,1.4-6.3,4-9.3,6.3c0.7,3.7,0.9,7.4,2.7,10.9c2.4,4.6,6.1,8.5,7.8,13.4c0.9,2.6,1.8,5,2.3,7.7
					c0.5,2.6,1.2,5.1,2.8,7.3c1.6,2.2,3.2,4.3,4.8,6.5c1.1,1.6,2.1,3.3,3.4,4.8c0.2,0.2,3.5,3.2,3.5,3.1c-0.8,3.2-0.4,6.4,1.8,9.1
					c1.9,2.4,5.6,5.7,8.9,5.3c-1.3,0.1-2.6,0.5-3.8,0.9c-1.7,0.6-5.3,2.4-6.8,1.3c-4.1-3-6.8-8-9.9-11.9c-4-4.9-7.8-9.9-11-15.3
					c-5.3-9-12.1-17.1-19.7-24.3c0.2,1,0.3,2,0.5,3c5.6,5.5,10.5,11.6,15,18.1c4.6,6.6,9,13.4,13.7,20c3.3,4.6,6.9,9,10.2,13.2
					c-0.6,0.3-1.2,0.7-1.8,1c-27.1,2.5-52.5-4.8-68.6-28.3c-7.1-10.4-12.2-22.3-14-34.8C36.6,212.7,38.5,202.4,39.9,191.4z
					 M255.8,51.1c10.6,3.2,20.8,5.6,30.6,11.9c10.7,6.8,19.5,16.2,26.1,27c14.9,24.2,11.2,50.4-2,74.1c-0.6,0.4-1.1,0.8-1.6,1.2
					c-2.5-4.7-5-9.8-7.9-14.7c-4.1-7-8.5-13.7-12.7-20.6c-4.1-6.8-7.7-13.7-10.4-21.1c-0.9-0.5-1.7-1.1-2.6-1.7
					c3.5,9.9,8.2,19.3,14.2,27.8c3.6,5.1,6.6,10.7,9.4,16.3c2.3,4.5,5.7,8.9,6.8,13.9c0.4,1.8-2.7,4.4-3.9,5.6
					c-0.9,1-1.8,1.9-2.4,3.1c1.7-2.8,0.2-7.5-1.3-10.3c-1.6-3-4.3-4.7-7.6-5.3c0.1,0-1.3-4.2-1.4-4.5c-0.9-1.7-2-3.4-3-5
					c-1.4-2.3-2.6-4.7-4-7c-1.4-2.4-3.4-4-5.5-5.5c-2.2-1.5-4.1-3.4-6.1-5.2c-3.8-3.5-5.9-8.5-9.1-12.5c-2.5-3.1-5.8-4.8-8.8-6.9
					c-3.3,1.8-6.8,3.2-9.5,6c-3.6,3.7-6.2,8.4-10.4,11.5c-2.2,1.6-4.2,3.2-6.6,4.6c-2.3,1.3-4.4,2.7-6.1,4.9c-1.6,2.1-3,4.4-4.7,6.6
					c-1.2,1.5-2.4,3-3.5,4.7c-0.2,0.3-2,4.3-1.9,4.3c-3.3,0.3-6.2,1.6-8.1,4.5c-1.7,2.6-3.7,7.1-2.3,10.1c-0.5-1.3-1.3-2.3-2.1-3.3
					c-1.1-1.4-3.9-4.3-3.3-6c1.6-4.8,5.5-8.9,8.2-13.1c3.4-5.3,6.9-10.5,11.1-15.2c6.9-7.9,12.5-16.8,17-26.2
					c-0.9,0.4-1.8,0.9-2.7,1.4c-3.5,7-7.8,13.6-12.6,19.9c-4.9,6.4-10,12.7-14.8,19.2c-3.4,4.6-6.4,9.4-9.4,13.8
					c-0.5-0.5-1-1-1.5-1.4c-10.7-25-11.6-51.4,5.7-74c7.7-10,17.4-18.5,28.8-24.1C234.6,54.6,245,53.2,255.8,51.1z M456,213.2
					c0.2,11,1,21.5-1.8,32.8c-3.2,12.3-9.4,23.6-17.6,33.2c-18.5,21.6-44.4,26.2-71.1,21c-0.6-0.4-1.1-0.8-1.7-1.2
					c3.7-3.8,7.7-7.8,11.5-12c5.4-6.1,10.5-12.3,15.7-18.4c5.2-6,10.7-11.6,16.8-16.4c0.3-1,0.5-2,0.8-3
					c-8.3,6.4-15.8,13.7-22.1,22.2c-3.8,5-8.1,9.6-12.6,14c-3.5,3.5-6.8,8.2-11.1,10.8c-1.6,0.9-5-1.2-6.6-2
					c-1.2-0.6-2.4-1.1-3.7-1.3c3.2,0.8,7.2-2.2,9.4-4.3c2.4-2.4,3.1-5.5,2.7-8.8c0,0.1,3.6-2.5,3.8-2.7c1.4-1.4,2.6-2.9,3.8-4.4
					c1.8-2.1,3.7-3.9,5.5-6c1.8-2.1,2.8-4.5,3.5-7c0.7-2.6,1.9-4.9,3.1-7.4c2.2-4.7,6.3-8.2,9.1-12.5c2.2-3.3,2.8-7,3.8-10.6
					c-2.7-2.6-5.1-5.4-8.6-7.2c-4.6-2.3-9.9-3.3-14.1-6.3c-2.2-1.6-4.4-3-6.4-4.9c-1.9-1.8-3.9-3.4-6.6-4.3
					c-2.5-0.9-5.1-1.5-7.7-2.4c-1.8-0.6-3.7-1.4-5.5-1.9c-0.3-0.1-4.7-0.5-4.7-0.4c-1.3-3.1-3.5-5.4-6.8-6.3
					c-3-0.8-7.9-1.4-10.3,0.9c1-0.9,1.8-1.9,2.5-3c1-1.5,2.9-5,4.7-5c5.1,0,10.2,2.5,15,3.8c6.1,1.6,12.2,3.3,17.9,5.8
					c9.6,4.2,19.8,6.8,30.2,8.1c-0.7-0.7-1.5-1.5-2.2-2.2c-7.7-1.1-15.3-3.2-22.8-5.8c-7.6-2.7-15.2-5.5-22.8-8.1
					c-5.4-1.8-10.9-3.2-16-4.7c0.3-0.6,0.6-1.3,0.9-1.9c20.5-17.9,45.3-27,72.1-17.5c11.9,4.2,23,10.9,31.8,19.9
					C446.1,194,450.6,203.5,456,213.2z M363.8,453.6c-10.5,3.6-20.1,7.7-31.7,8.4c-12.7,0.8-25.3-1.6-37-6.5
					c-26.3-10.9-38.7-34.1-41.9-61.2c0.2-0.7,0.4-1.3,0.6-2c4.8,2.3,9.8,5,15,7.2c7.4,3.2,14.9,6.1,22.4,9.3
					c7.3,3.1,14.3,6.6,20.8,10.9c1-0.1,2.1-0.1,3.1-0.2c-8.6-5.9-17.9-10.8-27.9-14.1c-6-2-11.6-4.8-17.2-7.6
					c-4.4-2.3-9.9-3.9-13.7-7.2c-1.3-1.2-0.4-5.1-0.1-6.9c0.2-1.3,0.3-2.6,0.1-3.9c0.3,3.3,4.3,6.2,7.1,7.6c3.1,1.5,6.3,1.3,9.2-0.1
					c-0.1,0,3.5,2.7,3.8,2.8c1.7,0.9,3.6,1.5,5.4,2.3c2.5,1.1,4.9,2.3,7.4,3.4c2.5,1.1,5.1,1.3,7.7,1.2c2.7-0.1,5.3,0.3,8,0.6
					c5.1,0.6,9.8,3.4,14.7,4.8c3.8,1,7.5,0.5,11.2,0.4c1.6-3.4,3.6-6.5,4.2-10.4c0.8-5.1,0.1-10.5,1.6-15.4c0.8-2.6,1.5-5.1,2.7-7.6
					c1.1-2.4,2-4.8,2.1-7.5c0-2.7-0.1-5.3-0.1-8.1c0-2,0.2-3.9,0.1-5.9c0-0.3-1-4.6-1-4.6c2.5-2.1,4.1-5,3.9-8.4
					c-0.1-3.1-1.1-7.9-4.1-9.5c1.1,0.7,2.4,1.1,3.6,1.5c1.7,0.5,5.6,1.2,6.2,2.9c1.6,4.8,0.8,10.4,1.1,15.4c0.3,6.3,0.6,12.6,0,18.9
					c-1,10.4-0.3,20.9,1.6,31.2c0.5-0.9,0.9-1.8,1.4-2.7c-1.3-7.7-1.7-15.5-1.5-23.4c0.2-8.1,0.6-16.1,0.7-24.2
					c0-5.7-0.3-11.3-0.5-16.6c0.7,0.1,1.4,0.2,2.1,0.3c23.4,13.9,39.6,34.7,38.9,63.2c-0.3,12.6-3.2,25.2-9.1,36.4
					C378.9,438.3,371.3,445.5,363.8,453.6z M86.3,465.2c-4.6-19.2-9.4-38.2-10.3-58.4c-0.7-14.6,1-28.3,4.7-41.2
					c-0.5,2.4-1,4.7-1.3,7.1c-1.9,13.8,0.3,28,5.1,41.1c3.8,10.3,10.2,22.6,19,30.3c9.4,7,22.8,10.7,33.6,12.3
					c13.8,1.9,28.1,1.1,41.2-3.6c2.3-0.8,4.5-1.8,6.7-2.8c-11.9,6.4-24.9,10.8-39.3,13.2C125.6,466.5,106,465.8,86.3,465.2z
					 M9.8,179.9c16.8-10.3,33.4-20.8,52.4-27.9c13.7-5.2,27.2-7.9,40.7-8.2c-2.4,0.2-4.8,0.5-7.2,0.9c-13.8,2.5-26.6,8.9-37.5,17.5
					c-8.6,6.7-18.3,16.7-23,27.4c-3.8,11.1-3.2,25-1.3,35.8c2.4,13.7,7.6,27,16.2,38.1c1.5,1.9,3.1,3.7,4.7,5.5
					c-9.7-9.3-18-20.3-24.7-33.3C20.7,217.7,15.4,198.8,9.8,179.9z M257.5,18.9c15,12.8,30.1,25.3,42.7,41.2
					c9.1,11.4,15.9,23.4,20.4,36.1c-0.9-2.2-1.9-4.4-3.1-6.5c-6.6-12.3-16.7-22.5-28.2-30.3c-9.1-6.1-21.6-12.3-33.2-13.4
					c-11.7-0.1-24.8,4.7-34.4,9.8c-12.3,6.5-23.4,15.6-31.2,27.2c-1.3,2-2.6,4.1-3.7,6.2c5.8-12.1,13.8-23.4,24-33.8
					C225,41,241.2,30.1,257.5,18.9z M487.1,204.8c-7.5,18.3-14.8,36.4-26,53.3c-8.1,12.2-17.4,22.3-28,30.6c1.8-1.6,3.6-3.2,5.3-4.9
					c9.6-10.1,16.2-22.8,20-36.2c3-10.5,5-24.3,2.4-35.7c-3.5-11.2-12.1-22.1-20-29.7c-10-9.7-22.1-17.4-35.5-21.3
					c-2.3-0.7-4.7-1.2-7-1.7c13.3,1.8,26.5,5.9,39.6,12.5C456.1,180.7,471.5,192.8,487.1,204.8z M381.3,480.6
					c-19.7-1.5-39.2-2.8-58.8-8.2c-14.1-3.9-26.6-9.6-37.7-17.2c2.1,1.2,4.2,2.4,6.3,3.5c12.6,6.1,26.7,8.4,40.6,7.9
					c10.9-0.4,24.6-2.7,34.7-8.7c9.6-6.8,17.3-18.3,22.1-28.2c6.1-12.5,9.7-26.4,9.3-40.3c-0.1-2.4-0.3-4.8-0.6-7.2
					c2.4,13.3,2.6,27,0.4,41.5C394.7,443.7,387.9,462,381.3,480.6z"/>
			</g>
		</g>
	</g>
	<g>
		<g>
			<g>
				<path class="st0" d="M128.4,413.2c-6.7-12-3.5-25.7-3.8-39.7c0-0.3-0.4-0.4-0.5-0.1c-0.6,2.1-1.2,4.4-1.6,6.8
					c0-0.4,0.1-0.7,0.2-1.1c0-0.1-0.2-0.2-0.2-0.1c-1.5,2.9-2.8,6-4,9.2c-19.4-16.3,0.7-49,14.1-62.9c0.7-0.8-0.2-1.8-1.1-1.4
					c-15.7,7.4-37.2,56.3-15.1,66.8c-6.5,5.6-10.8,12.8-13.6,21.1c-2.4,7.1-4.5,19.5,0.6,25.8c0.4,0.5,1.2,0.1,1.2-0.5
					c-0.4-8-2.1-14.3-0.2-22.5c1.9-8.5,6.6-16.1,12.8-22c-2.4,7.9-4.1,16.3-5.4,24.1c-1,5.7-2,12.7-1.7,19.4
					c6.6-1.1,13.2-3.5,18.6-5.7c7.3-3,15.1-6.3,22.4-10.4c-4.5,7.3-11,13.4-18.9,17.1c-7.6,3.5-14.1,3.2-22,4.4
					c-0.6,0.1-0.8,1-0.2,1.3c7.3,3.6,19-1,25.4-4.8c7.5-4.5,13.6-10.2,17.7-17.7c14.8,19.4,58.2-11.8,62.2-28.7c0.2-1-1-1.6-1.6-0.7
					c-10.8,16-38.5,42.5-58.6,26.9c2.9-1.8,5.6-3.7,8.2-5.8c0.1-0.1,0-0.2-0.1-0.2c-0.3,0.1-0.7,0.3-1,0.4c2.2-1,4.3-2,6.3-3
					c0.3-0.1,0.1-0.6-0.2-0.5C154.3,411.3,141.5,417.3,128.4,413.2z M72.2,203.8c9.4-10.1,23.4-11.3,36.6-15.8
					c0.3-0.1,0.2-0.6-0.1-0.5c-2.2,0.1-4.6,0.3-6.9,0.5c0.4-0.1,0.7-0.1,1.1-0.2c0.1,0,0.1-0.2,0-0.2c-3.2-0.6-6.6-0.8-10-0.9
					c9.5-23.5,46.8-14.5,64.2-6c1,0.5,1.7-0.7,1-1.5c-11.9-12.7-65.1-18-68.2,6.3c-7.3-4.4-15.5-6.3-24.2-6.5
					c-7.5-0.1-19.9,1.8-24.4,8.6c-0.3,0.5,0.3,1.2,0.8,1c7.5-2.9,12.9-6.4,21.3-7.2c8.7-0.8,17.3,1.3,24.9,5.4
					c-8.3,0.1-16.7,1.1-24.6,2.2c-5.7,0.8-12.6,2.1-18.9,4.4c3.1,6,7.4,11.5,11.1,15.9c5.1,6.1,10.7,12.5,16.8,18.1
					c-8.4-2.1-16.2-6.3-22.1-12.7c-5.7-6.2-7.4-12.4-11-19.6c-0.3-0.5-1.2-0.4-1.3,0.2c-1.2,8,6.8,17.8,12.4,22.7
					c6.6,5.8,13.9,9.8,22.3,11.4c-13.9,20.1,29.1,51.7,46.5,50.2c1-0.1,1.3-1.5,0.2-1.7c-18.6-5.3-52.3-23.5-43.7-47.4
					c2.6,2.2,5.3,4.2,8.1,6c0.1,0.1,0.2-0.1,0.2-0.2c-0.2-0.3-0.4-0.5-0.7-0.8c1.6,1.8,3.2,3.5,4.8,5c0.2,0.2,0.6-0.1,0.4-0.3
					C82.1,227.8,72.4,217.6,72.2,203.8z M254,85.7c12.5,5.8,17.9,18.8,26.4,29.9c0.2,0.2,0.6,0,0.5-0.3c-0.8-2.1-1.7-4.2-2.7-6.4
					c0.2,0.3,0.3,0.6,0.5,1c0.1,0.1,0.2,0,0.2-0.1c-0.5-3.3-1.3-6.6-2.2-9.8c25.3,1.8,28.3,40.1,25.6,59.2c-0.1,1,1.2,1.4,1.7,0.5
					c8.4-15.3-3-67.5-27-62.9c2-8.3,1.2-16.7-1.3-25c-2.2-7.1-7.8-18.4-15.7-20.6c-0.6-0.2-1,0.6-0.7,1.1c5,6.2,10,10.3,13.4,18
					c3.5,8,4.1,16.9,2.6,25.3c-2.7-7.9-6.2-15.6-9.7-22.7c-2.5-5.2-5.9-11.4-10-16.7c-4.7,4.8-8.6,10.6-11.7,15.5
					c-4.2,6.7-8.5,14-12,21.5c-0.6-8.6,1-17.3,5.2-24.9c4.1-7.3,9.5-10.9,15.2-16.6c0.4-0.4,0.1-1.2-0.5-1.1
					c-8,1.3-14.8,11.9-17.8,18.8c-3.4,8-5,16.3-3.9,24.8c-23.4-7-40.2,43.7-33.4,59.7c0.4,0.9,1.8,0.7,1.7-0.3
					c-0.7-19.3,6.2-57,31.6-56.2c-1.3,3.2-2.4,6.3-3.2,9.5c0,0.1,0.1,0.2,0.2,0.1c0.2-0.3,0.4-0.6,0.6-0.9c-1.2,2.1-2.3,4.1-3.3,6.1
					c-0.1,0.3,0.2,0.5,0.4,0.3C234.2,102.5,241,90.1,254,85.7z M422.6,222.1c-1.6,13.7-12.3,22.8-20.3,34.3
					c-0.2,0.3,0.1,0.6,0.4,0.4c1.7-1.4,3.5-2.9,5.3-4.5c-0.3,0.3-0.5,0.5-0.8,0.8c-0.1,0.1,0.1,0.2,0.1,0.2c2.9-1.5,5.8-3.2,8.7-5.1
					c6.1,24.6-29.4,39.3-48.3,42.6c-1,0.2-0.9,1.6,0,1.8c17.1,3.2,63.2-23.7,51.5-45.2c8.5-0.7,16.3-4,23.4-9
					c6.1-4.3,15-13.1,14.7-21.3c0-0.6-0.9-0.8-1.2-0.3c-4.4,6.7-6.7,12.7-13,18.3c-6.6,5.7-14.7,9.1-23.3,10.3
					c6.6-5,12.9-10.8,18.6-16.3c4.2-4,9-9.1,12.8-14.7c-6-3-12.8-4.9-18.4-6.3c-7.7-1.9-16-3.8-24.2-4.8c8-3.3,16.8-4.4,25.3-2.7
					c8.3,1.6,13.3,5.7,20.5,9.3c0.5,0.3,1.2-0.3,0.9-0.9c-3.8-7.2-15.9-10.4-23.4-11c-8.7-0.8-17,0.2-24.8,3.9
					c-0.6-24.4-54-24.7-67.2-13.3c-0.7,0.6-0.1,1.9,0.8,1.6c18.1-6.6,56.2-11.7,63.2,12.7c-3.4-0.2-6.8-0.3-10.1-0.1
					c-0.1,0-0.1,0.2,0,0.2c0.3,0.1,0.7,0.2,1,0.3c-2.4-0.5-4.6-0.9-6.8-1.2c-0.3-0.1-0.4,0.4-0.1,0.5
					C400.4,208.5,414.3,211.1,422.6,222.1z M344.9,424.5c-13.5,2.7-25.6-4.7-38.9-8.7c-0.3-0.1-0.5,0.3-0.2,0.5
					c1.8,1.2,3.8,2.5,5.9,3.7c-0.3-0.2-0.6-0.3-1-0.5c-0.1-0.1-0.2,0.1-0.1,0.2c2.3,2.3,4.9,4.6,7.6,6.6
					c-21.5,13.4-46.4-15.8-55.5-32.8c-0.5-0.9-1.8-0.4-1.7,0.6c2.2,17.3,42.1,52.8,58.8,35c3.3,7.9,8.8,14.2,15.8,19.4
					c6,4.5,17.1,10.3,24.7,7.4c0.6-0.2,0.4-1.1-0.1-1.3c-7.7-2.1-14.2-2.4-21.4-6.7c-7.5-4.4-13.3-11.2-17-19
					c6.8,4.8,14.2,8.9,21.2,12.6c5.1,2.7,11.4,5.8,17.9,7.6c1-6.7,0.7-13.7,0.3-19.4c-0.5-7.9-1.3-16.4-2.9-24.5
					c5.6,6.6,9.4,14.6,10.4,23.2c1,8.4-1.3,14.4-2.5,22.3c-0.1,0.6,0.7,1,1.1,0.6c5.7-5.8,4.9-18.3,3.3-25.6
					c-1.9-8.5-5.5-16.1-11.4-22.4c23.1-8.1,6.8-58.9-8.1-68c-0.9-0.5-1.9,0.4-1.2,1.3c11.9,15.2,28.5,49.8,7.5,64
					c-0.8-3.3-1.8-6.5-3-9.6c-0.1-0.1-0.2-0.1-0.2,0.1c0,0.4,0,0.7,0,1.1c-0.2-2.4-0.6-4.7-0.9-6.9c0-0.3-0.5-0.3-0.6,0
					C351,399.3,352.8,413.3,344.9,424.5z M112.6,432.7c-0.2-7,0.8-14,2.1-20.9c1.4-7.4,3.9-14.7,5.8-22.1c0.2-0.2,0.4-0.3,0.5-0.4
					c0,0,0-0.1,0.1-0.1c-0.9,9.5,0,19.4,5,27c8.4,3.3,18.3,2.2,27.4-0.7c0,0-0.1,0-0.1,0.1c-0.1,0.2-0.2,0.4-0.3,0.6
					c-6.8,3.4-13.4,7.4-20.4,10.2C126.2,428.9,119.5,431.4,112.6,432.7z M48.9,194.9c6.6-2.4,13.6-3.6,20.5-4.5
					c7.5-1,15.2-0.9,22.8-1.3c0.2,0.1,0.4,0.2,0.6,0.4c0,0,0.1,0,0.1,0c-9.3,2.1-18.5,6-24.1,13.1c-0.6,9,3.6,18,9.1,25.8
					c0,0-0.1-0.1-0.1-0.1c-0.2,0-0.4-0.1-0.7-0.1c-5.3-5.4-11.2-10.5-16.1-16.3C56.6,206.6,52.2,201.1,48.9,194.9z M255.3,60.7
					c4.3,5.5,7.6,11.9,10.6,18.1c3.3,6.8,5.5,14.2,8.3,21.3c-0.1,0.2-0.1,0.4-0.2,0.7c0,0,0,0.1,0,0.1c-4.9-8.3-11.4-15.7-19.9-18.9
					c-8.8,2.2-16.1,9-21.7,16.7c0-0.1,0-0.1,0-0.1c-0.1-0.2-0.1-0.4-0.1-0.7c3.5-6.7,6.5-13.8,10.5-20.3
					C246.5,71.7,250.5,65.8,255.3,60.7z M446.7,215.6c-3.9,5.8-8.9,10.9-13.9,15.7c-5.5,5.2-11.8,9.7-17.7,14.5c-0.2,0-0.4,0-0.7,0
					c0,0,0,0-0.1,0.1c6.3-7.2,11.4-15.7,11.8-24.7c-4.9-7.6-13.5-12.5-22.6-15.5c0,0,0.1,0,0.1,0c0.2-0.1,0.4-0.2,0.6-0.3
					c7.5,1.3,15.2,1.9,22.5,3.7C433.5,210.7,440.4,212.6,446.7,215.6z M358.5,445.5c-6.7-1.9-13.1-5.1-19.2-8.4
					c-6.6-3.6-12.8-8.2-19.2-12.3c-0.1-0.2-0.2-0.4-0.3-0.6c0-0.1-0.1-0.1-0.1-0.1c8.8,3.8,18.5,6,27.2,3.6c5.7-7,7.7-16.7,7.8-26.3
					c0,0,0,0.1,0.1,0.1c0.1,0.1,0.3,0.3,0.5,0.5c1.1,7.5,2.9,15,3.4,22.6C359.1,431.4,359.5,438.6,358.5,445.5z"/>
			</g>
		</g>
	</g>
</g>
</svg>
